<?xml version="1.0" encoding="UTF-8" standalone="no"?>
<svg
   xmlns:dc="http://purl.org/dc/elements/1.1/"
   xmlns:cc="http://creativecommons.org/ns#"
   xmlns:rdf="http://www.w3.org/1999/02/22-rdf-syntax-ns#"
   xmlns:svg="http://www.w3.org/2000/svg"
   xmlns="http://www.w3.org/2000/svg"
   xmlns:sodipodi="http://sodipodi.sourceforge.net/DTD/sodipodi-0.dtd"
   xmlns:inkscape="http://www.inkscape.org/namespaces/inkscape"
   id="svg15449"
   version="1.1"
   inkscape:version="0.48.3.1 r9886"
   width="810.60468"
   height="254.41406"
   xml:space="preserve"
   sodipodi:docname="cartouche.svg"
   inkscape:export-filename="/home/yves/OPENSNOWMAP/www.git/www.opensnowmap.org/pics/cartouche.png"
   inkscape:export-xdpi="31.087904"
   inkscape:export-ydpi="31.087904"><metadata
     id="metadata12"><rdf:RDF><cc:Work
         rdf:about=""><dc:format>image/svg+xml</dc:format><dc:type
           rdf:resource="http://purl.org/dc/dcmitype/StillImage" /><dc:title></dc:title></cc:Work></rdf:RDF></metadata><defs
     id="defs15453"><clipPath
       clipPathUnits="userSpaceOnUse"
       id="clipPath15465"><path
         d="m 0,0 2622.77,0 0,1666 L 0,1666 0,0 z"
         id="path15467"
         inkscape:connector-curvature="0" /></clipPath><inkscape:perspective
       sodipodi:type="inkscape:persp3d"
       inkscape:vp_x="0 : 0.5 : 1"
       inkscape:vp_y="0 : 1000 : 0"
       inkscape:vp_z="1 : 0.5 : 1"
       inkscape:persp3d-origin="0.5 : 0.33333333 : 1"
       id="perspective10" /><inkscape:perspective
       id="perspective2861"
       inkscape:persp3d-origin="0.5 : 0.33333333 : 1"
       inkscape:vp_z="1 : 0.5 : 1"
       inkscape:vp_y="0 : 1000 : 0"
       inkscape:vp_x="0 : 0.5 : 1"
       sodipodi:type="inkscape:persp3d" /><inkscape:perspective
       id="perspective2862"
       inkscape:persp3d-origin="0.5 : 0.33333333 : 1"
       inkscape:vp_z="1 : 0.5 : 1"
       inkscape:vp_y="0 : 1000 : 0"
       inkscape:vp_x="0 : 0.5 : 1"
       sodipodi:type="inkscape:persp3d" /></defs><sodipodi:namedview
     pagecolor="#ffffff"
     bordercolor="#666666"
     borderopacity="1"
     objecttolerance="10"
     gridtolerance="10"
     guidetolerance="10"
     inkscape:pageopacity="0"
     inkscape:pageshadow="2"
     inkscape:window-width="1307"
     inkscape:window-height="804"
     id="namedview15451"
     showgrid="false"
     inkscape:zoom="0.74"
     inkscape:cx="405.69674"
     inkscape:cy="127.2115"
     inkscape:window-x="76"
     inkscape:window-y="73"
     inkscape:window-maximized="0"
     inkscape:current-layer="g4176"
     fit-margin-top="0"
     fit-margin-left="0.8"
     fit-margin-right="0"
     fit-margin-bottom="0" /><g
     id="g15457"
     inkscape:groupmode="layer"
     inkscape:label="skier-vector-clipart-3"
     transform="matrix(1.25,0,0,-1.25,1099.3156,-561.75781)"><flowRoot
   xml:space="preserve"
   id="flowRoot2875"
   style="font-size:40px;font-style:normal;font-weight:normal;fill:#000000;fill-opacity:1;stroke:none;font-family:Bitstream Vera Sans"
   transform="matrix(0.8,0,0,-0.8,-931.61737,527.88456)"><flowRegion
     id="flowRegion2877"><rect
       id="rect2879"
       width="458.33334"
       height="41.666668"
       x="3100"
       y="170.88774" /></flowRegion><flowPara
     id="flowPara2881" /></flowRoot><flowRoot
   xml:space="preserve"
   id="flowRoot2834"
   style="font-size:40px;font-style:normal;font-weight:normal;fill:#000000;fill-opacity:1;stroke:none;font-family:Bitstream Vera Sans"
   transform="matrix(0.8,0,0,-0.8,-931.61737,527.88456)"><flowRegion
     id="flowRegion2836"><rect
       id="rect2838"
       width="5749.7559"
       height="1268.3285"
       x="1227.2727"
       y="-1188.2031" /></flowRegion><flowPara
     id="flowPara2840"
     style="font-size:500px;font-style:normal;font-variant:normal;font-weight:normal;font-stretch:normal;font-family:DejaVu Sans;-inkscape-font-specification:DejaVu Sans" /></flowRoot>

<flowRoot
   xml:space="preserve"
   id="flowRoot3013"
   style="font-size:40px;font-style:normal;font-weight:normal;line-height:125%;letter-spacing:0px;word-spacing:0px;fill:#000000;fill-opacity:1;stroke:none;font-family:Sans"><flowRegion
     id="flowRegion3015"><rect
       id="rect3017"
       width="1049.1526"
       height="327.11865"
       x="2400"
       y="528.81354" /></flowRegion><flowPara
     id="flowPara3019" /></flowRoot><text
   xml:space="preserve"
   style="font-size:40px;font-style:normal;font-weight:normal;line-height:125%;letter-spacing:0px;word-spacing:0px;fill:#000000;fill-opacity:1;stroke:none;font-family:Sans"
   x="2732.2034"
   y="740.67798"
   id="text3021"
   sodipodi:linespacing="125%"
   transform="matrix(0.8,0,0,-0.8,-907.61736,268.50778)"><tspan
     sodipodi:role="line"
     id="tspan3023"
     x="2732.2034"
     y="740.67798" /></text>


<flowRoot
   xml:space="preserve"
   id="flowRoot3032"
   style="font-size:12px;font-style:normal;font-weight:normal;line-height:125%;letter-spacing:0px;word-spacing:0px;fill:#000000;fill-opacity:1;stroke:none;font-family:Sans"
   transform="matrix(0.8,0,0,-0.8,-877.11736,-453.65719)"><flowRegion
     id="flowRegion3034"><rect
       id="rect3036"
       width="427.93866"
       height="88.586029"
       x="343.44122"
       y="83.696762"
       style="font-size:12px" /></flowRegion><flowPara
     id="flowPara3038"></flowPara></flowRoot><flowRoot
   xml:space="preserve"
   id="flowRoot3040"
   style="font-size:12px;font-style:normal;font-weight:normal;line-height:125%;letter-spacing:0px;word-spacing:0px;fill:#000000;fill-opacity:1;stroke:none;font-family:Sans"
   transform="matrix(0.8,0,0,-0.8,-877.11736,-453.65719)"><flowRegion
     id="flowRegion3042"><rect
       id="rect3044"
       width="420.44293"
       height="134.92334"
       x="330.49405"
       y="80.289612"
       style="font-size:12px" /></flowRegion><flowPara
     id="flowPara3046"></flowPara></flowRoot><g
   id="g4176"><rect
     ry="3.8297675"
     rx="3.8297675"
     transform="scale(1,-1)"
     y="450.19608"
     x="-878.00623"
     height="201.94444"
     width="646.22223"
     id="rect3402"
     style="opacity:0.98999999;fill:#ffffff;fill-opacity:0.71727756;stroke:#000000;stroke-width:1.60000002;stroke-linecap:round;stroke-linejoin:miter;stroke-miterlimit:4;stroke-opacity:1;stroke-dasharray:none;stroke-dashoffset:50" /><path
     inkscape:connector-curvature="0"
     id="path2818"
     d="m -816.71735,-547.40202 c -0.0759,0.0257 -1.34938,0.42848 -2.8299,0.89502 -1.48052,0.46654 -3.53047,1.12054 -4.55545,1.45333 -1.85354,0.60181 -4.53537,1.36295 -11.38862,3.23223 -1.97403,0.53843 -3.86868,1.06249 -4.21035,1.16458 -0.34166,0.1021 -1.21134,0.3486 -1.93262,0.5478 -0.72128,0.19919 -3.67196,1.01543 -6.55708,1.81387 -6.70185,1.8547 -9.57045,2.63836 -10.02603,2.73896 -0.54086,0.11944 -1.70315,1.23262 -2.04455,1.95817 -0.38994,0.82874 -0.34073,1.486 0.11609,1.5505 0.25926,0.0366 0.51629,-0.15105 1.18049,-0.86189 0.467,-0.49978 0.91592,-0.90869 0.99762,-0.90869 0.0817,0 0.22585,-0.0931 0.32037,-0.20686 0.0945,-0.11377 0.25559,-0.20685 0.35792,-0.20685 0.10235,0 0.51405,-0.14949 0.9149,-0.33219 0.76051,-0.34664 1.67478,-0.62575 3.42067,-1.04426 0.56943,-0.1365 1.37699,-0.34885 1.79457,-0.47189 0.41759,-0.12304 0.97666,-0.26073 1.2424,-0.30597 0.26573,-0.0453 1.10435,-0.25851 1.86359,-0.47392 0.75924,-0.21541 2.12588,-0.55126 3.03697,-0.74634 0.91109,-0.19508 1.84288,-0.4102 2.07066,-0.47805 1.11717,-0.33275 1.4064,-0.31382 1.90649,0.12483 0.26219,0.22996 0.57562,0.41811 0.6965,0.41811 0.2397,0 0.68712,0.73543 0.53803,0.88436 -0.0506,0.0505 0.0393,0.12621 0.19982,0.16814 0.45637,0.11922 0.49286,0.55579 0.0601,0.7196 -0.67866,0.2569 -1.7398,0.56239 -3.1249,0.89959 -0.75924,0.18484 -2.09481,0.53061 -2.96794,0.76839 -2.79333,0.7607 -6.36052,1.67373 -8.42068,2.15527 -1.1009,0.25733 -2.65389,0.62051 -3.4511,0.80708 -0.7972,0.18657 -2.35019,0.50818 -3.45109,0.7147 -1.33309,0.25008 -2.13701,0.47146 -2.40694,0.66285 -0.7912,0.56095 -1.85879,1.95678 -1.86811,2.44245 -0.006,0.31248 0.34701,0.57252 0.64775,0.47717 0.13814,-0.0438 0.44462,-0.25061 0.68107,-0.45958 1.57487,-1.39184 2.14311,-1.70702 3.56742,-1.97874 0.68332,-0.13036 1.80148,-0.36381 2.48479,-0.51878 0.68332,-0.15497 1.92572,-0.38283 2.76088,-0.50635 0.83517,-0.12353 1.86014,-0.31546 2.27773,-0.42651 0.41758,-0.11105 1.2562,-0.2598 1.86359,-0.33056 0.60739,-0.0707 1.65383,-0.26522 2.32543,-0.43215 1.21324,-0.30156 1.22427,-0.30181 1.71847,-0.0379 0.27356,0.14607 0.67873,0.43029 0.90036,0.6316 0.24966,0.22675 0.64231,0.40187 1.03194,0.46024 0.49965,0.0749 0.752,0.2207 1.22743,0.70937 0.49359,0.50735 0.57404,0.66072 0.45912,0.87525 -0.0766,0.14306 -0.13936,0.48049 -0.13936,0.74986 0,0.26936 -0.0736,0.76465 -0.16355,1.10065 -0.15703,0.58647 -0.14077,0.65794 0.40629,1.78632 0.69504,1.43363 0.75641,2.2998 0.22692,3.20239 -0.18239,0.3109 -0.33161,0.73033 -0.33161,0.93206 0,0.20174 -0.20998,0.66171 -0.46663,1.02216 -0.90951,1.27735 -1.08882,1.77455 -1.00297,2.7809 0.0426,0.49958 0.12811,1.18759 0.19,1.5289 0.11297,0.62317 -0.10066,2.24072 -0.36041,2.72878 -0.10139,0.1905 -0.55108,1.37706 -1.2132,3.20105 -0.0413,0.11377 -0.12747,0.61023 -0.1915,1.10323 -0.064,0.493 -0.21646,1.45488 -0.33872,2.1375 -0.12225,0.68262 -0.27526,1.73758 -0.34,2.34435 -0.0648,0.60678 -0.22231,1.72379 -0.35014,2.48226 -0.12783,0.75847 -0.25109,1.62726 -0.27391,1.93064 -0.0228,0.30339 -0.0868,0.8128 -0.14214,1.13201 -0.0915,0.5277 -0.15234,0.59733 -0.66993,0.76694 -0.53249,0.17448 -0.5887,0.24392 -0.86978,1.07444 -0.16528,0.48835 -0.30725,1.1051 -0.31549,1.37057 -0.008,0.26546 -0.10377,0.6378 -0.21227,0.82741 -0.1085,0.18962 -0.19949,0.53942 -0.20216,0.77732 -0.003,0.23791 -0.16073,0.95156 -0.35119,1.58589 -0.53049,1.76683 -1.45649,6.25344 -1.56154,7.56582 l -0.0938,1.17218 -0.41413,0.0467 c -0.22778,0.0257 -0.48301,0.10356 -0.56717,0.17309 -0.0981,0.081 -0.28686,0.0212 -0.52573,-0.16645 -0.33662,-0.26452 -0.66498,-0.38476 -1.737,-0.63607 -0.18981,-0.0445 -0.5861,-0.2322 -0.88064,-0.41711 -0.29455,-0.18492 -0.88468,-0.38665 -1.31142,-0.44829 -0.42673,-0.0616 -1.06466,-0.21127 -1.4176,-0.33249 -0.90704,-0.31153 -1.76735,-0.4067 -2.6643,-0.29475 -0.65962,0.0823 -0.89077,0.19644 -1.5639,0.77207 -0.43444,0.3715 -0.85201,0.74714 -0.92793,0.83476 -0.58521,0.6753 -1.59556,1.56093 -1.96582,1.72316 -0.2868,0.12566 -0.51987,0.36943 -0.64947,0.67929 -0.19032,0.45503 -0.54851,0.74344 -0.71579,0.57633 -0.18277,-0.18259 -0.59525,-2.90653 -1.29891,-8.57796 -0.0659,-0.53093 -0.24965,-1.89617 -0.40839,-3.03387 -0.15873,-1.1377 -0.35039,-2.59603 -0.4259,-3.24072 -0.0755,-0.6447 -0.20023,-1.60658 -0.27714,-2.1375 -0.0769,-0.53093 -0.19566,-1.43075 -0.26389,-1.9996 -0.0682,-0.56885 -0.40419,-3.26831 -0.74659,-5.99879 -0.59255,-4.72527 -0.69694,-5.61044 -1.04083,-8.8258 -0.19137,-1.78928 -0.39988,-3.49846 -0.56358,-4.61976 -0.072,-0.493 -0.28574,-2.3547 -0.47505,-4.1371 -0.1893,-1.78239 -0.4054,-3.70614 -0.4802,-4.27499 -0.13282,-1.0099 -0.25291,-2.01863 -0.55918,-4.69674 -0.18674,-1.63296 -0.0912,-1.94809 0.65909,-2.17264 0.30081,-0.09 0.67948,-0.16369 0.8415,-0.16369 0.38345,0 0.39122,-0.42497 0.0121,-0.6615 -0.29788,-0.18584 -1.94358,-0.2567 -2.20554,-0.095 -0.0845,0.0522 -0.11264,0.19717 -0.0626,0.32223 0.14308,0.35718 0.31821,1.78385 0.68812,5.6056 0.11012,1.1377 0.26424,2.65809 0.3425,3.37863 0.0783,0.72055 0.23258,2.17887 0.34295,3.24073 0.3653,3.51432 0.63019,5.76883 0.90736,7.72257 0.15064,1.06186 0.48848,3.66823 0.75076,5.79194 1.09068,8.83137 1.44958,11.65905 1.65407,13.03185 0.11863,0.79639 0.40033,2.90631 0.626,4.68871 0.22567,1.7824 0.43783,3.45792 0.47146,3.72338 0.0336,0.26547 0.16247,1.16529 0.28629,1.9996 0.12382,0.83432 0.22682,1.93528 0.22887,2.44659 0.002,0.51131 0.0907,1.25599 0.19699,1.65484 0.10629,0.39885 0.19399,0.98507 0.19489,1.3027 10e-4,0.52614 -0.0529,0.61666 -0.61157,1.01744 -0.33726,0.24196 -0.65478,0.54059 -0.7056,0.66361 -0.0508,0.12303 -0.12516,0.80074 -0.1652,1.50603 -0.0661,1.16393 -0.0384,1.37003 0.30013,2.2319 0.26623,0.67789 0.53606,1.09241 0.94312,1.44887 0.51438,0.45042 0.62503,0.49082 1.13021,0.41266 0.30801,-0.0477 0.6539,-0.11262 0.76864,-0.14437 0.26609,-0.0736 1.12061,-1.49302 1.23401,-2.04976 0.0832,-0.4084 0.11825,-0.42663 0.97834,-0.50888 0.49064,-0.0469 1.00307,-0.132 1.13876,-0.18909 0.3404,-0.14322 0.6506,-0.79009 0.6506,-1.35671 0,-0.53927 0.16022,-0.71087 0.78917,-0.84518 0.24422,-0.0522 0.67155,-0.24906 0.94961,-0.43756 0.51035,-0.34598 0.88405,-0.35187 0.88405,-0.0139 0,0.10104 0.27954,0.31937 0.6212,0.4852 0.34166,0.16582 0.6212,0.36357 0.6212,0.43945 0,0.0759 0.42818,0.35337 0.95152,0.61665 0.66146,0.33277 1.04361,0.62756 1.25365,0.96706 0.16617,0.2686 0.37472,0.48949 0.46344,0.49088 0.1479,0.002 0.9208,0.4779 1.73141,1.06542 0.18026,0.13065 0.6151,0.3526 0.96631,0.49322 0.35122,0.14063 0.73176,0.31271 0.84564,0.38239 0.18694,0.11439 0.5233,0.27751 1.49712,0.72606 0.28606,0.13176 0.31098,0.20575 0.21417,0.63592 -0.0602,0.26775 -0.12137,1.3556 -0.13581,2.41746 -0.0257,1.88886 -0.0163,1.95601 0.43251,3.10282 0.2523,0.6447 0.55502,1.59073 0.67269,2.1023 0.32749,1.42381 0.55161,1.83865 1.45956,2.70176 l 0.83769,0.79631 -0.21804,0.52132 c -0.46088,1.10194 0.38776,2.07443 1.95286,2.23784 0.7559,0.0789 0.88698,0.0516 1.40873,-0.29329 0.45772,-0.30259 0.57529,-0.46297 0.57529,-0.78476 0,-0.22245 -0.0661,-0.52782 -0.14687,-0.6786 -0.12385,-0.23117 -0.0643,-0.35712 0.37962,-0.8034 0.81243,-0.8167 1.43254,-1.9629 1.71306,-3.16643 0.13929,-0.59755 0.35538,-1.35687 0.48021,-1.68737 0.68358,-1.80992 1.19669,-3.11081 1.31052,-3.32264 0.0708,-0.1317 0.12869,-0.41461 0.12869,-0.62868 0,-0.21408 0.0777,-0.48601 0.17255,-0.60431 0.14481,-0.18051 2.37114,-1.49247 2.53264,-1.49247 0.0289,0 0.42016,-0.27925 0.86941,-0.62056 0.44925,-0.34131 0.85509,-0.62057 0.90186,-0.62057 0.0468,0 0.62721,-0.25682 1.28988,-0.57072 1.42691,-0.67589 1.51423,-0.71311 2.58531,-1.10188 1.44479,-0.52443 1.81498,-0.85568 2.2918,-2.05078 0.39678,-0.9945 1.31257,-2.6797 1.57406,-2.89649 0.14144,-0.11727 0.20644,-0.43287 0.20644,-1.00239 0,-0.75816 0.0589,-0.92336 0.66979,-1.87928 0.97561,-1.52658 1.03828,-1.66877 1.06967,-2.42708 0.0358,-0.8662 0.27297,-2.24455 0.47666,-2.77062 0.0854,-0.22064 0.14988,-0.82473 0.14326,-1.34243 -0.01,-0.76881 0.0511,-1.04897 0.33277,-1.52905 0.18964,-0.32328 0.34519,-0.79952 0.34566,-1.05832 0,-0.2588 0.0945,-0.64992 0.20894,-0.86915 0.1698,-0.32525 0.18378,-0.59221 0.076,-1.45073 -0.0726,-0.57867 -0.17088,-1.15321 -0.21834,-1.27676 -0.12882,-0.33535 0.15546,-0.4316 0.53704,-0.18182 0.21785,0.14259 0.36728,0.16989 0.42442,0.0775 0.13636,-0.22041 -0.19472,-0.73165 -0.41831,-0.64593 -0.68746,0.26353 -1.06424,-1.07406 -0.68578,-2.43455 0.0597,-0.21476 0.0472,-0.45547 -0.0286,-0.55161 -0.074,-0.0938 -0.17674,-0.44592 -0.22823,-0.78242 -0.0515,-0.33651 -0.19062,-0.81604 -0.30917,-1.06563 -0.2087,-0.43935 -0.20303,-0.47078 0.17831,-0.98773 0.21662,-0.29367 1.01506,-1.11064 1.7743,-1.81548 3.26608,-3.03208 4.55899,-4.22187 9.53583,-8.77534 2.89105,-2.64512 5.59804,-5.11959 6.01551,-5.49883 0.41747,-0.37923 1.56183,-1.43298 2.54302,-2.34166 1.62892,-1.50855 2.29661,-2.12567 3.36003,-3.10551 0.20578,-0.18962 0.58761,-0.52874 0.84851,-0.75361 0.52203,-0.44996 3.90497,-3.59359 5.86004,-5.4455 0.6844,-0.64829 1.9268,-1.80515 2.76087,-2.57079 3.43599,-3.15407 3.69341,-3.31523 4.50538,-2.8207 1.01062,0.61551 1.06479,0.22042 0.15163,-1.10574 -0.3844,-0.55823 -0.74139,-0.93829 -0.86277,-0.9185 -0.11389,0.0186 -0.28712,0.28578 -0.38495,0.59383 -0.22569,0.7106 -1.3181,1.84455 -4.37459,4.54091 -1.28908,1.13718 -2.65571,2.35299 -3.03696,2.7018 -0.38127,0.34881 -1.81136,1.64527 -3.17799,2.88102 -1.36664,1.23574 -2.54691,2.31793 -2.62284,2.40486 -0.0759,0.0869 -0.88348,0.83671 -1.79457,1.6662 -0.91109,0.82948 -2.09136,1.91708 -2.62283,2.41689 -1.8163,1.70809 -3.3138,3.09743 -4.89951,4.54562 -0.87201,0.79639 -2.02101,1.85925 -2.55333,2.36191 -0.53231,0.50266 -1.27551,1.18528 -1.65155,1.51694 -0.37603,0.33165 -0.9112,0.8202 -1.18926,1.08566 -0.27806,0.26546 -0.90383,0.855 -1.39061,1.31008 -0.48677,0.45508 -1.84626,1.73372 -3.02108,2.84142 -4.41612,4.16383 -4.88857,4.49104 -5.57823,3.86329 -0.4473,-0.40716 -1.88136,-0.60131 -2.59183,-0.3509 -0.7321,0.25804 -1.07522,0.56704 -1.07522,0.9683 0,0.17338 -0.0621,0.35359 -0.13805,0.40047 -0.1785,0.11021 -0.17719,1.34208 0.002,2.28834 0.10582,0.55747 0.27011,0.87687 0.66578,1.29442 0.96638,1.01983 1.02722,1.19131 0.91685,2.58443 -0.0763,0.96308 -0.15647,1.29019 -0.35853,1.46303 -0.31141,0.26636 -0.3432,0.82768 -0.0532,0.93886 0.27701,0.1062 0.28319,1.0944 0.007,1.20009 -0.1429,0.0548 -0.17779,0.21059 -0.12283,0.54883 0.0453,0.27864 0.0139,0.51114 -0.0765,0.56696 -0.0843,0.052 -0.15326,0.21089 -0.15326,0.353 0,0.1421 -0.12493,0.29798 -0.27761,0.34639 -0.35074,0.1112 -0.69699,0.76546 -0.6004,1.13446 0.0404,0.15445 -0.0246,0.47031 -0.14447,0.70191 -0.11987,0.23159 -0.18039,0.51889 -0.13448,0.63843 0.0459,0.11954 0.009,0.30692 -0.0819,0.4164 -0.0909,0.10948 -0.12297,0.26758 -0.0712,0.35133 0.0518,0.0837 0.0218,0.32684 -0.0667,0.54021 -0.13341,0.32177 -0.2687,0.40271 -0.79312,0.47452 -0.34774,0.0476 -0.71346,0.15389 -0.8127,0.23616 -0.41738,0.34604 -0.49361,-0.0114 -0.39555,-1.8546 0.069,-1.29691 0.16523,-1.94907 0.3386,-2.29454 0.84556,-1.68493 1.06892,-3.33844 0.53216,-3.93969 -0.14006,-0.15689 -0.2561,-0.43615 -0.25786,-0.62057 -0.002,-0.18442 -0.01,-0.49045 -0.0182,-0.68007 -0.008,-0.18961 0.0503,-0.65402 0.13,-1.03202 0.11346,-0.53809 0.10192,-0.8075 -0.0532,-1.24113 -0.10895,-0.30462 -0.2318,-1.08134 -0.27302,-1.72604 -0.10225,-1.59925 -0.15199,-1.77883 -0.5418,-1.95626 -0.18626,-0.0848 -0.37589,-0.27138 -0.42142,-0.41467 -0.0742,-0.23361 -0.41339,-0.63475 -1.50899,-1.78476 -0.19039,-0.19984 -0.34615,-0.51403 -0.34615,-0.69819 0,-0.19203 -0.17665,-0.50389 -0.41414,-0.7312 -0.22777,-0.21799 -0.41413,-0.46946 -0.41413,-0.55881 0,-0.0894 -0.11826,-0.31264 -0.26279,-0.49619 -0.14452,-0.18356 -0.33394,-0.59773 -0.42091,-0.92039 -0.087,-0.32267 -0.33984,-0.89453 -0.56194,-1.27081 -0.22208,-0.37628 -0.50845,-1.11733 -0.63638,-1.64678 l -0.23258,-0.96264 0.34767,-0.27319 c 0.35154,-0.27625 0.64419,-1.06085 0.72387,-1.94073 0.0239,-0.26425 0.13719,-0.88382 0.2517,-1.37683 0.11449,-0.493 0.24863,-1.18183 0.29806,-1.53073 0.0644,-0.45471 0.20878,-0.74762 0.50972,-1.03427 1.27863,-1.21793 2.66217,-3.90823 3.42572,-6.66131 0.23989,-0.86497 0.50023,-1.69226 0.57853,-1.83842 0.18218,-0.34005 0.67283,-3.14325 0.67283,-3.84401 0,-0.60139 -0.42296,-1.82003 -0.76132,-2.19353 -0.19152,-0.21141 -0.20236,-0.36366 -0.075,-1.05327 0.0819,-0.44338 0.31266,-1.12988 0.51285,-1.52555 0.3257,-0.64376 0.35473,-0.81877 0.27606,-1.6644 l -0.0879,-0.94501 1.41359,-0.46433 c 0.77748,-0.25539 1.50678,-0.51071 1.62067,-0.56739 0.2003,-0.0997 1.79044,-0.59052 4.07133,-1.25669 1.25782,-0.36737 1.42069,-0.60001 0.69381,-0.99107 l -0.48791,-0.26249 -4.24378,1.17889 c -2.33409,0.64839 -4.30591,1.13086 -4.38184,1.07216 -0.0759,-0.0587 -0.40638,-0.15097 -0.73435,-0.20503 -0.36595,-0.0603 -0.6268,-0.1862 -0.67528,-0.32587 -0.0434,-0.12517 -0.33394,-0.49373 -0.64558,-0.81902 -0.46783,-0.48834 -0.5306,-0.61418 -0.36004,-0.72189 0.11359,-0.0717 0.3006,-0.13139 0.41556,-0.13255 0.11495,-10e-4 0.54979,-0.13336 0.96631,-0.29377 0.41651,-0.16041 1.00578,-0.36382 1.30947,-0.45202 0.3037,-0.0882 0.68786,-0.2362 0.85369,-0.3289 0.16585,-0.0927 0.36757,-0.16855 0.44827,-0.16855 0.0807,0 0.54119,-0.18617 1.02327,-0.41371 0.48209,-0.22754 0.97191,-0.41371 1.08852,-0.41371 0.1166,0 0.88708,-0.2716 1.71218,-0.60355 0.82509,-0.33195 2.27668,-0.85352 3.22573,-1.15904 0.94905,-0.30552 2.999,-1.00202 4.55545,-1.54778 1.55644,-0.54575 2.93734,-1.00548 3.06866,-1.02161 0.13132,-0.0161 0.28144,-0.072 0.33361,-0.12408 0.0521,-0.0521 0.23978,-0.0947 0.41693,-0.0947 0.41385,0 0.40846,-0.20209 -0.0167,-0.62684 -0.31893,-0.31861 -0.5092,-0.38016 -0.83453,-0.26995 z m -20.83884,13.2736 c 0.0777,0.13273 0.15963,0.61513 0.18215,1.07199 0.0344,0.69815 -0.005,0.87218 -0.24691,1.09089 -0.34878,0.31532 -0.50517,0.21108 -0.28891,-0.19258 0.17781,-0.33193 -0.053,-1.79792 -0.2831,-1.79792 -0.0705,0 -0.12826,-0.0931 -0.12826,-0.20686 0,-0.28992 0.59077,-0.2633 0.76503,0.0345 z"
     style="fill:#000000;fill-opacity:1" /><path
     inkscape:connector-curvature="0"
     sodipodi:nodetypes="cczcscc"
     d="m -812.25512,-544.19426 c 0,0 26.032,-1.47243 58.53551,-35.71367 24.32357,-25.62392 109.66828,-24.13306 109.66828,-24.13306 0,0 0.7669,8.42741 0.7669,8.42741 0,0 -86.22954,-1.42508 -105.4502,18.00403 -34.16882,34.53942 -62.11976,35.24193 -62.11976,35.24193 l -1.40887,-1.7905"
     style="fill:#000000;fill-opacity:1;stroke:none;stroke-width:1.60000001999999997;marker-start:none"
     id="path3778" /><path
     style="fill:#000000;fill-opacity:1;fill-rule:nonzero;stroke:#000000;stroke-width:0.23999999000000000"
     d="m -656.39182,-530.49093 c -0.58167,0 -1.16279,-0.1663 -1.83136,-0.521 -0.50729,-0.26916 -3.66298,-2.60018 -3.79808,-2.84759 -0.14839,-0.27203 -2.18194,-1.82093 -2.65149,-5.11055 -0.64526,0.46556 -2.97349,1.71895 -3.45171,1.74594 -0.002,0 -0.0864,-0.007 -0.0995,-0.008 -1.68622,0.42843 -4.11439,0.2588 -4.80135,0.27442 -0.82801,0.0999 -1.38038,0.1408 -1.95876,0.14715 -0.19279,0.002 -0.38693,8.9e-4 -0.59718,-0.004 -0.0176,0 -0.0379,-10e-4 -0.0597,-0.004 -0.61434,-0.0783 -2.02533,-0.57699 -3.39199,-1.06188 -1.01191,-0.35889 -1.96642,-0.69688 -2.61168,-0.87098 -2.96462,-0.80064 -5.21017,-1.58632 -5.34279,-1.86923 -0.002,-0.005 -0.006,-0.008 -0.008,-0.0119 -0.98304,-0.45117 -1.96485,-1.15495 -2.92221,-1.54311 -0.64056,-0.2497 -1.11328,-0.87241 -1.48898,-1.95673 -0.34589,-0.9984 -0.73929,-3.40702 -0.84402,-4.24354 -0.082,-0.65748 -0.0189,-2.71322 0.0876,-3.88959 -0.10172,-0.98702 0.49239,-3.86681 0.0398,-4.01685 -0.49986,-0.30275 -0.83924,-0.82538 -1.08289,-1.32437 -3.55025,1.00203 -18.18474,5.05812 -25.51162,5.93381 -8.37564,1.00103 -23.99876,-0.73974 -23.99876,-0.73974 l -0.33044,1.80559 -0.16323,-1.88911 -2.87842,-0.5727 2.79481,0.16306 c 0,0 -0.0973,-1.50135 0.41405,-1.47947 0.44559,0.0191 0.24683,1.31641 0.24683,1.31641 0,0 15.58163,1.74988 23.83554,0.73974 7.63966,-0.93498 22.99858,-5.36768 25.26876,-6.02926 -0.005,-0.0139 -0.0107,-0.0302 -0.0159,-0.0438 -0.14421,-0.34599 -0.25287,-0.73429 -0.30257,-1.05392 -0.20008,-0.21659 -0.3985,-0.40298 -0.51756,-0.44146 -0.27355,-0.18413 -0.64222,-0.4595 -0.83606,-0.64031 -0.68033,-0.82155 -1.92908,-1.4064 -2.54001,-2.06013 -0.40092,-0.43831 -1.23341,-1.25009 -1.71192,-1.67037 -1.06035,-0.64733 -1.3065,-1.78108 -2.51613,-1.74197 -1.16099,-0.22096 -1.55845,-0.22736 -2.46437,-0.33407 -0.90593,-0.10671 -1.96571,0.0624 -2.8187,0.0636 -0.77968,0 -1.25536,-0.014 -1.81145,-0.0994 -0.5561,-0.0854 -1.5881,-0.41808 -2.43651,-0.50509 -1.75638,-0.18014 -4.0125,-0.70572 -5.45426,-0.95053 -1.44177,-0.24481 -3.01074,-0.43249 -3.9852,-0.56076 -0.97445,-0.12828 -1.82758,-0.34783 -2.755,-0.60452 -0.32837,-0.0909 -0.529,-0.11863 -0.66884,-0.13125 -0.27104,-7.6e-4 -3.41263,-0.0228 -4.9606,-0.55679 -1.61674,-0.55776 -2.61929,-2.21857 -4.39924,-2.72828 -1.75384,-0.50222 -4.09307,0.0979 -6.31819,-0.91472 -0.002,-10e-4 -0.006,10e-4 -0.008,0 -0.14085,-0.034 -0.18202,-0.0963 -0.10749,-0.18693 0.0399,-0.0485 0.11478,-0.10575 0.21897,-0.17101 -1.15013,0.31816 -2.3056,0.64008 -3.46366,0.9545 0.0543,-0.45629 0.46671,-1.4727 0.76439,-2.70839 0.36767,-0.13856 17.51413,-6.43536 18.13443,-6.56617 0.66159,-0.13886 1.56539,-0.32866 2.95008,-0.69599 0.8997,-0.23862 1.73687,-0.36191 2.48826,-0.36191 1.06671,0 1.68001,0.23915 1.97469,0.35396 0.70133,0.27368 1.2387,0.56144 1.59248,0.85109 0.20132,-0.0581 0.41504,-0.1194 0.55737,-0.15908 4.93301,-1.09931 22.95597,-6.66544 30.68322,-9.76771 1.99786,-0.80208 3.464,-0.97041 4.34351,-0.97041 1.15232,0.005 2.1711,0.23425 2.94212,1.52322 0.146,0.33855 0.0103,1.33799 -0.37424,2.08399 -1.74094,1.22325 -4.12006,1.58962 -6.03552,1.88116 -0.75862,0.11546 -1.47875,0.22483 -2.07421,0.37385 -1.01091,0.2521 -4.33526,1.3214 -7.85892,2.45386 -0.13731,0.2358 -0.54029,1.02544 0,1.36414 0.85581,0.82624 4.96833,2.04083 6.27838,1.88513 0.6856,0.25695 1.90496,1.55026 4.40322,1.94082 1.64966,0.43276 3.52589,0.7146 5.03624,0.95848 1.98025,0.44611 4.00617,0.88891 5.86034,1.53515 1.30188,0.47992 3.21474,1.45108 3.7304,1.98457 0.1087,0.11259 0.20672,0.21124 0.30257,0.30623 0.36951,0.36748 0.6861,0.68357 1.48898,1.73799 0.626,0.8222 0.78859,1.84721 0.47774,3.04644 l -0.008,0.0318 c -0.0335,0.66724 0.0214,1.20487 -0.17119,2.03626 -0.0789,0.2674 -0.18113,0.49169 -0.29063,0.69997 0.33341,0.34217 0.95035,0.88505 1.0391,0.97041 0.35364,0.37046 0.58107,0.5502 0.848,0.75962 1.19886,1.01066 2.61338,2.08308 3.75428,2.92316 0.56284,0.48267 1.09396,0.91126 1.56462,1.15335 0.22912,-0.0307 0.97663,-0.68674 1.27001,-0.79939 10e-4,-3.9e-4 0.003,3.8e-4 0.004,0 0.0251,-0.11625 0.10043,-0.27005 0.16721,-0.40169 0.26739,-0.52794 0.1888,-0.62995 0.70069,-1.75389 0.87565,-2.25593 2.0335,-4.55668 3.43579,-8.11325 0.39965,-0.71748 0.65468,-1.76508 0.9754,-2.75214 0.18538,-0.45145 0.1386,-1.89155 0.25877,-3.09019 0.13798,-0.56763 0.14065,-1.09069 0.14333,-1.59879 10e-4,-0.23117 0.005,-0.45166 0.0199,-0.66815 -0.19279,-0.48957 -0.39302,-3.78416 -0.53348,-3.82595 -0.35307,-0.10592 -0.45724,-0.65922 -1.05104,-1.11359 -0.15594,-0.22424 -0.30384,-0.52453 -0.41803,-0.86302 l 0.0478,0.44145 c 0,0 -3.83628,1.86065 -5.18354,0.75167 -1.75176,-1.44194 -0.32248,-6.79286 -0.32248,-6.79286 0,0 -1.27468,-0.14544 -1.45713,-0.69996 -0.18245,-0.55453 0.0569,-1.21729 0.54145,-1.45561 0.7329,-0.36045 1.48226,0.002 1.7796,0.64428 0.29734,0.6418 -0.32248,1.18915 -0.32248,1.18915 0,0 -1.31548,5.19271 0.42997,6.47071 1.14677,0.83965 3.9925,-0.82037 4.35545,-1.03801 -0.0691,-0.33943 -0.0988,-0.6985 -0.0597,-1.04995 0.031,-0.27952 0.047,-0.56781 0.0637,-0.85508 0.0427,-0.73378 0.0815,-1.42936 0.34637,-1.73003 0.0505,-0.057 0.10089,-0.11638 0.15925,-0.18692 0.57587,-0.56032 0.59047,-0.5961 1.07095,-0.83917 0.14466,-0.0588 0.36331,-0.0955 0.5932,-0.0955 0.14141,0 0.26876,0.0132 0.35831,0.0398 0.25556,0.29237 0.50309,-0.0546 1.059,-0.0795 0.497,0.008 1.10556,0.10592 1.66813,0.0159 0.25171,0 0.47431,0.0479 0.69273,0.15113 0.70169,0.33199 2.08357,1.34502 2.14986,1.94082 0.0529,0.47488 0.029,1.29504 0.0119,1.89309 -0.007,0.24756 -0.0119,0.46506 -0.0119,0.61645 0,0.33632 -0.5094,3.18649 -0.68079,3.2612 0.1298,1.21369 0.40105,1.39396 0.40608,2.00048 1.30979,3.70571 0.86726,7.58824 0.69671,9.08365 0.032,1.16627 -0.17733,1.08484 -0.91169,2.46579 -0.15698,0.47946 -0.7232,1.48946 -0.76838,2.31466 -0.47312,1.41056 -0.95987,2.86838 -0.96345,3.40439 -0.35011,0.66249 -0.25105,1.81828 -0.67681,2.59305 l -0.008,0.0477 c -0.30353,1.86085 -0.97295,3.5813 -0.848,5.38497 -0.44521,1.51958 -1.65951,3.19213 -2.3529,4.81625 -0.003,-0.003 -0.008,-0.009 -0.0119,-0.0119 -0.12558,0.24909 -0.62377,1.16958 -0.92364,1.53913 -0.38992,0.48064 -1.63195,1.59113 -2.02245,1.93684 0.0678,0.0197 0.13276,0.0403 0.17119,0.0716 1.99891,2.34633 1.95168,0.71556 3.07746,2.66862 0.55018,0.95446 0.9756,1.77468 0.85198,2.73623 0.10392,0.34286 0.86832,1.86863 0.93161,2.49363 0.0184,0.17983 0.048,0.37293 0.0756,0.56077 0.1517,1.03659 0.35862,2.45644 -0.66884,3.9214 l -0.0756,0.11136 c -1.2557,1.79026 -2.67776,3.81857 -3.90557,4.41456 -0.63525,0.3085 -1.18547,0.45339 -1.72784,0.45339 z m -22.15546,-15.4788 c 0.17798,0.008 0.36131,-0.0132 0.55338,-0.0517 -0.37415,-0.0806 -0.67335,-0.20448 -0.89975,-0.44941 -0.53856,-0.99413 -0.35838,-1.29271 -0.65292,-1.88116 -0.41004,-0.41986 -0.75882,-0.91271 -1.04706,-1.34028 -0.49014,-0.27394 -1.76806,-1.01507 -2.15782,-2.44988 -0.43524,-0.6505 -0.84572,-0.68999 -1.54869,-1.02609 -0.55372,-0.78869 -1.00327,-0.867 -1.00327,-0.867 0,0 -0.41129,0.26989 -0.74448,1.01017 -0.0239,0.19542 -0.054,0.36865 -0.0916,0.49714 0.0203,0.11568 0.0453,0.26398 0.0717,0.4335 0.0455,0.29742 0.0997,0.66771 0.17119,1.05791 0.14441,0.786 1.27453,2.62595 1.76766,3.54755 0.0144,0.002 0.024,10e-4 0.0398,0.004 0.11314,0.0187 0.30204,0.043 0.53747,0.0716 1.15423,0.13936 3.557,0.43102 4.11657,1.07779 0.30654,0.25542 0.59118,0.35264 0.88782,0.36589 z m -10.97621,-25.38969 c 0.13443,-0.0116 0.4975,-1.1781 0.80022,-1.67833 -0.12692,-0.12199 -0.22185,-0.21779 -0.29063,-0.29033 -0.71044,-0.11809 -1.20104,-0.60084 -1.89506,-0.66815 -0.39098,-0.0301 -2.54399,-1.12949 -2.54399,-1.12949 -4.01301,-0.0237 -13.9376,-4.06787 -15.8731,-4.4424 -0.10493,-0.0203 -0.13498,-0.0573 -0.10352,-0.10738 -3.69696,0.99075 -7.39174,1.96975 -11.59727,3.05837 l -1.1665,0.2267 c 0.69018,0.18422 1.48371,0.38728 2.17772,0.49315 0.71127,0.10859 1.52704,0.27994 2.24939,0.42953 0.65547,0.13615 1.22172,0.25194 1.62035,0.30623 0.2083,0.0282 0.36902,0.0438 0.50164,0.0438 0.12306,0 0.21766,-0.0133 0.31053,-0.0239 0.18728,-0.0207 0.41163,-0.0426 0.95549,-0.0159 0.59317,0.0289 0.89103,0.11475 1.17844,0.19886 0.26563,0.0778 0.541,0.15833 1.02716,0.19487 0.50641,0.0383 1.15487,0.151 1.78358,0.25851 0.58705,0.10038 1.14127,0.19552 1.50092,0.21477 0.82249,0.043 1.82263,0.23302 2.01449,0.27044 0.17925,0.0355 0.37112,0.0398 0.62107,0.0398 l 0.29063,0 c 0.25607,0 0.56661,0.008 0.93161,0.0477 0.49647,0.0535 0.8751,0.0669 1.21029,0.0795 0.25607,0.009 0.4764,0.0159 0.69273,0.0398 0.26524,0.0313 0.60766,-0.041 0.93558,-0.11136 0.25607,-0.055 0.45392,-0.0915 0.58922,-0.0915 0.0642,0 0.089,0.009 0.0956,0.0119 0.10205,0.0481 0.23512,0.0716 0.42201,0.0716 0.14294,0 0.30229,-0.0149 0.45784,-0.0278 0.16587,-0.0137 0.38076,-0.03 0.53746,-0.0199 0.21059,0.0143 0.39077,0.008 0.62505,0 0.21518,-0.007 0.45329,-0.0146 0.7644,0 0.41583,0.0188 0.81889,0.17884 1.3337,0.3818 0.20257,0.0801 0.43405,0.16978 0.68477,0.25851 0.76172,0.26978 2.19763,1.08972 2.19763,1.08972 -0.0386,0 0.29623,0.2784 0.65292,0.21874 0,0 3.49197,0.23324 4.29573,0.66815 0.004,0.002 0.008,0.004 0.0119,0.004 z"
     id="path3160"
     inkscape:connector-curvature="0" /><path
     style="fill:#383838;fill-opacity:1;fill-rule:nonzero;stroke:#000000;stroke-width:0.23999999"
     d="m -653.63465,-585.13161 0,0 z"
     id="path3148"
     inkscape:connector-curvature="0" /><text
     transform="scale(1.0005101,-0.99949016)"
     sodipodi:linespacing="125%"
     id="text3001"
     y="496.42426"
     x="-798.29755"
     style="font-size:55.18941115999999880px;font-style:normal;font-variant:normal;font-weight:200;font-stretch:normal;text-align:start;line-height:125%;letter-spacing:0px;word-spacing:0px;writing-mode:lr-tb;text-anchor:start;fill:#383838;fill-opacity:1;stroke:#000000;font-family:DejaVu Sans;-inkscape-font-specification:DejaVu Sans Ultra-Light"
     xml:space="preserve"><tspan
       dx="0 1.7246691 3.4493382 3.4493382 3.4493382 3.4493382 3.4493382 3.4493382 3.4493382 3.4493382 3.4493382 2.5870039 2.5870039 2.5870039 2.5870039"
       style="font-size:55.18941115999999880px;font-style:normal;font-variant:normal;font-weight:200;font-stretch:normal;text-align:start;line-height:125%;writing-mode:lr-tb;text-anchor:start;fill:#383838;fill-opacity:1;font-family:DejaVu Sans;-inkscape-font-specification:DejaVu Sans Ultra-Light;stroke:#000000"
       y="496.42426"
       x="-798.29755"
       id="tspan3003"
       sodipodi:role="line">OpenSnowMap.org</tspan></text>
<text
     transform="scale(1,-1)"
     sodipodi:linespacing="125%"
     id="text3048"
     y="545.9386"
     x="-618.0921"
     style="font-size:32px;font-style:normal;font-weight:normal;line-height:125%;letter-spacing:0px;word-spacing:0px;fill:#383838;fill-opacity:1;stroke:none;font-family:Sans"
     xml:space="preserve"><tspan
       dx="0 0 0 0 0 0 0 0 0 0 0 0 0 0 0 0 0 0 0 0"
       id="tspan3084"
       style="font-size:28.79999924px;font-style:normal;font-variant:normal;font-weight:200;font-stretch:normal;text-align:start;line-height:125%;letter-spacing:0.80000001px;writing-mode:lr-tb;text-anchor:start;fill:#383838;fill-opacity:1;font-family:DejaVu Sans;-inkscape-font-specification:DejaVu Sans Ultra-Light"
       y="545.9386"
       x="-618.0921"
       sodipodi:role="line">© <tspan
   dx="0"
   id="tspan3096"
   style="font-size:28.79999924px;font-weight:normal;letter-spacing:0.80000001px;fill:#383838;fill-opacity:1;-inkscape-font-specification:DejaVu Sans">Openstreetmap.org</tspan> &amp; </tspan><tspan
       style="font-size:25.60000038px;font-style:normal;font-variant:normal;font-weight:200;font-stretch:normal;text-align:start;line-height:125%;letter-spacing:0.80000001px;writing-mode:lr-tb;text-anchor:start;fill:#383838;fill-opacity:1;font-family:DejaVu Sans;-inkscape-font-specification:DejaVu Sans Ultra-Light"
       y="578.74902"
       x="-618.0921"
       sodipodi:role="line"
       id="tspan4200">contributors - ASTER GDEM</tspan><tspan
       style="font-size:25.60000038px;font-style:normal;font-variant:normal;font-weight:200;font-stretch:normal;text-align:start;line-height:125%;letter-spacing:2.4000001px;writing-mode:lr-tb;text-anchor:start;fill:#383838;fill-opacity:1;font-family:DejaVu Sans;-inkscape-font-specification:DejaVu Sans Ultra-Light"
       y="610.74902"
       x="-618.0921"
       sodipodi:role="line"
       id="tspan4208">is a product of METI and </tspan><tspan
       style="font-size:25.60000038px;font-style:normal;font-variant:normal;font-weight:200;font-stretch:normal;text-align:start;line-height:125%;letter-spacing:2.4000001px;writing-mode:lr-tb;text-anchor:start;fill:#383838;fill-opacity:1;font-family:DejaVu Sans;-inkscape-font-specification:DejaVu Sans Ultra-Light"
       y="642.74902"
       x="-618.0921"
       sodipodi:role="line"
       id="tspan4224">NASA.</tspan></text>
</g></g></svg>