<?xml version="1.0" encoding="UTF-8" standalone="no"?>
<!-- Created with Inkscape (http://www.inkscape.org/) -->

<svg
   xmlns:dc="http://purl.org/dc/elements/1.1/"
   xmlns:cc="http://creativecommons.org/ns#"
   xmlns:rdf="http://www.w3.org/1999/02/22-rdf-syntax-ns#"
   xmlns:svg="http://www.w3.org/2000/svg"
   xmlns="http://www.w3.org/2000/svg"
   xmlns:sodipodi="http://sodipodi.sourceforge.net/DTD/sodipodi-0.dtd"
   xmlns:inkscape="http://www.inkscape.org/namespaces/inkscape"
   version="1.0"
   width="30"
   height="26.305067"
   viewBox="0 0 30.000001 26.305066"
   id="Layer_3"
   xml:space="preserve"
   inkscape:version="0.47 r22583"
   sodipodi:docname="danger-black.svg"><metadata
   id="metadata10"><rdf:RDF><cc:Work
       rdf:about=""><dc:format>image/svg+xml</dc:format><dc:type
         rdf:resource="http://purl.org/dc/dcmitype/StillImage" /><dc:title></dc:title></cc:Work></rdf:RDF></metadata><sodipodi:namedview
   pagecolor="#ffffff"
   bordercolor="#666666"
   borderopacity="1"
   objecttolerance="10"
   gridtolerance="10"
   guidetolerance="10"
   inkscape:pageopacity="0"
   inkscape:pageshadow="2"
   inkscape:window-width="1273"
   inkscape:window-height="733"
   id="namedview8"
   showgrid="false"
   inkscape:zoom="3.92"
   inkscape:cx="3.3547872"
   inkscape:cy="1.6884952"
   inkscape:window-x="0"
   inkscape:window-y="61"
   inkscape:window-maximized="0"
   inkscape:current-layer="Layer_3" /><defs
   id="defs2386"><inkscape:perspective
     sodipodi:type="inkscape:persp3d"
     inkscape:vp_x="0 : 275.22501 : 1"
     inkscape:vp_y="0 : 1000 : 0"
     inkscape:vp_z="627.76898 : 275.22501 : 1"
     inkscape:persp3d-origin="313.88449 : 183.48334 : 1"
     id="perspective12" /></defs>
<path
   d="M 29.837943,24.490175 16.047739,0.60499533 C 15.831612,0.23068433 15.432229,-1.6693625e-6 14.999976,-1.6693625e-6 14.567673,-1.6693625e-6 14.16829,0.23068433 13.952164,0.60499533 L 0.16205798,24.490175 c -0.21607731,0.37431 -0.21607731,0.835584 0,1.209993 0.21612667,0.37431 0.61555875,0.604898 1.04781212,0.604898 l 27.5802609,0 c 0.432253,0 0.831735,-0.230588 1.047812,-0.604898 0.216127,-0.374409 0.216028,-0.835683 0,-1.209993 z"
   style="fill:#cd0000;fill-opacity:1"
   id="path2231" />
<polygon
   points="533.902,482.877 313.938,101.892 93.977,482.877 93.977,482.877 "
   style="fill:#e3b916;fill-opacity:1"
   id="polygon2233"
   transform="matrix(0.04935526,0,0,0.04935526,-0.49451499,-0.43126767)" />
<path
   d="m 13.910952,16.515352 c 0.05937,0.566993 0.158381,0.989277 0.29702,1.266654 0.13859,0.277524 0.386106,0.416064 0.742451,0.416064 0.01683,0 0.08227,0 0.09901,0 0.356394,0 0.603911,-0.13854 0.74255,-0.416064 0.138639,-0.277377 0.237596,-0.699661 0.29702,-1.266654 l 0.31686,-4.380427 c 0.05937,-0.8535 0.08909,-1.466196 0.08909,-1.838138 0,-0.5059397 -0.143526,-0.9007817 -0.430625,-1.1842787 -0.272885,-0.269381 -0.660768,-0.423912 -1.064396,-0.423912 -0.403627,0 -0.79146,0.154531 -1.064247,0.423912 -0.28705,0.283497 -0.430674,0.678339 -0.430674,1.1842787 0,0.371942 0.02971,0.984638 0.08909,1.838138 l 0.316861,4.380427 z"
   id="path2235"
   style="fill:#000000;fill-opacity:1" />
<circle
   cx="313.93799"
   cy="430.79401"
   r="30.747"
   id="circle2237"
   sodipodi:cx="313.93799"
   sodipodi:cy="430.79401"
   sodipodi:rx="30.747"
   sodipodi:ry="30.747"
   transform="matrix(0.04935526,0,0,0.04935526,-0.49451499,-0.43126767)"
   style="fill:#000000;fill-opacity:1" />
</svg>