<?xml version="1.0" encoding="UTF-8" standalone="no"?>
<svg
   xmlns:dc="http://purl.org/dc/elements/1.1/"
   xmlns:cc="http://creativecommons.org/ns#"
   xmlns:rdf="http://www.w3.org/1999/02/22-rdf-syntax-ns#"
   xmlns:svg="http://www.w3.org/2000/svg"
   xmlns="http://www.w3.org/2000/svg"
   xmlns:sodipodi="http://sodipodi.sourceforge.net/DTD/sodipodi-0.dtd"
   xmlns:inkscape="http://www.inkscape.org/namespaces/inkscape"
   width="16.933334mm"
   height="16.933334mm"
   viewBox="0 0 16.933334 16.933334"
   version="1.1"
   id="svg5756"
   inkscape:version="1.0.2 (e86c870879, 2021-01-15)"
   sodipodi:docname="data_icon_64.svg">
  <defs
     id="defs5750" />
  <sodipodi:namedview
     id="base"
     pagecolor="#ffffff"
     bordercolor="#666666"
     borderopacity="1.0"
     inkscape:pageopacity="0.0"
     inkscape:pageshadow="2"
     inkscape:zoom="2.8"
     inkscape:cx="-20.429497"
     inkscape:cy="2.0323538"
     inkscape:document-units="mm"
     inkscape:current-layer="layer1"
     inkscape:document-rotation="0"
     showgrid="false"
     fit-margin-top="0"
     fit-margin-left="0"
     fit-margin-right="0"
     fit-margin-bottom="0"
     inkscape:window-width="1428"
     inkscape:window-height="1051"
     inkscape:window-x="26"
     inkscape:window-y="23"
     inkscape:window-maximized="0" />
  <metadata
     id="metadata5753">
    <rdf:RDF>
      <cc:Work
         rdf:about="">
        <dc:format>image/svg+xml</dc:format>
        <dc:type
           rdf:resource="http://purl.org/dc/dcmitype/StillImage" />
        <dc:title></dc:title>
      </cc:Work>
    </rdf:RDF>
  </metadata>
  <g
     inkscape:label="Calque 1"
     inkscape:groupmode="layer"
     id="layer1"
     transform="translate(-156.98329,-138.84044)">
    <g
       style="fill:#000000;stroke-width:13.8661"
       id="g7550"
       transform="matrix(0.05851362,0,0,0.05891113,159.24751,139.64866)">
      <path
         d="m 210,210 c 0,26.5 -46.6,48 -104,48 C 48.6,258 2,236.5 2,210 v -23 c 6.3,6.1 14.5,11.6 24.6,16.3 21.4,9.9 49.6,15.3 79.4,15.3 29.8,0 58,-5.5 79.4,-15.3 10.1,-4.7 18.3,-10.1 24.6,-16.2 z M 185.4,150 C 164,159.9 135.8,165.3 106,165.3 76.2,165.3 48,159.8 26.6,150 16.5,145.3 8.2,139.8 2,133.7 v 23.6 0 c 0.8,26.2 47,47.3 104,47.3 57.4,0 104,-21.5 104,-48 v -22.9 c -6.3,6.1 -14.5,11.6 -24.6,16.3 z M 106,2 C 48.6,2 2,23.5 2,50 2,76.5 48.6,98 106,98 163.4,98 210,76.5 210,50 210,23.5 163.4,2 106,2 Z m 79.4,94.7 C 164,106.5 135.8,112 106,112 76.2,112 48,106.5 26.6,96.7 16.5,92 8.2,86.5 2,80.4 v 23 c 0,26.5 46.6,48 104,48 57.4,0 104,-21.5 104,-48 V 80.5 c -6.3,6 -14.5,11.5 -24.6,16.2 z"
         id="path7540"
         style="stroke-width:13.8661" />
    </g>
  </g>
</svg>
