<?xml version="1.0" encoding="UTF-8" standalone="no"?>
<!-- Created with Inkscape (http://www.inkscape.org/) -->

<svg
   xmlns:dc="http://purl.org/dc/elements/1.1/"
   xmlns:cc="http://creativecommons.org/ns#"
   xmlns:rdf="http://www.w3.org/1999/02/22-rdf-syntax-ns#"
   xmlns:svg="http://www.w3.org/2000/svg"
   xmlns="http://www.w3.org/2000/svg"
   xmlns:sodipodi="http://sodipodi.sourceforge.net/DTD/sodipodi-0.dtd"
   xmlns:inkscape="http://www.inkscape.org/namespaces/inkscape"
   width="32"
   height="32"
   id="svg2"
   version="1.1"
   inkscape:version="0.48.3.1 r9886"
   sodipodi:docname="gladed.svg">
  <defs
     id="defs4">
    <marker
       inkscape:stockid="Arrow2Sstart"
       orient="auto"
       refY="0"
       refX="0"
       id="Arrow2Sstart"
       style="overflow:visible">
      <path
         id="path3874"
         style="fill-rule:evenodd;stroke-width:0.625;stroke-linejoin:round"
         d="M 8.7185878,4.0337352 -2.2072895,0.01601326 8.7185884,-4.0017078 c -1.7454984,2.3720609 -1.7354408,5.6174519 -6e-7,8.035443 z"
         transform="matrix(0.3,0,0,0.3,-0.69,0)"
         inkscape:connector-curvature="0" />
    </marker>
    <marker
       inkscape:stockid="Arrow2Send"
       orient="auto"
       refY="0"
       refX="0"
       id="Arrow2Send"
       style="overflow:visible">
      <path
         id="path3877"
         style="fill-rule:evenodd;stroke-width:0.625;stroke-linejoin:round"
         d="M 8.7185878,4.0337352 -2.2072895,0.01601326 8.7185884,-4.0017078 c -1.7454984,2.3720609 -1.7354408,5.6174519 -6e-7,8.035443 z"
         transform="matrix(-0.3,0,0,-0.3,0.69,0)"
         inkscape:connector-curvature="0" />
    </marker>
    <marker
       inkscape:stockid="Arrow1Send"
       orient="auto"
       refY="0"
       refX="0"
       id="Arrow1Send"
       style="overflow:visible">
      <path
         id="path3859"
         d="M 0,0 5,-5 -12.5,0 5,5 0,0 z"
         style="fill-rule:evenodd;stroke:#000000;stroke-width:1pt"
         transform="matrix(-0.2,0,0,-0.2,-1.2,0)"
         inkscape:connector-curvature="0" />
    </marker>
    <inkscape:perspective
       id="perspective12"
       inkscape:persp3d-origin="313.88449 : 183.48334 : 1"
       inkscape:vp_z="627.76898 : 275.22501 : 1"
       inkscape:vp_y="0 : 1000 : 0"
       inkscape:vp_x="0 : 275.22501 : 1"
       sodipodi:type="inkscape:persp3d" />
  </defs>
  <sodipodi:namedview
     id="base"
     pagecolor="#ffffff"
     bordercolor="#666666"
     borderopacity="1.0"
     inkscape:pageopacity="0.0"
     inkscape:pageshadow="2"
     inkscape:zoom="11.38"
     inkscape:cx="37.719193"
     inkscape:cy="26.314501"
     inkscape:document-units="px"
     inkscape:current-layer="layer1"
     showgrid="false"
     fit-margin-top="2"
     fit-margin-left="0"
     fit-margin-right="0"
     fit-margin-bottom="2"
     inkscape:window-width="1552"
     inkscape:window-height="856"
     inkscape:window-x="166"
     inkscape:window-y="57"
     inkscape:window-maximized="0" />
  <metadata
     id="metadata7">
    <rdf:RDF>
      <cc:Work
         rdf:about="">
        <dc:format>image/svg+xml</dc:format>
        <dc:type
           rdf:resource="http://purl.org/dc/dcmitype/StillImage" />
        <dc:title />
      </cc:Work>
    </rdf:RDF>
  </metadata>
  <g
     inkscape:label="Layer 1"
     inkscape:groupmode="layer"
     id="layer1"
     transform="translate(-245.21566,-347.79076)">
    <g
       id="g5283"
       transform="translate(-20,0)">
      <path
         inkscape:connector-curvature="0"
         d="m 297.0428,375.85893 -14.70955,-25.42419 c -0.23054,-0.39843 -0.65655,-0.64398 -1.11762,-0.64398 -0.46112,0 -0.88713,0.24555 -1.11766,0.64398 l -14.70945,25.42419 c -0.23048,0.39842 -0.23048,0.88942 0,1.28795 0.23054,0.39843 0.6566,0.64388 1.11767,0.64388 l 29.41894,0 c 0.46107,0 0.88719,-0.24545 1.11767,-0.64388 0.23053,-0.39853 0.23043,-0.88953 0,-1.28795 z"
         style="fill:#ffffff;fill-opacity:1"
         id="path2986" />
      <path
         id="path2231"
         style="fill:#000000;fill-opacity:1;stroke:none"
         d="m 296.0536,375.49887 -13.7902,-23.88518 c -0.21613,-0.37432 -0.61551,-0.605 -1.04776,-0.605 -0.43231,0 -0.83169,0.23068 -1.04782,0.605 l -13.7901,23.88518 c -0.21608,0.3743 -0.21608,0.83558 0,1.20999 0.21612,0.37431 0.61556,0.6049 1.04781,0.6049 l 27.58026,0 c 0.43225,0 0.83174,-0.23059 1.04781,-0.6049 0.21613,-0.37441 0.21603,-0.83569 0,-1.20999 z"
         inkscape:connector-curvature="0" />
      <polygon
         transform="matrix(0.05228164,0,0,0.05228164,264.80239,349.42795)"
         id="polygon2233"
         style="fill:#ffffff"
         points="313.938,101.892 93.977,482.877 93.977,482.877 533.902,482.877 " />
      <g
         transform="translate(18.647405,0)"
         id="g5271">
        <g
           id="g3812"
           transform="translate(-0.43936731,-0.17574692)">
          <rect
             ry="0"
             rx="0"
             y="367.8096"
             x="265.12457"
             height="5.6496854"
             width="1.3182579"
             id="rect3008"
             style="fill:#000000;fill-opacity:1;fill-rule:nonzero;stroke:none" />
          <path
             inkscape:transform-center-y="-0.66033"
             transform="matrix(1.2207509,0,0,0.89379011,245.80347,357.98109)"
             d="m 18.849336,13.281766 -2.559318,0 -2.559318,0 1.279659,-2.216434 1.279659,-2.2164348 1.279659,2.2164338 z"
             inkscape:randomized="0"
             inkscape:rounded="0"
             inkscape:flatsided="false"
             sodipodi:arg2="1.5707963"
             sodipodi:arg1="0.52359878"
             sodipodi:r2="1.4776229"
             sodipodi:r1="2.9552457"
             sodipodi:cy="11.804143"
             sodipodi:cx="16.290018"
             sodipodi:sides="3"
             id="path3778"
             style="fill:#000000;fill-opacity:1;fill-rule:nonzero;stroke:none"
             sodipodi:type="star" />
          <path
             sodipodi:type="star"
             style="fill:#000000;fill-opacity:1;fill-rule:nonzero;stroke:none"
             id="path3798"
             sodipodi:sides="3"
             sodipodi:cx="16.290018"
             sodipodi:cy="11.804143"
             sodipodi:r1="2.9552457"
             sodipodi:r2="1.4776229"
             sodipodi:arg1="0.52359878"
             sodipodi:arg2="1.5707963"
             inkscape:flatsided="false"
             inkscape:rounded="0"
             inkscape:randomized="0"
             d="m 18.849336,13.281766 -2.559318,0 -2.559318,0 1.279659,-2.216434 1.279659,-2.2164348 1.279659,2.2164338 z"
             transform="matrix(0.92641637,0,0,0.66013174,250.59819,358.61367)"
             inkscape:transform-center-y="-0.48770888" />
          <path
             inkscape:transform-center-y="-0.47201164"
             transform="matrix(0.55849818,0,0,0.63888997,256.59158,356.80164)"
             d="m 18.849336,13.281766 -2.559318,0 -2.559318,0 1.279659,-2.216434 1.279659,-2.2164348 1.279659,2.2164338 z"
             inkscape:randomized="0"
             inkscape:rounded="0"
             inkscape:flatsided="false"
             sodipodi:arg2="1.5707963"
             sodipodi:arg1="0.52359878"
             sodipodi:r2="1.4776229"
             sodipodi:r1="2.9552457"
             sodipodi:cy="11.804143"
             sodipodi:cx="16.290018"
             sodipodi:sides="3"
             id="path3800"
             style="fill:#000000;fill-opacity:1;fill-rule:nonzero;stroke:none"
             sodipodi:type="star" />
        </g>
        <g
           id="g3832"
           transform="translate(0.19683656,1.1212653)">
          <rect
             style="fill:#000000;fill-opacity:1;fill-rule:nonzero;stroke:none"
             id="rect3820"
             width="1.1394705"
             height="2.784411"
             x="258.77747"
             y="369.3566"
             rx="0"
             ry="0" />
          <path
             sodipodi:type="star"
             style="fill:#000000;fill-opacity:1;fill-rule:nonzero;stroke:none"
             id="path3822"
             sodipodi:sides="3"
             sodipodi:cx="16.290018"
             sodipodi:cy="11.804143"
             sodipodi:r1="2.9552457"
             sodipodi:r2="1.4776229"
             sodipodi:arg1="0.52359878"
             sodipodi:arg2="1.5707963"
             inkscape:flatsided="false"
             inkscape:rounded="0"
             inkscape:randomized="0"
             d="m 18.849336,13.281766 -2.559318,0 -2.559318,0 1.279659,-2.216434 1.279659,-2.2164348 1.279659,2.2164338 z"
             transform="matrix(1.0551877,0,0,0.64905091,242.07677,362.21936)"
             inkscape:transform-center-y="-0.66033" />
          <path
             inkscape:transform-center-y="-0.48770888"
             transform="matrix(0.80077203,0,0,0.47937329,246.22121,362.67873)"
             d="m 18.849336,13.281766 -2.559318,0 -2.559318,0 1.279659,-2.216434 1.279659,-2.2164348 1.279659,2.2164338 z"
             inkscape:randomized="0"
             inkscape:rounded="0"
             inkscape:flatsided="false"
             sodipodi:arg2="1.5707963"
             sodipodi:arg1="0.52359878"
             sodipodi:r2="1.4776229"
             sodipodi:r1="2.9552457"
             sodipodi:cy="11.804143"
             sodipodi:cx="16.290018"
             sodipodi:sides="3"
             id="path3824"
             style="fill:#000000;fill-opacity:1;fill-rule:nonzero;stroke:none"
             sodipodi:type="star" />
          <path
             sodipodi:type="star"
             style="fill:#000000;fill-opacity:1;fill-rule:nonzero;stroke:none"
             id="path3826"
             sodipodi:sides="3"
             sodipodi:cx="16.290018"
             sodipodi:cy="11.804143"
             sodipodi:r1="2.9552457"
             sodipodi:r2="1.4776229"
             sodipodi:arg1="0.52359878"
             sodipodi:arg2="1.5707963"
             inkscape:flatsided="false"
             inkscape:rounded="0"
             inkscape:randomized="0"
             d="m 18.849336,13.281766 -2.559318,0 -2.559318,0 1.279659,-2.216434 1.279659,-2.2164348 1.279659,2.2164338 z"
             transform="matrix(0.48275239,0,0,0.46394798,251.40175,361.36287)"
             inkscape:transform-center-y="-0.47201164" />
        </g>
      </g>
    </g>
  </g>
</svg>
