<?xml version="1.0" encoding="UTF-8" standalone="no"?>
<!-- Created with Inkscape (http://www.inkscape.org/) -->

<svg
   xmlns:dc="http://purl.org/dc/elements/1.1/"
   xmlns:cc="http://creativecommons.org/ns#"
   xmlns:rdf="http://www.w3.org/1999/02/22-rdf-syntax-ns#"
   xmlns:svg="http://www.w3.org/2000/svg"
   xmlns="http://www.w3.org/2000/svg"
   xmlns:sodipodi="http://sodipodi.sourceforge.net/DTD/sodipodi-0.dtd"
   xmlns:inkscape="http://www.inkscape.org/namespaces/inkscape"
   width="383.33575"
   height="51.818501"
   id="svg2"
   version="1.1"
   inkscape:version="0.48.3.1 r9886"
   sodipodi:docname="interactive-help.svg"
   inkscape:export-filename="/home/yves/KIMSUFI/www.git/beta.pistes-nordiques.org/pics/interactive-help.png"
   inkscape:export-xdpi="60.789101"
   inkscape:export-ydpi="60.789101">
  <defs
     id="defs4" />
  <sodipodi:namedview
     id="base"
     pagecolor="#ffffff"
     bordercolor="#666666"
     borderopacity="1.0"
     inkscape:pageopacity="0.0"
     inkscape:pageshadow="2"
     inkscape:zoom="1.02"
     inkscape:cx="165.8111"
     inkscape:cy="-132.86519"
     inkscape:document-units="px"
     inkscape:current-layer="layer1"
     showgrid="false"
     inkscape:window-width="1314"
     inkscape:window-height="848"
     inkscape:window-x="49"
     inkscape:window-y="24"
     inkscape:window-maximized="0"
     fit-margin-top="3"
     fit-margin-left="3"
     fit-margin-right="3"
     fit-margin-bottom="3" />
  <metadata
     id="metadata7">
    <rdf:RDF>
      <cc:Work
         rdf:about="">
        <dc:format>image/svg+xml</dc:format>
        <dc:type
           rdf:resource="http://purl.org/dc/dcmitype/StillImage" />
        <dc:title></dc:title>
      </cc:Work>
    </rdf:RDF>
  </metadata>
  <g
     inkscape:label="Layer 1"
     inkscape:groupmode="layer"
     id="layer1"
     transform="translate(2.7769223,-1002.0925)">
    <g
       id="g3867"
       transform="translate(9.225116,857.09039)">
      <path
         style="font-size:medium;font-style:normal;font-variant:normal;font-weight:normal;font-stretch:normal;text-indent:0;text-align:start;text-decoration:none;line-height:normal;letter-spacing:normal;word-spacing:normal;text-transform:none;direction:ltr;block-progression:tb;writing-mode:lr-tb;text-anchor:start;color:#000000;fill:#ffffff;fill-opacity:1;fill-rule:nonzero;stroke:none;stroke-width:5;marker:none;visibility:visible;display:inline;overflow:visible;enable-background:accumulate;font-family:Acquaintance;-inkscape-font-specification:Acquaintance"
         id="path4109"
         d="m 495.72951,173.36087 c -0.004,0.28865 -0.006,0.57704 -0.008,0.86597 l -0.002,0.12143 -0.12143,0.005 c -0.28811,0.009 -0.57755,0.0127 -0.86756,0.0144 -0.0157,2.93353 -0.007,5.86581 -0.008,8.79869 l 0,0.12622 -0.12622,0.002 c -0.24349,0.003 -0.48849,0.005 -0.73336,0.0112 l -0.13261,0.003 0.002,-0.13261 c 0.005,-0.28666 0.003,-0.57303 -0.003,-0.85798 -0.99507,-0.008 -1.99109,-0.0134 -2.98615,0.003 10e-4,0.99123 -0.002,1.98215 0,2.97338 0.28845,0.006 0.58035,0.019 0.87236,-0.002 l 0.15977,-0.0112 -0.024,0.15817 c -0.0418,0.28623 -0.0139,0.5759 -0.0128,0.86277 0.27532,0.0144 0.55252,0.0171 0.83082,0.0176 l 0.11824,0 0.01,0.11823 c 0.0462,0.61279 0.0233,1.22809 0.0336,1.84378 0.28596,0.0117 0.57379,0.0163 0.86118,0.0192 l 0.12462,0.002 0.002,0.12462 c 0.005,0.61474 0.003,1.22917 0.0128,1.84378 0.28864,0.005 0.5793,0.0192 0.87076,0.002 l 0.14699,-0.008 -0.0112,0.1454 c -0.0485,0.61447 -0.006,1.23399 -0.0112,1.85017 0.28109,0.006 0.5619,0.01 0.84361,0.0112 l 0.12621,0 0.002,0.12622 c 0.0124,0.94914 0.006,1.89906 0.0192,2.84875 1.63864,0.0237 3.27854,0.0259 4.91781,0.024 1.67826,-0.003 3.35619,0.0115 5.03445,-0.0288 -0.0268,-0.94678 0.058,-1.89307 0.0192,-2.83917 l -0.005,-0.1358 0.1358,0.003 c 0.28167,0.008 0.5638,0.002 0.84361,-0.006 0.0104,-0.94165 0.0116,-1.88464 0.0128,-2.82638 l 0,-0.11664 0.11503,-0.0112 c 0.28603,-0.0273 0.5745,-0.0294 0.86438,-0.0272 0.007,-1.05473 -0.0127,-2.10878 0.0192,-3.1635 l 0,-0.003 0,-0.003 c -0.035,-1.2669 -0.0102,-2.53505 -0.0256,-3.80259 -0.28427,0.002 -0.56787,-7.4e-4 -0.84999,-0.005 l -0.12303,-0.002 -0.003,-0.12303 c -0.006,-0.27954 -0.009,-0.56074 -0.005,-0.842 -0.2917,-0.009 -0.5816,6.4e-4 -0.87076,-0.016 l -0.11185,-0.006 -0.008,-0.11184 c -0.0205,-0.29066 -0.0104,-0.58424 -0.0144,-0.87875 -0.61836,-0.002 -1.23616,0.003 -1.85337,-0.006 l -0.12463,-0.002 -0.002,-0.12462 c -0.005,-0.27911 -0.008,-0.55831 -0.005,-0.83881 -0.94856,-0.0502 -1.89968,-0.0177 -2.84875,-0.0288 l -0.12142,-0.002 -0.005,-0.11983 c -0.013,-0.28744 -0.0182,-0.57568 -0.0176,-0.86596 -0.61709,-0.003 -1.23393,0.002 -1.85017,-0.0112 l -0.12303,-0.003 -0.002,-0.12303 c -0.0122,-1.27693 -0.005,-2.55427 -0.01,-3.83135 -0.16457,-0.002 -0.32912,-0.003 -0.4937,-0.003 -0.12269,-2.4e-4 -0.24491,3.3e-4 -0.36747,0.002 l -0.13102,0.002 0.002,-0.13102 c 0.004,-0.29306 0.004,-0.58627 -0.024,-0.87715 -0.65253,0.002 -1.30471,0.004 -1.95723,0 z"
         inkscape:connector-curvature="0" />
      <path
         style="fill:#1c1c1c"
         id="path3016"
         d="m 495.72887,173.36055 c 0.65251,0.004 1.30502,0.003 1.95753,6.4e-4 0.0313,0.32721 0.03,0.65635 0.0236,0.9842 -0.66338,0.006 -1.32612,-0.002 -1.98949,0.006 0.003,-0.33041 0.003,-0.66082 0.008,-0.99123 z"
         inkscape:connector-curvature="0" />
      <path
         style="fill:#1c1c1c"
         id="path3018"
         d="m 494.7306,174.36712 c 0.32978,-0.002 0.66019,-0.001 0.98996,-0.0153 6.4e-4,3.64857 0.006,7.29715 0.003,10.94572 -0.33232,0.008 -0.66465,0.008 -0.99698,6.4e-4 -0.006,-0.32657 -0.006,-0.65379 -0.002,-0.981 -0.33041,-0.0128 -0.66082,-0.0109 -0.99123,-0.01 -0.0109,-0.33361 -0.0134,-0.66785 -6.4e-4,-1.00146 0.32977,-0.0121 0.66019,-0.008 0.9906,-0.0134 10e-4,-2.97497 -0.008,-5.94994 0.008,-8.92555 z"
         inkscape:connector-curvature="0" />
      <path
         style="fill:#1c1c1c"
         id="path3020"
         d="m 497.71388,174.3684 c 0.32914,-0.004 0.65827,-0.003 0.9874,6.4e-4 0.004,1.31908 -0.004,2.63881 0.01,3.95789 0.65826,0.0173 1.31653,0.008 1.97479,0.0109 -6.4e-4,0.32913 0,0.65826 0.0192,0.98739 0.99059,0.016 1.9831,-0.0236 2.97306,0.0288 -0.004,0.32146 -0.002,0.64293 0.005,0.96439 0.65954,0.0121 1.31972,0.004 1.97991,0.007 0.004,0.33041 -0.0166,0.66274 0.0185,0.99187 0.32785,0.0288 0.65699,0.0115 0.98548,0.0211 -0.005,0.3221 -0.003,0.6442 0.006,0.96631 0.32466,0.006 0.64996,0.008 0.97589,0.006 0.0153,1.2686 -0.01,2.53719 0.0256,3.80515 -0.032,1.05578 -0.0128,2.11156 -0.0198,3.16734 -0.32721,-0.003 -0.65442,-0.004 -0.97908,0.0364 -0.001,0.981 -0.002,1.96265 -0.0128,2.94365 -0.32593,0.0102 -0.65251,0.0211 -0.97781,0.005 -0.0371,-0.99826 -0.0198,-1.9978 -0.0102,-2.9967 0.32785,0.003 0.65635,0.003 0.98484,6.4e-4 6.4e-4,-2.3199 0.003,-4.63916 0.004,-6.95907 -0.32785,-0.004 -0.6557,-0.004 -0.98356,0 -0.0185,-0.32274 0.003,-0.64739 -0.0236,-0.9695 -0.3253,-0.0626 -0.65763,-0.0243 -0.98612,-0.0256 -0.007,0.99506 0.0115,1.99013 -0.008,2.98584 -0.32466,6.3e-4 -0.64996,6.3e-4 -0.97462,0.001 -0.0224,-1.32739 6.4e-4,-2.65478 -0.008,-3.98218 -0.6653,-0.004 -1.33059,-0.002 -1.99525,0 0,0.99443 0.0102,1.98886 -10e-4,2.98264 -0.32977,0.007 -0.6589,0.007 -0.98803,6.4e-4 -0.006,-1.32611 -0.008,-2.65287 0.008,-3.97898 -0.66594,-0.003 -1.33123,-0.004 -1.99717,0.004 -0.007,1.32484 0.005,2.64968 0,3.97451 -0.33296,0.01 -0.66657,0.0102 -0.99953,6.4e-4 0,-2.9788 0.002,-5.95825 0.008,-8.93769 z"
         inkscape:connector-curvature="0" />
      <path
         style="fill:#1c1c1c"
         id="path3026"
         d="m 490.74331,182.32061 c 0.99507,-0.0166 1.99077,-0.0115 2.98584,-0.003 0.007,0.32977 0.0128,0.6589 0.003,0.98867 -0.66018,0.0153 -1.32036,0.004 -1.9799,0.009 -0.0243,0.65699 0.0351,1.31589 -0.01,1.97224 -0.33233,0.0383 -0.66721,0.0128 -1.00018,0.006 -0.002,-0.99123 0.002,-1.98182 6.4e-4,-2.97306 z"
         inkscape:connector-curvature="0" />
      <path
         style="fill:#1c1c1c"
         id="path3030"
         d="m 491.76969,185.30965 c 0.31955,-0.0492 0.64421,-0.0307 0.96631,-0.0217 0.007,0.33168 0.008,0.66401 0.004,0.99634 0.33233,0.002 0.66402,0.001 0.99635,0.006 0.008,0.66146 0,1.32292 0.004,1.98438 0.32786,-0.002 0.65635,-10e-4 0.98484,0.003 -0.004,0.66337 0.0428,1.33186 -0.0249,1.99205 -0.32338,0.0294 -0.6474,0.006 -0.97014,0.001 -0.0102,-0.6557 -0.009,-1.31141 -0.0147,-1.96712 -0.3285,-0.002 -0.65699,-0.008 -0.98548,-0.0211 -0.0109,-0.65315 0.0211,-1.30758 -0.0383,-1.95882 -0.31763,0.001 -0.63589,-0.004 -0.95288,-0.0211 -10e-4,-0.33105 -0.0447,-0.66721 0.0307,-0.99314 z"
         inkscape:connector-curvature="0" />
      <path
         style="fill:#1c1c1c"
         id="path3038"
         d="m 494.74594,190.27411 c 0.32466,-0.0256 0.65124,-0.0102 0.97717,-0.008 0.009,0.66018 6.4e-4,1.32036 0.003,1.97991 0.33105,-10e-4 0.66338,-10e-4 0.99507,0.0102 0.006,0.66018 -0.006,1.321 0.004,1.98119 2.64648,0.006 5.29296,0.005 7.93944,0.004 0.0102,-0.66082 -0.003,-1.32164 0.004,-1.9831 0.33872,-0.004 0.67744,-0.009 1.01615,0.0102 0.0537,0.9906 -0.0435,1.98183 -0.0153,2.9737 -1.67826,0.0403 -3.35651,0.0256 -5.03477,0.0281 -1.63927,0.002 -3.27854,0 -4.91717,-0.0237 -0.0134,-0.99123 -0.006,-1.98246 -0.0211,-2.97305 -0.32338,-6.4e-4 -0.64676,-0.006 -0.97014,-0.0122 0.005,-0.66209 -0.0479,-1.32867 0.0198,-1.98693 z"
         inkscape:connector-curvature="0" />
    </g>
    <g
       id="g3956"
       transform="matrix(1.0707816,0,0,1.0707816,-388.93911,874.15602)"
       inkscape:export-filename="/home/yves/KIMSUFI/www.git/beta.pistes-nordiques.org/pics/interactive-help.png"
       inkscape:export-xdpi="56.96389"
       inkscape:export-ydpi="56.96389">
      <path
         sodipodi:nodetypes="cc"
         inkscape:connector-curvature="0"
         id="path2985"
         d="M 472.63158,135.82083 C 431.6792,142.4875 394.01202,102.40603 365.56391,164.0915"
         style="fill:none;stroke:#3da896;stroke-width:4.66948605;stroke-linecap:butt;stroke-linejoin:miter;stroke-miterlimit:4;stroke-opacity:1;stroke-dasharray:none" />
      <g
         transform="translate(-6.3414634,-44.39024)"
         id="g3876">
        <path
           inkscape:connector-curvature="0"
           d="m 431.87364,174.57944 c -0.16098,0 -0.32147,0 -0.48252,0.002 -0.023,3.68181 -0.009,7.36489 -0.0144,11.0467 0.007,1.95307 -0.014,3.90645 0.0128,5.85887 0.66276,-6.4e-4 1.32548,0.005 1.98758,0 0.0177,-0.28407 0.0222,-0.57086 0.0224,-0.85798 l 0,-0.12941 0.12941,0.002 c 0.28183,0.002 0.56307,1.3e-4 0.8436,-0.003 0.007,-0.28851 0.0271,-0.57887 -0.005,-0.86757 l -0.0176,-0.16137 0.16137,0.0208 c 0.2903,0.037 0.58378,0.0126 0.87396,0.006 0.006,-0.27802 0.0118,-0.55625 0.0144,-0.83401 l 0.002,-0.12782 0.12782,0.002 c 0.21934,0.002 0.4393,-7.2e-4 0.65985,-0.0128 l 0.1454,-0.008 -0.0112,0.14539 c -0.0456,0.60808 0.0571,1.21659 0.024,1.82461 0.28694,0.009 0.57384,0.0133 0.86118,0.016 l 0.12462,0.002 0.002,0.12462 c 0.006,0.61612 0.004,1.23194 0.0144,1.84858 0.28353,0.006 0.56711,0.009 0.85159,0.01 l 0.12622,0 0.002,0.12622 c 0.005,0.28737 0.008,0.57301 0.006,0.86118 0.6672,0.009 1.33475,0.007 2.00195,0.003 0.024,-0.283 0.0346,-0.56997 0.0144,-0.85798 l -0.01,-0.1406 0.14061,0.003 c 0.28308,0.008 0.56695,0.006 0.84679,-0.002 0.01,-0.66401 0.006,-1.32835 -0.002,-1.99237 -0.28508,-0.008 -0.56962,-0.0114 -0.85478,-0.0144 l -0.12462,-0.002 -0.002,-0.12463 c -0.01,-0.61734 -0.005,-1.23267 -0.008,-1.85017 -0.28556,-0.0105 -0.57384,-0.0159 -0.86117,-0.008 l -0.13581,0.003 0.005,-0.13581 c 0.01,-0.23789 0.0136,-0.47492 0.0128,-0.71099 l 0,-0.12781 0.12782,0 c 1.27566,-0.002 2.55018,-0.002 3.82656,-0.016 0.008,-0.66146 0.0105,-1.32292 -0.002,-1.98438 -0.28697,0 -0.57343,-0.002 -0.85959,-0.006 l -0.12462,-0.002 -0.002,-0.12462 c -0.004,-0.28683 -0.006,-0.57415 -0.005,-0.86118 -0.28543,-0.007 -0.57026,-0.009 -0.85638,-0.01 l -0.12622,0 -0.002,-0.12623 c -0.003,-0.28451 -0.006,-0.56876 -0.0112,-0.85318 -0.28472,-0.0127 -0.57122,-0.0203 -0.85957,-0.0176 l -0.12942,0.002 0,-0.12942 c -6.4e-4,-0.28808 -0.002,-0.57555 -0.005,-0.86277 -0.28711,0.002 -0.57467,-5.7e-4 -0.86117,-0.006 l -0.12463,-0.003 0,-0.12462 c -7.5e-4,-0.28211 -0.003,-0.56261 -0.0112,-0.8436 -0.28339,-0.0155 -0.56741,-0.018 -0.85319,-0.0192 l -0.12622,0 -0.002,-0.12622 c -0.005,-0.28707 -0.008,-0.57326 -0.006,-0.86118 -0.28745,-0.001 -0.57428,-0.003 -0.86118,-0.008 l -0.12142,-0.002 -0.005,-0.12142 c -0.0103,-0.28697 -0.0218,-0.57519 -0.0224,-0.86278 -0.28029,-0.007 -0.56037,-0.008 -0.842,-0.008 l -0.12462,0 -0.003,-0.12462 c -0.007,-0.2857 -0.0108,-0.57301 -0.008,-0.85958 -0.28707,-0.003 -0.57426,-0.005 -0.86118,-0.01 l -0.12142,-0.002 -0.005,-0.12143 c -0.0112,-0.28694 -0.0154,-0.57392 -0.016,-0.86277 -0.28555,-0.007 -0.57037,-0.008 -0.85639,-0.01 l -0.12622,0 -0.002,-0.12622 c -0.002,-0.28538 -0.003,-0.57139 -0.01,-0.85638 -0.28693,-0.002 -0.57529,-0.002 -0.86278,-0.005 l -0.12462,-0.002 -0.002,-0.12463 c -0.003,-0.28627 -0.004,-0.57389 -0.005,-0.86117 -0.28722,-0.008 -0.57673,-0.006 -0.86597,-0.005 l -0.12622,0 -0.002,-0.12622 c -0.002,-0.28812 -0.007,-0.57637 -0.0192,-0.86278 -0.16073,-9.6e-4 -0.32155,-0.002 -0.48252,-0.002 z"
           id="path4097"
           style="font-size:medium;font-style:normal;font-variant:normal;font-weight:normal;font-stretch:normal;text-indent:0;text-align:start;text-decoration:none;line-height:normal;letter-spacing:normal;word-spacing:normal;text-transform:none;direction:ltr;block-progression:tb;writing-mode:lr-tb;text-anchor:start;color:#000000;fill:#ffffff;fill-opacity:1;fill-rule:nonzero;stroke:none;stroke-width:5;marker:none;visibility:visible;display:inline;overflow:visible;enable-background:accumulate;font-family:Acquaintance;-inkscape-font-specification:Acquaintance" />
        <path
           inkscape:connector-curvature="0"
           d="m 431.39112,174.58168 c 0.3221,-0.003 0.6442,-0.003 0.96566,-6.4e-4 0.0141,0.32913 0.0217,0.65827 0.0217,0.9874 0.33041,-0.003 0.66082,-0.003 0.99059,0.007 6.4e-4,0.32849 10e-4,0.65698 0.005,0.98484 -0.33297,-0.002 -0.66594,-0.001 -0.9989,6.4e-4 -0.003,4.63916 0.01,9.27769 0.006,13.91622 0.32913,0.004 0.65762,0.004 0.98676,-0.003 -0.003,-0.32785 -0.002,-0.65507 10e-4,-0.98292 0.32914,-0.006 0.66146,-0.0339 0.9874,0.0249 0.0537,0.32466 0.023,0.65443 0.0153,0.98165 -0.32274,0.004 -0.64612,0.007 -0.9695,0.003 0.003,0.3285 -0.005,0.65763 -0.0256,0.98548 -0.6621,0.005 -1.32483,-0.001 -1.98757,-6.4e-4 -0.0268,-1.95242 -0.005,-3.90549 -0.0121,-5.85855 0.005,-3.68181 -0.009,-7.36425 0.0141,-11.04606 z"
           id="path3022"
           style="fill:#1c1c1c" />
        <path
           inkscape:connector-curvature="0"
           d="m 433.37422,176.56031 c 0.32913,0.003 0.6589,0.004 0.98803,0.006 0.007,0.32721 0.01,0.65443 0.0115,0.98164 0.32785,0.001 0.6557,0.003 0.98356,0.0109 6.4e-4,0.32785 6.4e-4,0.65635 0.0172,0.98484 0.3285,0.006 0.65699,0.007 0.98548,0.0109 -0.003,0.32722 -6.4e-4,0.65507 0.009,0.98229 0.32338,-6.4e-4 0.64676,0.003 0.9695,0.0102 6.4e-4,0.32786 0.0141,0.65571 0.0256,0.98356 0.32721,0.006 0.65506,0.008 0.98292,0.009 -0.001,0.32786 6.4e-4,0.65571 0.007,0.9842 0.32721,0 0.65507,0.004 0.98164,0.0224 0.01,0.32338 0.0128,0.64676 0.0128,0.97078 0.32785,0.008 0.6557,0.0102 0.98356,0.008 0.003,0.32913 0.006,0.65826 0.006,0.9874 -0.33233,0.0166 -0.66466,0.0141 -0.99698,0.005 0,-0.32849 0.001,-0.65763 0.001,-0.98676 -0.3336,-0.004 -0.66721,-0.004 -1.00017,-0.002 0.004,-0.33296 0.005,-0.66529 -6.4e-4,-0.99762 -0.32914,6.4e-4 -0.65891,0.001 -0.98804,0.002 0,-0.33041 10e-4,-0.66018 0.002,-0.98995 -0.33361,-0.008 -0.66657,-0.007 -0.99954,-0.002 6.4e-4,-0.33297 0.002,-0.66593 -0.002,-0.9989 -0.32913,0 -0.6589,6.4e-4 -0.98803,0.001 -0.004,-0.33169 -0.003,-0.66338 -0.007,-0.99507 -0.33105,0 -0.6621,6.4e-4 -0.99251,-0.007 0.002,-0.32849 0.003,-0.65698 -6.4e-4,-0.98548 -0.32786,-0.004 -0.65571,-0.003 -0.98356,-0.001 -0.0102,-0.33168 -0.009,-0.66337 -0.008,-0.99506 z"
           id="path3024"
           style="fill:#1c1c1c" />
        <path
           inkscape:connector-curvature="0"
           d="m 440.33776,183.51299 c 0.32977,-0.009 0.6589,0.006 0.98803,0.0205 0.006,0.32593 0.009,0.65187 0.0128,0.97781 0.32785,0 0.65507,0.003 0.98292,0.0109 -0.002,0.32849 0,0.65763 0.006,0.98612 0.32786,0.006 0.65635,0.008 0.98484,0.008 0.0121,0.66146 0.0102,1.32228 0.002,1.98374 -1.31845,0.0147 -2.63625,0.0147 -3.95406,0.0172 0.002,0.32402 0.003,0.64868 -0.0147,0.9727 -0.33233,0.0166 -0.66529,0.0128 -0.99762,0.0102 -0.01,-0.66338 -0.009,-1.32676 0,-1.98949 1.32483,-0.008 2.65031,0.004 3.97515,-0.002 0.004,-0.33169 0.004,-0.66402 -6.4e-4,-0.99571 -0.33105,-0.002 -0.66274,-0.001 -0.99379,-0.006 6.4e-4,-0.32913 0.002,-0.65826 -6.4e-4,-0.98739 -0.32785,-0.003 -0.65635,-0.003 -0.9842,6.4e-4 -0.0121,-0.33553 -0.0121,-0.67105 -0.006,-1.00657 z"
           id="path3028"
           style="fill:#1c1c1c" />
        <path
           inkscape:connector-curvature="0"
           d="m 435.36179,187.4958 c 0.32913,-0.002 0.65827,-0.001 0.9874,6.4e-4 0.0121,0.34 0.0275,0.68255 -0.0192,1.02063 -0.30932,0.0243 -0.61928,0.0211 -0.9286,0.0179 -10e-4,0.32018 -0.009,0.64037 -0.0153,0.96119 -0.32913,0.007 -0.66274,0.0409 -0.98868,-0.0211 -0.069,-0.32274 -0.0358,-0.65507 -0.03,-0.98164 0.32977,-0.002 0.65954,-0.002 0.98931,-0.002 -10e-4,-0.33169 -10e-4,-0.66402 0.005,-0.99571 z"
           id="path3032"
           style="fill:#1c1c1c" />
        <path
           inkscape:connector-curvature="0"
           d="m 436.33002,188.51707 c 0.33935,-0.0371 0.68063,-0.0262 1.02062,-0.0198 0.007,0.66082 6.4e-4,1.32228 0.004,1.9831 0.33169,-6.4e-4 0.66274,-6.4e-4 0.99442,0.006 0.002,0.65827 -0.006,1.31653 0.004,1.97544 0.66401,0.0102 1.32931,-0.0211 1.99269,0.0179 0.0383,0.33105 0.0179,0.66466 -0.0102,0.9957 -0.66721,0.004 -1.33378,0.006 -2.001,-0.003 0.001,-0.32913 -10e-4,-0.65763 -0.008,-0.98676 -0.32594,6.4e-4 -0.65252,-0.004 -0.97845,-0.0102 -0.0109,-0.65827 -0.008,-1.31653 -0.0153,-1.97416 -0.32849,-0.003 -0.65699,-0.007 -0.98548,-0.0179 0.0358,-0.65635 -0.0946,-1.3127 -0.0179,-1.96713 z"
           id="path3034"
           style="fill:#1c1c1c" />
        <path
           inkscape:connector-curvature="0"
           d="m 439.34525,188.48959 c 0.33041,-0.0153 0.66146,-0.006 0.99251,0.006 0.003,0.65827 -0.004,1.31653 0.008,1.97544 0.32721,0.003 0.65379,0.007 0.981,0.016 0.008,0.66402 0.0115,1.32804 0.002,1.99205 -0.32721,0.008 -0.65507,0.0166 -0.98228,10e-4 -0.0371,-0.66146 -0.006,-1.32484 -0.0128,-1.98694 -0.33296,-0.007 -0.66593,-0.006 -0.99826,-0.008 -6.4e-4,-0.66466 -0.008,-1.33059 0.01,-1.99525 z"
           id="path3036"
           style="fill:#1c1c1c" />
      </g>
      <path
         inkscape:connector-curvature="0"
         id="path3885"
         d="m 425.97598,126.78861 0,-4.5045 0,0"
         style="fill:none;stroke:#000000;stroke-width:0.93389726px;stroke-linecap:butt;stroke-linejoin:miter;stroke-opacity:1" />
      <path
         inkscape:transform-center-y="-4.0330751"
         inkscape:transform-center-x="-3.16961"
         style="fill:none;stroke:#000000;stroke-width:0.93389726px;stroke-linecap:butt;stroke-linejoin:miter;stroke-opacity:1"
         d="m 428.23806,128.18408 3.11536,-3.25347 0,0"
         id="path3944"
         inkscape:connector-curvature="0" />
      <path
         inkscape:connector-curvature="0"
         id="path3946"
         d="m 429.48564,130.13 4.50407,0.0624 0,0"
         style="fill:none;stroke:#000000;stroke-width:0.93389726px;stroke-linecap:butt;stroke-linejoin:miter;stroke-opacity:1"
         inkscape:transform-center-x="-5.111545"
         inkscape:transform-center-y="-0.4292081" />
      <path
         inkscape:transform-center-y="3.5105699"
         inkscape:transform-center-x="-3.740055"
         style="fill:none;stroke:#000000;stroke-width:0.93389726px;stroke-linecap:butt;stroke-linejoin:miter;stroke-opacity:1"
         d="m 428.88209,132.40685 2.96819,3.38827 0,0"
         id="path3948"
         inkscape:connector-curvature="0" />
      <path
         inkscape:connector-curvature="0"
         id="path3950"
         d="m 423.62935,128.18408 -3.11536,-3.25347 0,0"
         style="fill:none;stroke:#000000;stroke-width:0.93389726px;stroke-linecap:butt;stroke-linejoin:miter;stroke-opacity:1"
         inkscape:transform-center-x="3.16961"
         inkscape:transform-center-y="-4.0330751" />
      <path
         inkscape:transform-center-y="-0.4292081"
         inkscape:transform-center-x="5.111545"
         style="fill:none;stroke:#000000;stroke-width:0.93389726px;stroke-linecap:butt;stroke-linejoin:miter;stroke-opacity:1"
         d="m 422.38177,130.13 -4.50407,0.0624 0,0"
         id="path3952"
         inkscape:connector-curvature="0" />
      <path
         inkscape:connector-curvature="0"
         id="path3954"
         d="m 422.98532,132.40685 -2.96819,3.38827 0,0"
         style="fill:none;stroke:#000000;stroke-width:0.93389726px;stroke-linecap:butt;stroke-linejoin:miter;stroke-opacity:1"
         inkscape:transform-center-x="3.740055"
         inkscape:transform-center-y="3.5105699" />
    </g>
    <g
       id="g4055"
       transform="matrix(1.0707817,0,0,1.0707817,-295.92979,941.32322)"
       inkscape:export-filename="/home/yves/KIMSUFI/www.git/beta.pistes-nordiques.org/pics/interactive-help.png"
       inkscape:export-xdpi="56.96389"
       inkscape:export-ydpi="56.96389">
      <path
         style="fill:none;stroke:#3da896;stroke-width:4.66948605;stroke-linecap:butt;stroke-linejoin:miter;stroke-miterlimit:4;stroke-opacity:1;stroke-dasharray:none"
         d="m 507.17703,73.093557 c -40.95238,6.66667 -78.61956,-33.4148 -107.06766,28.270673"
         id="path3976"
         inkscape:connector-curvature="0"
         sodipodi:nodetypes="cc" />
      <path
         sodipodi:nodetypes="cc"
         inkscape:connector-curvature="0"
         id="path4026"
         d="M 400.3003,100.41023 C 422.5874,54.692865 447.91008,68.336721 459.15916,67.377198"
         style="fill:none;stroke:#ffffff;stroke-width:1.6810149;stroke-linecap:butt;stroke-linejoin:miter;stroke-miterlimit:4;stroke-opacity:1;stroke-dasharray:6.7240596, 1.6810149;stroke-dashoffset:16.810149" />
      <path
         transform="translate(4.8048048,15.015015)"
         d="m 462.16216,52.962784 c 0,3.814579 -3.09233,6.906907 -6.90691,6.906907 -3.81458,0 -6.90691,-3.092328 -6.90691,-6.906907 0,-3.81458 3.09233,-6.906907 6.90691,-6.906907 3.81458,0 6.90691,3.092327 6.90691,6.906907 z"
         sodipodi:ry="6.9069071"
         sodipodi:rx="6.9069071"
         sodipodi:cy="52.962784"
         sodipodi:cx="455.25525"
         id="path4024"
         style="fill:#c3c3c3;fill-opacity:0.59420286;stroke:#000000;stroke-width:1.86779428;stroke-linejoin:round;stroke-miterlimit:4;stroke-opacity:1;stroke-dasharray:none"
         sodipodi:type="arc" />
      <g
         style="stroke-width:1.5;stroke-miterlimit:4;stroke-dasharray:none"
         transform="translate(2.1021021,31.831832)"
         id="g4032">
        <path
           style="fill:none;stroke:#ea0000;stroke-width:1.40084577;stroke-linecap:butt;stroke-linejoin:miter;stroke-miterlimit:4;stroke-opacity:1;stroke-dasharray:none"
           d="M 464.26426,30.13996 452.1021,42.302123"
           id="path4028"
           inkscape:connector-curvature="0" />
        <path
           inkscape:connector-curvature="0"
           id="path4030"
           d="m 452.1021,30.13996 12.16216,12.162163"
           style="fill:none;stroke:#ea0000;stroke-width:1.40084577;stroke-linecap:butt;stroke-linejoin:miter;stroke-miterlimit:4;stroke-opacity:1;stroke-dasharray:none" />
      </g>
      <g
         id="g3978"
         transform="translate(28.203992,-105.18825)">
        <path
           style="font-size:medium;font-style:normal;font-variant:normal;font-weight:normal;font-stretch:normal;text-indent:0;text-align:start;text-decoration:none;line-height:normal;letter-spacing:normal;word-spacing:normal;text-transform:none;direction:ltr;block-progression:tb;writing-mode:lr-tb;text-anchor:start;color:#000000;fill:#ffffff;fill-opacity:1;fill-rule:nonzero;stroke:none;stroke-width:5;marker:none;visibility:visible;display:inline;overflow:visible;enable-background:accumulate;font-family:Acquaintance;-inkscape-font-specification:Acquaintance"
           id="path3980"
           d="m 431.87364,174.57944 c -0.16098,0 -0.32147,0 -0.48252,0.002 -0.023,3.68181 -0.009,7.36489 -0.0144,11.0467 0.007,1.95307 -0.014,3.90645 0.0128,5.85887 0.66276,-6.4e-4 1.32548,0.005 1.98758,0 0.0177,-0.28407 0.0222,-0.57086 0.0224,-0.85798 l 0,-0.12941 0.12941,0.002 c 0.28183,0.002 0.56307,1.3e-4 0.8436,-0.003 0.007,-0.28851 0.0271,-0.57887 -0.005,-0.86757 l -0.0176,-0.16137 0.16137,0.0208 c 0.2903,0.037 0.58378,0.0126 0.87396,0.006 0.006,-0.27802 0.0118,-0.55625 0.0144,-0.83401 l 0.002,-0.12782 0.12782,0.002 c 0.21934,0.002 0.4393,-7.2e-4 0.65985,-0.0128 l 0.1454,-0.008 -0.0112,0.14539 c -0.0456,0.60808 0.0571,1.21659 0.024,1.82461 0.28694,0.009 0.57384,0.0133 0.86118,0.016 l 0.12462,0.002 0.002,0.12462 c 0.006,0.61612 0.004,1.23194 0.0144,1.84858 0.28353,0.006 0.56711,0.009 0.85159,0.01 l 0.12622,0 0.002,0.12622 c 0.005,0.28737 0.008,0.57301 0.006,0.86118 0.6672,0.009 1.33475,0.007 2.00195,0.003 0.024,-0.283 0.0346,-0.56997 0.0144,-0.85798 l -0.01,-0.1406 0.14061,0.003 c 0.28308,0.008 0.56695,0.006 0.84679,-0.002 0.01,-0.66401 0.006,-1.32835 -0.002,-1.99237 -0.28508,-0.008 -0.56962,-0.0114 -0.85478,-0.0144 l -0.12462,-0.002 -0.002,-0.12463 c -0.01,-0.61734 -0.005,-1.23267 -0.008,-1.85017 -0.28556,-0.0105 -0.57384,-0.0159 -0.86117,-0.008 l -0.13581,0.003 0.005,-0.13581 c 0.01,-0.23789 0.0136,-0.47492 0.0128,-0.71099 l 0,-0.12781 0.12782,0 c 1.27566,-0.002 2.55018,-0.002 3.82656,-0.016 0.008,-0.66146 0.0105,-1.32292 -0.002,-1.98438 -0.28697,0 -0.57343,-0.002 -0.85959,-0.006 l -0.12462,-0.002 -0.002,-0.12462 c -0.004,-0.28683 -0.006,-0.57415 -0.005,-0.86118 -0.28543,-0.007 -0.57026,-0.009 -0.85638,-0.01 l -0.12622,0 -0.002,-0.12623 c -0.003,-0.28451 -0.006,-0.56876 -0.0112,-0.85318 -0.28472,-0.0127 -0.57122,-0.0203 -0.85957,-0.0176 l -0.12942,0.002 0,-0.12942 c -6.4e-4,-0.28808 -0.002,-0.57555 -0.005,-0.86277 -0.28711,0.002 -0.57467,-5.7e-4 -0.86117,-0.006 l -0.12463,-0.003 0,-0.12462 c -7.5e-4,-0.28211 -0.003,-0.56261 -0.0112,-0.8436 -0.28339,-0.0155 -0.56741,-0.018 -0.85319,-0.0192 l -0.12622,0 -0.002,-0.12622 c -0.005,-0.28707 -0.008,-0.57326 -0.006,-0.86118 -0.28745,-0.001 -0.57428,-0.003 -0.86118,-0.008 l -0.12142,-0.002 -0.005,-0.12142 c -0.0103,-0.28697 -0.0218,-0.57519 -0.0224,-0.86278 -0.28029,-0.007 -0.56037,-0.008 -0.842,-0.008 l -0.12462,0 -0.003,-0.12462 c -0.007,-0.2857 -0.0108,-0.57301 -0.008,-0.85958 -0.28707,-0.003 -0.57426,-0.005 -0.86118,-0.01 l -0.12142,-0.002 -0.005,-0.12143 c -0.0112,-0.28694 -0.0154,-0.57392 -0.016,-0.86277 -0.28555,-0.007 -0.57037,-0.008 -0.85639,-0.01 l -0.12622,0 -0.002,-0.12622 c -0.002,-0.28538 -0.003,-0.57139 -0.01,-0.85638 -0.28693,-0.002 -0.57529,-0.002 -0.86278,-0.005 l -0.12462,-0.002 -0.002,-0.12463 c -0.003,-0.28627 -0.004,-0.57389 -0.005,-0.86117 -0.28722,-0.008 -0.57673,-0.006 -0.86597,-0.005 l -0.12622,0 -0.002,-0.12622 c -0.002,-0.28812 -0.007,-0.57637 -0.0192,-0.86278 -0.16073,-9.6e-4 -0.32155,-0.002 -0.48252,-0.002 z"
           inkscape:connector-curvature="0" />
        <path
           style="fill:#1c1c1c"
           id="path3982"
           d="m 431.39112,174.58168 c 0.3221,-0.003 0.6442,-0.003 0.96566,-6.4e-4 0.0141,0.32913 0.0217,0.65827 0.0217,0.9874 0.33041,-0.003 0.66082,-0.003 0.99059,0.007 6.4e-4,0.32849 10e-4,0.65698 0.005,0.98484 -0.33297,-0.002 -0.66594,-0.001 -0.9989,6.4e-4 -0.003,4.63916 0.01,9.27769 0.006,13.91622 0.32913,0.004 0.65762,0.004 0.98676,-0.003 -0.003,-0.32785 -0.002,-0.65507 10e-4,-0.98292 0.32914,-0.006 0.66146,-0.0339 0.9874,0.0249 0.0537,0.32466 0.023,0.65443 0.0153,0.98165 -0.32274,0.004 -0.64612,0.007 -0.9695,0.003 0.003,0.3285 -0.005,0.65763 -0.0256,0.98548 -0.6621,0.005 -1.32483,-0.001 -1.98757,-6.4e-4 -0.0268,-1.95242 -0.005,-3.90549 -0.0121,-5.85855 0.005,-3.68181 -0.009,-7.36425 0.0141,-11.04606 z"
           inkscape:connector-curvature="0" />
        <path
           style="fill:#1c1c1c"
           id="path3984"
           d="m 433.37422,176.56031 c 0.32913,0.003 0.6589,0.004 0.98803,0.006 0.007,0.32721 0.01,0.65443 0.0115,0.98164 0.32785,0.001 0.6557,0.003 0.98356,0.0109 6.4e-4,0.32785 6.4e-4,0.65635 0.0172,0.98484 0.3285,0.006 0.65699,0.007 0.98548,0.0109 -0.003,0.32722 -6.4e-4,0.65507 0.009,0.98229 0.32338,-6.4e-4 0.64676,0.003 0.9695,0.0102 6.4e-4,0.32786 0.0141,0.65571 0.0256,0.98356 0.32721,0.006 0.65506,0.008 0.98292,0.009 -0.001,0.32786 6.4e-4,0.65571 0.007,0.9842 0.32721,0 0.65507,0.004 0.98164,0.0224 0.01,0.32338 0.0128,0.64676 0.0128,0.97078 0.32785,0.008 0.6557,0.0102 0.98356,0.008 0.003,0.32913 0.006,0.65826 0.006,0.9874 -0.33233,0.0166 -0.66466,0.0141 -0.99698,0.005 0,-0.32849 0.001,-0.65763 0.001,-0.98676 -0.3336,-0.004 -0.66721,-0.004 -1.00017,-0.002 0.004,-0.33296 0.005,-0.66529 -6.4e-4,-0.99762 -0.32914,6.4e-4 -0.65891,0.001 -0.98804,0.002 0,-0.33041 10e-4,-0.66018 0.002,-0.98995 -0.33361,-0.008 -0.66657,-0.007 -0.99954,-0.002 6.4e-4,-0.33297 0.002,-0.66593 -0.002,-0.9989 -0.32913,0 -0.6589,6.4e-4 -0.98803,0.001 -0.004,-0.33169 -0.003,-0.66338 -0.007,-0.99507 -0.33105,0 -0.6621,6.4e-4 -0.99251,-0.007 0.002,-0.32849 0.003,-0.65698 -6.4e-4,-0.98548 -0.32786,-0.004 -0.65571,-0.003 -0.98356,-0.001 -0.0102,-0.33168 -0.009,-0.66337 -0.008,-0.99506 z"
           inkscape:connector-curvature="0" />
        <path
           style="fill:#1c1c1c"
           id="path3986"
           d="m 440.33776,183.51299 c 0.32977,-0.009 0.6589,0.006 0.98803,0.0205 0.006,0.32593 0.009,0.65187 0.0128,0.97781 0.32785,0 0.65507,0.003 0.98292,0.0109 -0.002,0.32849 0,0.65763 0.006,0.98612 0.32786,0.006 0.65635,0.008 0.98484,0.008 0.0121,0.66146 0.0102,1.32228 0.002,1.98374 -1.31845,0.0147 -2.63625,0.0147 -3.95406,0.0172 0.002,0.32402 0.003,0.64868 -0.0147,0.9727 -0.33233,0.0166 -0.66529,0.0128 -0.99762,0.0102 -0.01,-0.66338 -0.009,-1.32676 0,-1.98949 1.32483,-0.008 2.65031,0.004 3.97515,-0.002 0.004,-0.33169 0.004,-0.66402 -6.4e-4,-0.99571 -0.33105,-0.002 -0.66274,-0.001 -0.99379,-0.006 6.4e-4,-0.32913 0.002,-0.65826 -6.4e-4,-0.98739 -0.32785,-0.003 -0.65635,-0.003 -0.9842,6.4e-4 -0.0121,-0.33553 -0.0121,-0.67105 -0.006,-1.00657 z"
           inkscape:connector-curvature="0" />
        <path
           style="fill:#1c1c1c"
           id="path3988"
           d="m 435.36179,187.4958 c 0.32913,-0.002 0.65827,-0.001 0.9874,6.4e-4 0.0121,0.34 0.0275,0.68255 -0.0192,1.02063 -0.30932,0.0243 -0.61928,0.0211 -0.9286,0.0179 -10e-4,0.32018 -0.009,0.64037 -0.0153,0.96119 -0.32913,0.007 -0.66274,0.0409 -0.98868,-0.0211 -0.069,-0.32274 -0.0358,-0.65507 -0.03,-0.98164 0.32977,-0.002 0.65954,-0.002 0.98931,-0.002 -10e-4,-0.33169 -10e-4,-0.66402 0.005,-0.99571 z"
           inkscape:connector-curvature="0" />
        <path
           style="fill:#1c1c1c"
           id="path3990"
           d="m 436.33002,188.51707 c 0.33935,-0.0371 0.68063,-0.0262 1.02062,-0.0198 0.007,0.66082 6.4e-4,1.32228 0.004,1.9831 0.33169,-6.4e-4 0.66274,-6.4e-4 0.99442,0.006 0.002,0.65827 -0.006,1.31653 0.004,1.97544 0.66401,0.0102 1.32931,-0.0211 1.99269,0.0179 0.0383,0.33105 0.0179,0.66466 -0.0102,0.9957 -0.66721,0.004 -1.33378,0.006 -2.001,-0.003 0.001,-0.32913 -10e-4,-0.65763 -0.008,-0.98676 -0.32594,6.4e-4 -0.65252,-0.004 -0.97845,-0.0102 -0.0109,-0.65827 -0.008,-1.31653 -0.0153,-1.97416 -0.32849,-0.003 -0.65699,-0.007 -0.98548,-0.0179 0.0358,-0.65635 -0.0946,-1.3127 -0.0179,-1.96713 z"
           inkscape:connector-curvature="0" />
        <path
           style="fill:#1c1c1c"
           id="path3992"
           d="m 439.34525,188.48959 c 0.33041,-0.0153 0.66146,-0.006 0.99251,0.006 0.003,0.65827 -0.004,1.31653 0.008,1.97544 0.32721,0.003 0.65379,0.007 0.981,0.016 0.008,0.66402 0.0115,1.32804 0.002,1.99205 -0.32721,0.008 -0.65507,0.0166 -0.98228,10e-4 -0.0371,-0.66146 -0.006,-1.32484 -0.0128,-1.98694 -0.33296,-0.007 -0.66593,-0.006 -0.99826,-0.008 -6.4e-4,-0.66466 -0.008,-1.33059 0.01,-1.99525 z"
           inkscape:connector-curvature="0" />
      </g>
    </g>
    <path
       style="fill:none;stroke:#3da896;stroke-width:5;stroke-linecap:butt;stroke-linejoin:miter;stroke-miterlimit:4;stroke-opacity:1;stroke-dasharray:none"
       d="M 377.14609,1019.5905 C 333.29503,1026.729 292.9617,983.81051 262.5,1049.8622"
       id="path4073"
       inkscape:connector-curvature="0"
       sodipodi:nodetypes="cc" />
    <path
       sodipodi:nodetypes="cc"
       inkscape:connector-curvature="0"
       id="path4075"
       d="m 269.75594,1036.3047 c 21.51411,-32.761 43.92818,-21.8078 55.97349,-22.8352"
       style="fill:none;stroke:#ffffff;stroke-width:1.79999995;stroke-linecap:butt;stroke-linejoin:miter;stroke-miterlimit:4;stroke-opacity:1;stroke-dasharray:7.19999997, 1.79999999;stroke-dashoffset:17.99999992" />
    <path
       transform="matrix(1.0707817,0,0,1.0707817,-160.7849,957.40102)"
       d="m 462.16216,52.962784 c 0,3.814579 -3.09233,6.906907 -6.90691,6.906907 -3.81458,0 -6.90691,-3.092328 -6.90691,-6.906907 0,-3.81458 3.09233,-6.906907 6.90691,-6.906907 3.81458,0 6.90691,3.092327 6.90691,6.906907 z"
       sodipodi:ry="6.9069071"
       sodipodi:rx="6.9069071"
       sodipodi:cy="52.962784"
       sodipodi:cx="455.25525"
       id="path4077"
       style="fill:#c3c3c3;fill-opacity:0.59420286;stroke:#000000;stroke-width:1.86779428;stroke-linejoin:round;stroke-miterlimit:4;stroke-opacity:1;stroke-dasharray:none"
       sodipodi:type="arc" />
    <g
       style="stroke-width:1.5;stroke-miterlimit:4;stroke-dasharray:none"
       transform="matrix(1.0707817,0,0,1.0707817,-163.6789,975.40816)"
       id="g4079">
      <path
         style="fill:none;stroke:#ea0000;stroke-width:1.40084577;stroke-linecap:butt;stroke-linejoin:miter;stroke-miterlimit:4;stroke-opacity:1;stroke-dasharray:none"
         d="M 464.26426,30.13996 452.1021,42.302123"
         id="path4081"
         inkscape:connector-curvature="0" />
      <path
         inkscape:connector-curvature="0"
         id="path4083"
         d="m 452.1021,30.13996 12.16216,12.162163"
         style="fill:none;stroke:#ea0000;stroke-width:1.40084577;stroke-linecap:butt;stroke-linejoin:miter;stroke-miterlimit:4;stroke-opacity:1;stroke-dasharray:none" />
    </g>
    <path
       sodipodi:type="arc"
       style="fill:#c3c3c3;fill-opacity:0.59420286;stroke:#000000;stroke-width:1.86779428;stroke-linejoin:round;stroke-miterlimit:4;stroke-opacity:1;stroke-dasharray:none"
       id="path4116"
       sodipodi:cx="455.25525"
       sodipodi:cy="52.962784"
       sodipodi:rx="6.9069071"
       sodipodi:ry="6.9069071"
       d="m 462.16216,52.962784 c 0,3.814579 -3.09233,6.906907 -6.90691,6.906907 -3.81458,0 -6.90691,-3.092328 -6.90691,-6.906907 0,-3.81458 3.09233,-6.906907 6.90691,-6.906907 3.81458,0 6.90691,3.092327 6.90691,6.906907 z"
       transform="matrix(1.0707817,0,0,1.0707817,-217.98031,978.81666)" />
    <g
       id="g4118"
       transform="matrix(1.0707817,0,0,1.0707817,-220.87431,996.8238)"
       style="stroke-width:1.5;stroke-miterlimit:4;stroke-dasharray:none">
      <path
         inkscape:connector-curvature="0"
         id="path4120"
         d="M 464.26426,30.13996 452.1021,42.302123"
         style="fill:none;stroke:#ea0000;stroke-width:1.40084577;stroke-linecap:butt;stroke-linejoin:miter;stroke-miterlimit:4;stroke-opacity:1;stroke-dasharray:none" />
      <path
         style="fill:none;stroke:#ea0000;stroke-width:1.40084577;stroke-linecap:butt;stroke-linejoin:miter;stroke-miterlimit:4;stroke-opacity:1;stroke-dasharray:none"
         d="m 452.1021,30.13996 12.16216,12.162163"
         id="path4122"
         inkscape:connector-curvature="0" />
    </g>
    <rect
       style="fill:#c3c3c3;fill-opacity:0.59420286;stroke:#000000;stroke-width:0.99999994;stroke-linejoin:round;stroke-miterlimit:4;stroke-opacity:1;stroke-dasharray:none;stroke-dashoffset:18"
       id="rect4128"
       width="36.414169"
       height="15.155568"
       x="342.27679"
       y="1031.061"
       rx="3.0073285"
       ry="2.545239" />
    <text
       xml:space="preserve"
       style="font-size:37.11125565px;font-style:normal;font-weight:normal;line-height:125%;letter-spacing:0px;word-spacing:0px;fill:#000000;fill-opacity:1;stroke:none;font-family:Sans"
       x="330.91357"
       y="1087.2889"
       id="text4124"
       sodipodi:linespacing="125%"
       transform="scale(1.04314,0.95864409)"><tspan
         sodipodi:role="line"
         id="tspan4126"
         x="330.91357"
         y="1087.2889"
         style="font-size:16.70006561px;font-family:Abadi MT Condensed Light;-inkscape-font-specification:Abadi MT Condensed Light">esc</tspan></text>
  </g>
</svg>
