<?xml version="1.0" encoding="UTF-8" standalone="no"?>
<!-- Created with Inkscape (http://www.inkscape.org/) -->

<svg
   xmlns:dc="http://purl.org/dc/elements/1.1/"
   xmlns:cc="http://creativecommons.org/ns#"
   xmlns:rdf="http://www.w3.org/1999/02/22-rdf-syntax-ns#"
   xmlns:svg="http://www.w3.org/2000/svg"
   xmlns="http://www.w3.org/2000/svg"
   xmlns:sodipodi="http://sodipodi.sourceforge.net/DTD/sodipodi-0.dtd"
   xmlns:inkscape="http://www.inkscape.org/namespaces/inkscape"
   width="32"
   height="20"
   id="svg2"
   version="1.1"
   inkscape:version="0.47 r22583"
   sodipodi:docname="key-unknow.svg"
   inkscape:export-filename="/media/home-server/home/website/www.pistes-nordiques.org/dual/pics/key-unknow.png"
   inkscape:export-xdpi="67"
   inkscape:export-ydpi="67">
  <defs
     id="defs4">
    <inkscape:perspective
       sodipodi:type="inkscape:persp3d"
       inkscape:vp_x="0 : 526.18109 : 1"
       inkscape:vp_y="0 : 1000 : 0"
       inkscape:vp_z="744.09448 : 526.18109 : 1"
       inkscape:persp3d-origin="372.04724 : 350.78739 : 1"
       id="perspective10" />
    <inkscape:perspective
       id="perspective10-6"
       inkscape:persp3d-origin="372.04724 : 350.78739 : 1"
       inkscape:vp_z="744.09448 : 526.18109 : 1"
       inkscape:vp_y="0 : 1000 : 0"
       inkscape:vp_x="0 : 526.18109 : 1"
       sodipodi:type="inkscape:persp3d" />
    <inkscape:perspective
       id="perspective3626"
       inkscape:persp3d-origin="0.5 : 0.33333333 : 1"
       inkscape:vp_z="1 : 0.5 : 1"
       inkscape:vp_y="0 : 1000 : 0"
       inkscape:vp_x="0 : 0.5 : 1"
       sodipodi:type="inkscape:persp3d" />
    <inkscape:perspective
       id="perspective3650"
       inkscape:persp3d-origin="0.5 : 0.33333333 : 1"
       inkscape:vp_z="1 : 0.5 : 1"
       inkscape:vp_y="0 : 1000 : 0"
       inkscape:vp_x="0 : 0.5 : 1"
       sodipodi:type="inkscape:persp3d" />
  </defs>
  <sodipodi:namedview
     id="base"
     pagecolor="#ffffff"
     bordercolor="#666666"
     borderopacity="1.0"
     inkscape:pageopacity="0.0"
     inkscape:pageshadow="2"
     inkscape:zoom="13.77"
     inkscape:cx="-3.4240847"
     inkscape:cy="14.667133"
     inkscape:document-units="px"
     inkscape:current-layer="layer1"
     showgrid="true"
     inkscape:snap-global="false"
     inkscape:window-width="1440"
     inkscape:window-height="812"
     inkscape:window-x="0"
     inkscape:window-y="61"
     inkscape:window-maximized="1">
    <inkscape:grid
       type="xygrid"
       id="grid3640"
       empspacing="5"
       visible="true"
       enabled="true"
       snapvisiblegridlinesonly="true" />
  </sodipodi:namedview>
  <metadata
     id="metadata7">
    <rdf:RDF>
      <cc:Work
         rdf:about="">
        <dc:format>image/svg+xml</dc:format>
        <dc:type
           rdf:resource="http://purl.org/dc/dcmitype/StillImage" />
        <dc:title></dc:title>
      </cc:Work>
    </rdf:RDF>
  </metadata>
  <g
     inkscape:label="Calque 1"
     inkscape:groupmode="layer"
     id="layer1"
     transform="translate(0,-1032.3622)">
    <rect
       style="fill:#555555;fill-opacity:0.43181817;fill-rule:nonzero;stroke:none"
       id="rect3616"
       width="6"
       height="9.0000172"
       x="1"
       y="1037.3622" />
    <rect
       style="fill:#555555;fill-opacity:0.43181817;fill-rule:nonzero;stroke:none"
       id="rect3616-4"
       width="10"
       height="9.0000172"
       x="18"
       y="1037.3622" />
    <rect
       style="fill:#29817b;fill-opacity:1;fill-rule:nonzero;stroke:none"
       id="rect3614"
       width="30"
       height="3.0000174"
       x="1"
       y="1040.3622"
       ry="0" />
    <g
       transform="matrix(0.33333334,0,0,0.33333334,7.4916484,695.98595)"
       id="layer1-8"
       inkscape:label="Calque 1">
      <g
         id="flowRoot2816"
         style="font-size:24px;font-style:normal;font-variant:normal;font-weight:normal;font-stretch:normal;text-align:start;line-height:125%;writing-mode:lr-tb;text-anchor:start;fill:#000000;fill-opacity:1;stroke:none;font-family:TeXGyreTermes;-inkscape-font-specification:TeXGyreTermes"
         transform="matrix(1.6151371,0,0,1.6151371,3.8671166,1010.7442)">
        <path
           transform="matrix(0.51204775,0,0,0.51204775,-2.4889733,16.892722)"
           d="m 34.7651,-0.80536914 c 0,9.08119224 -7.36176,16.44295314 -16.442953,16.44295314 -9.0811919,0 -16.4429527,-7.3617609 -16.4429527,-16.44295314 0,-9.08119226 7.3617608,-16.44295286 16.4429527,-16.44295286 9.081193,0 16.442953,7.3617606 16.442953,16.44295286 z"
           sodipodi:ry="16.442953"
           sodipodi:rx="16.442953"
           sodipodi:cy="-0.80536914"
           sodipodi:cx="18.322147"
           id="path2814"
           style="fill:#ffffff;fill-opacity:1;fill-rule:nonzero;stroke:#000000;stroke-width:3.38859057;stroke-linecap:round;stroke-linejoin:miter;stroke-miterlimit:4;stroke-opacity:1;stroke-dasharray:none"
           sodipodi:type="arc" />
        <g
           id="flowRoot2832"
           style="font-size:10px;line-height:125%;fill:#000000;font-family:Purisa;-inkscape-font-specification:Purisa"
           transform="matrix(1.9899693,0,0,1.9899693,-16.43756,-6.610656)">
          <path
             id="path2819"
             style="font-weight:bold;font-family:TeXGyreTermes;-inkscape-font-specification:TeXGyreTermes Bold"
             d="m 13.7,9.9109784 c 0,-0.999999 -0.800001,-1.66 -2,-1.66 -1.099999,0 -1.88,0.6000008 -1.88,1.44 0,0.4399996 0.29,0.7599996 0.68,0.7599996 0.38,0 0.63,-0.26 0.63,-0.6399996 0,-0.1999998 -0.05,-0.3200002 -0.22,-0.51 -0.12,-0.1299999 -0.15,-0.1900001 -0.15,-0.29 0,-0.2399998 0.25,-0.4 0.61,-0.4 0.529999,0 0.84,0.4800008 0.84,1.3 0,0.5199996 -0.1,0.8700006 -0.43,1.4899996 -0.24,0.46 -0.32,0.690001 -0.32,0.97 0,0.11 0,0.160001 0.02,0.46 l 0.3,0 c 0,-0.729999 0.08,-0.87 0.71,-1.26 0.909999,-0.559999 1.21,-0.97 1.21,-1.6599996 m -1.22,4.5199996 c 0,-0.459999 -0.38,-0.85 -0.84,-0.85 -0.46,0 -0.85,0.390001 -0.85,0.84 0,0.48 0.37,0.85 0.85,0.85 0.47,0 0.84,-0.37 0.84,-0.84" />
        </g>
      </g>
    </g>
  </g>
</svg>
