<?xml version="1.0" encoding="UTF-8" standalone="no"?>
<!-- Created with Inkscape (http://www.inkscape.org/) -->

<svg
   xmlns:dc="http://purl.org/dc/elements/1.1/"
   xmlns:cc="http://creativecommons.org/ns#"
   xmlns:rdf="http://www.w3.org/1999/02/22-rdf-syntax-ns#"
   xmlns:svg="http://www.w3.org/2000/svg"
   xmlns="http://www.w3.org/2000/svg"
   xmlns:sodipodi="http://sodipodi.sourceforge.net/DTD/sodipodi-0.dtd"
   xmlns:inkscape="http://www.inkscape.org/namespaces/inkscape"
   width="50"
   height="50"
   id="svg2"
   version="1.1"
   inkscape:version="0.48.3.1 r9886"
   sodipodi:docname="mobile_50.svg"
   inkscape:export-filename="/home/yves/OPENSNOWMAP/www.git/dev.opensnowmap.org/pics/mobile_50.png"
   inkscape:export-xdpi="90"
   inkscape:export-ydpi="90">
  <defs
     id="defs4" />
  <sodipodi:namedview
     id="base"
     pagecolor="#ffffff"
     bordercolor="#666666"
     borderopacity="1.0"
     inkscape:pageopacity="0.0"
     inkscape:pageshadow="2"
     inkscape:zoom="14.29"
     inkscape:cx="13.696289"
     inkscape:cy="24.997898"
     inkscape:document-units="px"
     inkscape:current-layer="layer1"
     showgrid="false"
     inkscape:window-width="935"
     inkscape:window-height="1029"
     inkscape:window-x="50"
     inkscape:window-y="24"
     inkscape:window-maximized="0" />
  <metadata
     id="metadata7">
    <rdf:RDF>
      <cc:Work
         rdf:about="">
        <dc:format>image/svg+xml</dc:format>
        <dc:type
           rdf:resource="http://purl.org/dc/dcmitype/StillImage" />
        <dc:title></dc:title>
        <cc:license
           rdf:resource="http://creativecommons.org/publicdomain/zero/1.0/" />
      </cc:Work>
      <cc:License
         rdf:about="http://creativecommons.org/publicdomain/zero/1.0/">
        <cc:permits
           rdf:resource="http://creativecommons.org/ns#Reproduction" />
        <cc:permits
           rdf:resource="http://creativecommons.org/ns#Distribution" />
        <cc:permits
           rdf:resource="http://creativecommons.org/ns#DerivativeWorks" />
      </cc:License>
    </rdf:RDF>
  </metadata>
  <g
     inkscape:label="Layer 1"
     inkscape:groupmode="layer"
     id="layer1"
     transform="translate(0,-1002.3622)">
    <path
       inkscape:connector-curvature="0"
       style="fill:#666666;fill-opacity:1;fill-rule:nonzero;stroke:none"
       d="m 14.270089,1003.8622 c -0.98626,0 -1.770089,0.9122 -1.770089,2.0625 l 0,42.875 c 0,1.1503 0.783829,2.0625 1.770089,2.0625 l 21.53125,0 c 0.986261,0 1.77009,-0.9122 1.77009,-2.0625 l 0,-42.875 c 0,-1.1503 -0.783829,-2.0625 -1.77009,-2.0625 l -21.53125,0 z m 1.479911,4.5 18.571429,0 0,36 -18.571429,0 0,-36 z m 7.341518,37 3.888393,0 c 0.986261,0 1.770089,0.892 1.770089,2 0,1.108 -0.783828,2 -1.770089,2 l -3.888393,0 c -0.986261,0 -1.770089,-0.892 -1.770089,-2 0,-1.108 0.783828,-2 1.770089,-2 z"
       id="path2988" />
    <rect
       ry="2.0764332"
       rx="1.9171975"
       y="1004.3622"
       x="13"
       height="46"
       width="24"
       id="rect3784"
       style="fill:none;stroke:#333333;stroke-width:2;stroke-linecap:round;stroke-linejoin:round;stroke-miterlimit:4;stroke-opacity:1;stroke-dasharray:none;stroke-dashoffset:50" />
  </g>
</svg>
