<?xml version="1.0" encoding="UTF-8" standalone="no"?>
<!-- Created with Inkscape (http://www.inkscape.org/) -->

<svg
   xmlns:dc="http://purl.org/dc/elements/1.1/"
   xmlns:cc="http://creativecommons.org/ns#"
   xmlns:rdf="http://www.w3.org/1999/02/22-rdf-syntax-ns#"
   xmlns:svg="http://www.w3.org/2000/svg"
   xmlns="http://www.w3.org/2000/svg"
   xmlns:sodipodi="http://sodipodi.sourceforge.net/DTD/sodipodi-0.dtd"
   xmlns:inkscape="http://www.inkscape.org/namespaces/inkscape"
   width="32"
   height="32"
   id="svg2"
   version="1.1"
   inkscape:version="0.48.3.1 r9886"
   sodipodi:docname="gladed.svg">
  <defs
     id="defs4">
    <marker
       inkscape:stockid="Arrow2Sstart"
       orient="auto"
       refY="0"
       refX="0"
       id="Arrow2Sstart"
       style="overflow:visible">
      <path
         id="path3874"
         style="fill-rule:evenodd;stroke-width:0.625;stroke-linejoin:round"
         d="M 8.7185878,4.0337352 -2.2072895,0.01601326 8.7185884,-4.0017078 c -1.7454984,2.3720609 -1.7354408,5.6174519 -6e-7,8.035443 z"
         transform="matrix(0.3,0,0,0.3,-0.69,0)"
         inkscape:connector-curvature="0" />
    </marker>
    <marker
       inkscape:stockid="Arrow2Send"
       orient="auto"
       refY="0"
       refX="0"
       id="Arrow2Send"
       style="overflow:visible">
      <path
         id="path3877"
         style="fill-rule:evenodd;stroke-width:0.625;stroke-linejoin:round"
         d="M 8.7185878,4.0337352 -2.2072895,0.01601326 8.7185884,-4.0017078 c -1.7454984,2.3720609 -1.7354408,5.6174519 -6e-7,8.035443 z"
         transform="matrix(-0.3,0,0,-0.3,0.69,0)"
         inkscape:connector-curvature="0" />
    </marker>
    <marker
       inkscape:stockid="Arrow1Send"
       orient="auto"
       refY="0"
       refX="0"
       id="Arrow1Send"
       style="overflow:visible">
      <path
         id="path3859"
         d="M 0,0 5,-5 -12.5,0 5,5 0,0 z"
         style="fill-rule:evenodd;stroke:#000000;stroke-width:1pt"
         transform="matrix(-0.2,0,0,-0.2,-1.2,0)"
         inkscape:connector-curvature="0" />
    </marker>
    <inkscape:perspective
       id="perspective12"
       inkscape:persp3d-origin="313.88449 : 183.48334 : 1"
       inkscape:vp_z="627.76898 : 275.22501 : 1"
       inkscape:vp_y="0 : 1000 : 0"
       inkscape:vp_x="0 : 275.22501 : 1"
       sodipodi:type="inkscape:persp3d" />
  </defs>
  <sodipodi:namedview
     id="base"
     pagecolor="#ffffff"
     bordercolor="#666666"
     borderopacity="1.0"
     inkscape:pageopacity="0.0"
     inkscape:pageshadow="2"
     inkscape:zoom="11.38"
     inkscape:cx="-12.394596"
     inkscape:cy="14.217455"
     inkscape:document-units="px"
     inkscape:current-layer="layer1"
     showgrid="false"
     fit-margin-top="2"
     fit-margin-left="0"
     fit-margin-right="0"
     fit-margin-bottom="2"
     inkscape:window-width="1552"
     inkscape:window-height="856"
     inkscape:window-x="166"
     inkscape:window-y="57"
     inkscape:window-maximized="0" />
  <metadata
     id="metadata7">
    <rdf:RDF>
      <cc:Work
         rdf:about="">
        <dc:format>image/svg+xml</dc:format>
        <dc:type
           rdf:resource="http://purl.org/dc/dcmitype/StillImage" />
        <dc:title></dc:title>
        <cc:license
           rdf:resource="http://creativecommons.org/publicdomain/zero/1.0/" />
      </cc:Work>
      <cc:License
         rdf:about="http://creativecommons.org/publicdomain/zero/1.0/">
        <cc:permits
           rdf:resource="http://creativecommons.org/ns#Reproduction" />
        <cc:permits
           rdf:resource="http://creativecommons.org/ns#Distribution" />
        <cc:permits
           rdf:resource="http://creativecommons.org/ns#DerivativeWorks" />
      </cc:License>
    </rdf:RDF>
  </metadata>
  <g
     inkscape:label="Layer 1"
     inkscape:groupmode="layer"
     id="layer1"
     transform="translate(-281.21566,-347.59392)">
    <g
       id="g5299"
       transform="translate(-1.574696,2)">
      <path
         id="path5216"
         style="fill:#ffffff;fill-opacity:1"
         d="M 314.6175,373.66209 299.90795,348.2379 c -0.23054,-0.39843 -0.65655,-0.64398 -1.11762,-0.64398 -0.46112,0 -0.88713,0.24555 -1.11766,0.64398 l -14.70945,25.42419 c -0.23048,0.39842 -0.23048,0.88942 0,1.28795 0.23054,0.39843 0.6566,0.64388 1.11767,0.64388 l 29.41894,0 c 0.46107,0 0.88719,-0.24545 1.11767,-0.64388 0.23053,-0.39853 0.23043,-0.88953 0,-1.28795 z"
         inkscape:connector-curvature="0" />
      <path
         inkscape:connector-curvature="0"
         d="m 313.6283,373.30203 -13.7902,-23.88518 c -0.21613,-0.37432 -0.61551,-0.605 -1.04776,-0.605 -0.43231,0 -0.83169,0.23068 -1.04782,0.605 l -13.7901,23.88518 c -0.21608,0.3743 -0.21608,0.83558 0,1.20999 0.21612,0.37431 0.61556,0.6049 1.04781,0.6049 l 27.58026,0 c 0.43225,0 0.83174,-0.23059 1.04781,-0.6049 0.21613,-0.37441 0.21603,-0.83569 0,-1.20999 z"
         style="fill:#000000;fill-opacity:1;stroke:none"
         id="path5218" />
      <polygon
         points="93.977,482.877 533.902,482.877 313.938,101.892 93.977,482.877 "
         style="fill:#ffffff"
         id="polygon5220"
         transform="matrix(0.05228164,0,0,0.05228164,282.37708,347.40687)" />
      <g
         transform="translate(2.0573518,-12.196837)"
         id="g5267">
        <path
           sodipodi:nodetypes="czc"
           inkscape:connector-curvature="0"
           id="path5244"
           d="m 297.39976,382.95895 c 1.6972,-0.78471 1.2263,-3.08274 3.25184,-3.08274 2.02554,0 2.30794,2.45443 3.85402,3.16345"
           style="fill:none;stroke:#000000;stroke-width:0.75;stroke-linecap:butt;stroke-linejoin:miter;stroke-miterlimit:4;stroke-opacity:1;stroke-dasharray:none" />
        <path
           style="fill:none;stroke:#000000;stroke-width:0.75;stroke-linecap:butt;stroke-linejoin:miter;stroke-miterlimit:4;stroke-opacity:1;stroke-dasharray:none"
           d="m 288.96039,382.95895 c 1.6972,-0.78471 1.2263,-3.08274 3.25184,-3.08274 2.02554,0 2.30794,2.45443 3.85402,3.16345"
           id="path5250"
           inkscape:connector-curvature="0"
           sodipodi:nodetypes="czc" />
      </g>
      <path
         sodipodi:nodetypes="czc"
         inkscape:connector-curvature="0"
         id="path5263"
         d="m 295.23743,365.69864 c 1.6972,-0.78471 1.2263,-3.08274 3.25184,-3.08274 2.02554,0 2.30794,2.45443 3.85402,3.16345"
         style="fill:none;stroke:#000000;stroke-width:0.75;stroke-linecap:butt;stroke-linejoin:miter;stroke-miterlimit:4;stroke-opacity:1;stroke-dasharray:none" />
    </g>
  </g>
</svg>
