<?xml version="1.0" encoding="UTF-8" standalone="no"?>
<!-- Created with Inkscape (http://www.inkscape.org/) -->

<svg
   xmlns:dc="http://purl.org/dc/elements/1.1/"
   xmlns:cc="http://creativecommons.org/ns#"
   xmlns:rdf="http://www.w3.org/1999/02/22-rdf-syntax-ns#"
   xmlns:svg="http://www.w3.org/2000/svg"
   xmlns="http://www.w3.org/2000/svg"
   xmlns:sodipodi="http://sodipodi.sourceforge.net/DTD/sodipodi-0.dtd"
   xmlns:inkscape="http://www.inkscape.org/namespaces/inkscape"
   id="svg2"
   version="1.1"
   inkscape:version="0.92.4 (5da689c313, 2019-01-14)"
   width="20"
   height="20"
   sodipodi:docname="nordic_unknown_20.svg"
   inkscape:export-filename="/home/yves/Images/nordic.png"
   inkscape:export-xdpi="90"
   inkscape:export-ydpi="90"
   viewBox="0 0 18.750001 18.750001">
  <sodipodi:namedview
     pagecolor="#ffffff"
     bordercolor="#666666"
     borderopacity="1"
     objecttolerance="10"
     gridtolerance="10"
     guidetolerance="10"
     inkscape:pageopacity="0"
     inkscape:pageshadow="2"
     inkscape:window-width="1216"
     inkscape:window-height="1016"
     id="namedview4"
     showgrid="false"
     inkscape:zoom="6.104736"
     inkscape:cx="-6.657955"
     inkscape:cy="4.5497916"
     inkscape:window-x="477"
     inkscape:window-y="27"
     inkscape:window-maximized="0"
     inkscape:current-layer="svg2"
     showborder="true"
     inkscape:showpageshadow="true"
     fit-margin-top="0"
     fit-margin-left="0"
     fit-margin-right="0"
     fit-margin-bottom="0" />
  <metadata
     id="metadata8">
    <rdf:RDF>
      <cc:Work
         rdf:about="">
        <dc:format>image/svg+xml</dc:format>
        <dc:type
           rdf:resource="http://purl.org/dc/dcmitype/StillImage" />
        <dc:title></dc:title>
        <cc:license
           rdf:resource="http://creativecommons.org/publicdomain/zero/1.0/" />
      </cc:Work>
      <cc:License
         rdf:about="http://creativecommons.org/publicdomain/zero/1.0/">
        <cc:permits
           rdf:resource="http://creativecommons.org/ns#Reproduction" />
        <cc:permits
           rdf:resource="http://creativecommons.org/ns#Distribution" />
        <cc:permits
           rdf:resource="http://creativecommons.org/ns#DerivativeWorks" />
      </cc:License>
    </rdf:RDF>
  </metadata>
  <defs
     id="defs6">
    <inkscape:perspective
       id="perspective10"
       inkscape:persp3d-origin="0.50000003 : 0.33333335 : 1"
       inkscape:vp_z="1 : 0.50000003 : 1"
       inkscape:vp_y="0 : 1000 : 0"
       inkscape:vp_x="0 : 0.50000003 : 1"
       sodipodi:type="inkscape:persp3d" />
    <inkscape:perspective
       sodipodi:type="inkscape:persp3d"
       inkscape:vp_x="0 : 0.50000003 : 1"
       inkscape:vp_y="0 : 1000 : 0"
       inkscape:vp_z="1 : 0.50000003 : 1"
       inkscape:persp3d-origin="0.50000003 : 0.33333335 : 1"
       id="perspective2861" />
    <inkscape:perspective
       sodipodi:type="inkscape:persp3d"
       inkscape:vp_x="0 : 0.50000003 : 1"
       inkscape:vp_y="0 : 1000 : 0"
       inkscape:vp_z="1 : 0.50000003 : 1"
       inkscape:persp3d-origin="0.50000003 : 0.33333335 : 1"
       id="perspective2862" />
    <inkscape:perspective
       sodipodi:type="inkscape:persp3d"
       inkscape:vp_x="0 : 0.50000003 : 1"
       inkscape:vp_y="0 : 1000 : 0"
       inkscape:vp_z="1 : 0.50000003 : 1"
       inkscape:persp3d-origin="0.50000003 : 0.33333335 : 1"
       id="perspective10-7" />
  </defs>
  <flowRoot
     transform="translate(53.132195,-1021.5261)"
     style="font-style:normal;font-weight:normal;line-height:0.01%;font-family:'Bitstream Vera Sans';fill:#000000;fill-opacity:1;stroke:none"
     id="flowRoot2875"
     xml:space="preserve"><flowRegion
       id="flowRegion2877"><rect
         y="170.88774"
         x="3100"
         height="41.666668"
         width="458.33334"
         id="rect2879" /></flowRegion><flowPara
       id="flowPara2881"
       style="font-size:40px;line-height:1.25"> </flowPara></flowRoot>  <flowRoot
     transform="translate(53.132195,-1021.5261)"
     style="font-style:normal;font-weight:normal;line-height:0.01%;font-family:'Bitstream Vera Sans';fill:#000000;fill-opacity:1;stroke:none"
     id="flowRoot2834"
     xml:space="preserve"><flowRegion
       id="flowRegion2836"><rect
         y="-1188.2031"
         x="1227.2727"
         height="1268.3285"
         width="5749.7559"
         id="rect2838" /></flowRegion><flowPara
       style="font-style:normal;font-variant:normal;font-weight:normal;font-stretch:normal;font-size:500px;line-height:1.25;font-family:'DejaVu Sans';-inkscape-font-specification:'DejaVu Sans'"
       id="flowPara2840"> </flowPara></flowRoot>  <g
     aria-label="s"
     style="font-style:normal;font-weight:normal;font-size:24.99999809px;line-height:1.25;font-family:sans-serif;letter-spacing:0px;word-spacing:0px;fill:#000000;fill-opacity:1;stroke:none;stroke-width:1.20605457"
     id="text1459"
     transform="matrix(0.7773281,0,0,0.7773281,-684.3598,-1083.5139)">
    <path
       d="m 891.33758,1396.709 q -0.39062,0.098 -0.78125,-0.8789 -0.29296,-1.0742 0.0977,-1.1719 0.48828,-0.1953 0.78125,0.8789 0.39063,0.9766 -0.0977,1.1719 z m -2.83203,0.6836 q -0.68359,-0.7813 -0.29297,-1.0742 0.39063,-0.3907 1.07422,0.4882 0.6836,0.7813 0.29297,1.1719 -0.39062,0.293 -1.07422,-0.5859 z m 6.44532,-0.586 q 0.68359,-0.8789 1.07421,-0.4882 0.39063,0.2929 -0.29296,1.0742 -0.6836,0.8789 -1.07422,0.5859 -0.39063,-0.3906 0.29297,-1.1719 z m -2.2461,-1.3671 q 0.39063,-0.9766 0.87891,-0.7813 0.39062,0.098 0.0977,1.1719 -0.39062,0.9765 -0.8789,0.7812 -0.39063,-0.098 -0.0977,-1.1718 z m 9.96094,5.664 h -1.46484 v -0.1953 q 0,-0.293 0.0977,-0.5859 0.19531,-0.293 0.58594,-0.6836 l 0.29297,-0.1953 q 0.19531,-0.1954 0.29297,-0.3907 0.0976,-0.1953 0.0976,-0.2929 0,-0.098 0,-0.098 0,-0.1953 -0.19531,-0.3906 -0.19531,-0.1953 -0.39062,-0.1953 -0.0977,0 -0.19532,0 0,0 -0.58593,0.1953 -0.78125,0.098 -0.78125,0.3906 v -1.2695 q 0,0 0.8789,-0.1953 0.29297,-0.098 0.78125,-0.098 0.97656,0 1.46484,0.3906 0.39063,0.3907 0.48829,1.1719 0,0 0,0.098 0,0.2929 -0.19532,0.4882 -0.0977,0.293 -0.48828,0.6836 l -0.29297,0.293 q -0.29297,0.293 -0.29297,0.293 -0.0977,0.1953 -0.0977,0.3906 z m -1.46484,0.586 h 1.46484 v 1.3671 h -1.46484 z m -11.71875,4.7851 q 0.39062,-4.4922 0.48828,-4.8828 0.29297,-1.0742 1.46484,-1.0742 1.17188,0 1.17188,0.5859 v 1.3672 h 1.17187 l 0.78125,-0.7812 0.78125,-0.098 0.29297,0.6836 -0.19531,0.1953 4.29687,9.4727 -0.19531,0.098 -4.29688,-9.2773 q -0.78125,0.7812 -0.97656,0.7812 h -1.75781 v 1.4649 h 1.5625 q 0,0.098 0.0977,0.098 0.0977,0 0.19531,0.1953 0.0977,0.3907 0.0977,0.4883 -0.19531,0.4883 -0.39062,0.4883 -0.29297,0 -0.29297,-0.098 l -0.19531,1.8555 q 1.07422,1.4649 1.26953,1.5625 v 4.2969 l 0.87891,0.098 0.29296,0.7813 h 7.61719 q 0.0977,0 0.87891,-0.4883 -0.29297,0.8789 -0.6836,0.8789 l -6.34765,0.1953 v 0.098 q 0,0.7812 -0.87891,0.9765 -0.39062,0.098 -4.10156,0.098 l -0.0977,0.8789 h -0.29297 l 0.0977,-0.8789 h -11.8164 v -0.3906 h 6.73828 l -0.97657,-1.3672 3.90625,-3.418 v -3.2226 q -0.58593,-0.1953 -0.58593,-0.4883 z m 2.92968,-0.3906 -0.19531,0.293 q 0.58594,0.6835 1.07422,1.2695 l 0.19531,-1.4649 z m -0.39062,2.2461 q -0.0977,3.4179 -0.29297,3.5156 l -3.41797,2.4414 0.39063,0.6836 h 3.71093 l 0.6836,-5.3711 z m 1.26953,1.5625 -0.58594,5.0781 h 0.19531 0.29297 l -0.0976,-0.293 0.48828,-4.3945 z m 4.10156,5.4687 q -2.34375,0 -4.78515,0.098 v 0.5859 h 1.66015 q 3.02735,0 3.125,-0.6836 z m -5.07812,0.098 v 0.5859 q -1.66016,0 -4.49219,0.098 l 0.29297,-0.6836 h 1.26953 z m 0,-15.0391 q -1.5625,0 -1.5625,-1.5625 0,-1.6601 1.5625,-1.6601 1.5625,0 1.5625,1.6601 0,1.5625 -1.5625,1.5625 z"
       style="font-style:normal;font-variant:normal;font-weight:normal;font-stretch:normal;font-family:Ski;-inkscape-font-specification:Ski;stroke-width:1.20605457"
       id="path1461"
       inkscape:connector-curvature="0" />
  </g>
</svg>
