<?xml version="1.0" encoding="UTF-8" standalone="no"?>
<svg
   xmlns:dc="http://purl.org/dc/elements/1.1/"
   xmlns:cc="http://creativecommons.org/ns#"
   xmlns:rdf="http://www.w3.org/1999/02/22-rdf-syntax-ns#"
   xmlns:svg="http://www.w3.org/2000/svg"
   xmlns="http://www.w3.org/2000/svg"
   xmlns:sodipodi="http://sodipodi.sourceforge.net/DTD/sodipodi-0.dtd"
   xmlns:inkscape="http://www.inkscape.org/namespaces/inkscape"
   id="svg15449"
   version="1.1"
   inkscape:version="0.48.3.1 r9886"
   width="800"
   height="190"
   xml:space="preserve"
   sodipodi:docname="opensnowmap_title.svg"
   inkscape:export-filename="/home/yves/OPENSNOWMAP/www.git/dev.opensnowmap.org/pics/opensnowmap_blog_header.png"
   inkscape:export-xdpi="90"
   inkscape:export-ydpi="90"><metadata
     id="metadata12"><rdf:RDF><cc:Work
         rdf:about=""><dc:format>image/svg+xml</dc:format><dc:type
           rdf:resource="http://purl.org/dc/dcmitype/StillImage" /><dc:title></dc:title><cc:license
           rdf:resource="http://creativecommons.org/licenses/by-nc-sa/4.0/" /><dc:creator><cc:Agent><dc:title>opensnowmap.org</dc:title></cc:Agent></dc:creator></cc:Work><cc:License
         rdf:about="http://creativecommons.org/licenses/by-nc-sa/4.0/"><cc:permits
           rdf:resource="http://creativecommons.org/ns#Reproduction" /><cc:permits
           rdf:resource="http://creativecommons.org/ns#Distribution" /><cc:requires
           rdf:resource="http://creativecommons.org/ns#Notice" /><cc:requires
           rdf:resource="http://creativecommons.org/ns#Attribution" /><cc:prohibits
           rdf:resource="http://creativecommons.org/ns#CommercialUse" /><cc:permits
           rdf:resource="http://creativecommons.org/ns#DerivativeWorks" /><cc:requires
           rdf:resource="http://creativecommons.org/ns#ShareAlike" /></cc:License></rdf:RDF></metadata><defs
     id="defs15453"><clipPath
       clipPathUnits="userSpaceOnUse"
       id="clipPath15465"><path
         d="m 0,0 2622.77,0 0,1666 L 0,1666 0,0 z"
         id="path15467"
         inkscape:connector-curvature="0" /></clipPath><inkscape:perspective
       sodipodi:type="inkscape:persp3d"
       inkscape:vp_x="0 : 0.5 : 1"
       inkscape:vp_y="0 : 1000 : 0"
       inkscape:vp_z="1 : 0.5 : 1"
       inkscape:persp3d-origin="0.5 : 0.33333333 : 1"
       id="perspective10" /><inkscape:perspective
       id="perspective2861"
       inkscape:persp3d-origin="0.5 : 0.33333333 : 1"
       inkscape:vp_z="1 : 0.5 : 1"
       inkscape:vp_y="0 : 1000 : 0"
       inkscape:vp_x="0 : 0.5 : 1"
       sodipodi:type="inkscape:persp3d" /><inkscape:perspective
       id="perspective2862"
       inkscape:persp3d-origin="0.5 : 0.33333333 : 1"
       inkscape:vp_z="1 : 0.5 : 1"
       inkscape:vp_y="0 : 1000 : 0"
       inkscape:vp_x="0 : 0.5 : 1"
       sodipodi:type="inkscape:persp3d" /></defs><sodipodi:namedview
     pagecolor="#ffffff"
     bordercolor="#666666"
     borderopacity="1"
     objecttolerance="10"
     gridtolerance="10"
     guidetolerance="10"
     inkscape:pageopacity="0"
     inkscape:pageshadow="2"
     inkscape:window-width="1307"
     inkscape:window-height="804"
     id="namedview15451"
     showgrid="false"
     inkscape:zoom="1.4675"
     inkscape:cx="400"
     inkscape:cy="95"
     inkscape:window-x="157"
     inkscape:window-y="134"
     inkscape:window-maximized="0"
     inkscape:current-layer="g15457"
     fit-margin-top="0"
     fit-margin-left="0.8"
     fit-margin-right="0"
     fit-margin-bottom="0" /><g
     id="g15457"
     inkscape:groupmode="layer"
     inkscape:label="skier-vector-clipart-3"
     transform="matrix(1.25,0,0,-1.25,1096.3967,-567.07149)"><g
   id="g3786"
   transform="matrix(0.13804391,0,0,-0.13790319,-1002.9655,-459.41119)"
   inkscape:export-filename="/home/yves/Bureau/nordic_path_80x50.png"
   inkscape:export-xdpi="4.292058"
   inkscape:export-ydpi="4.292058"><path
     inkscape:connector-curvature="0"
     id="path2818"
     d="m 1349.195,638.06232 c -0.55,-0.18651 -9.775,-3.10709 -20.5,-6.49018 -10.725,-3.3831 -25.575,-8.12555 -33,-10.5388 -13.4272,-4.36402 -32.8546,-9.8834 -82.5,-23.43836 -14.3,-3.90442 -28.025,-7.70465 -30.5001,-8.44497 -2.475,-0.74032 -8.775,-2.52785 -14,-3.97229 -5.225,-1.44445 -26.6,-7.36341 -47.5,-13.15326 -48.5487,-13.44927 -69.329,-19.13192 -72.6293,-19.86146 -3.918,-0.86608 -12.3377,-8.9383 -14.8108,-14.19962 -2.8248,-6.00957 -2.4683,-10.77566 0.8409,-11.24337 1.8781,-0.26544 3.7401,1.09536 8.5516,6.25 3.383,3.62412 6.635,6.58931 7.2268,6.58931 0.5918,0 1.6361,0.675 2.3208,1.5 0.6847,0.825 1.8515,1.5 2.5928,1.5 0.7414,0 3.7238,1.084 6.6276,2.40889 5.5092,2.51362 12.1322,4.53756 24.7796,7.57238 4.125,0.98982 9.975,2.52968 13,3.42191 3.025,0.89223 7.075,1.89067 9,2.21875 1.925,0.32807 8,1.87453 13.5,3.43656 5.5,1.56203 15.4,3.99748 22,5.4121 6.6,1.41462 13.35,2.97455 15,3.46652 8.0929,2.41297 10.1881,2.27565 13.8108,-0.90515 1.8993,-1.66758 4.1698,-3.03196 5.0455,-3.03196 1.7364,0 4.9775,-5.3329 3.8975,-6.41288 -0.3665,-0.36655 0.2848,-0.9152 1.4475,-1.21924 3.306,-0.86455 3.5703,-4.0303 0.4357,-5.21816 -4.9163,-1.86294 -12.6033,-4.07814 -22.637,-6.52335 -5.5,-1.34035 -15.175,-3.84774 -21.5,-5.57197 -20.2351,-5.51621 -46.0761,-12.13696 -61,-15.62887 -7.975,-1.866 -19.225,-4.49963 -25,-5.85251 -5.775,-1.35287 -17.025,-3.68505 -25,-5.18261 -9.657,-1.81342 -15.4806,-3.41881 -17.436,-4.80662 -5.7315,-4.06775 -13.46524,-14.18954 -13.53277,-17.71135 -0.0435,-2.26593 2.51377,-4.15164 4.69237,-3.46019 1.0007,0.31762 3.2209,1.8173 4.9337,3.33262 11.4085,10.09288 15.5249,12.37843 25.8427,14.34877 4.95,0.94528 13.05,2.63813 18,3.7619 4.95,1.12377 13.95,2.7761 20,3.67183 6.05,0.89574 13.475,2.28749 16.5,3.09279 3.025,0.80529 9.1,1.88395 13.5,2.39701 4.4,0.51306 11.9805,1.92325 16.8456,3.13376 8.7888,2.18678 8.8687,2.18854 12.4487,0.27499 1.9817,-1.05925 4.9168,-3.12028 6.5223,-4.58006 1.8085,-1.64423 4.6529,-2.91411 7.4754,-3.33738 3.6195,-0.54277 5.4476,-1.6004 8.8916,-5.14396 3.5756,-3.67908 4.1584,-4.79122 3.3259,-6.34688 -0.5552,-1.03739 -1.0095,-3.48428 -1.0095,-5.43755 0,-1.95326 -0.5332,-5.54488 -1.1848,-7.98137 -1.1375,-4.25274 -1.0197,-4.77101 2.9432,-12.95344 5.0349,-10.39586 5.4795,-16.67688 1.6438,-23.22202 -1.3212,-2.25444 -2.4022,-5.2959 -2.4022,-6.7588 0,-1.46291 -1.5211,-4.79837 -3.3803,-7.41215 -6.5885,-9.26261 -7.8875,-12.86806 -7.2656,-20.16559 0.3087,-3.62269 0.9281,-8.61172 1.3764,-11.08672 0.8184,-4.51892 -0.7292,-16.24849 -2.6108,-19.7877 -0.7345,-1.38139 -3.9921,-9.98566 -8.7885,-23.2123 -0.2991,-0.825 -0.9234,-4.425 -1.3873,-8 -0.4639,-3.575 -1.568,-10.55 -2.4537,-15.5 -0.8856,-4.95 -1.994,-12.6 -2.463,-17 -0.469,-4.4 -1.6104,-12.5 -2.5364,-18 -0.926,-5.5 -1.8189,-11.8 -1.9842,-14 -0.1653,-2.2 -0.6287,-5.89392 -1.0297,-8.20871 -0.6629,-3.82657 -1.1036,-4.33153 -4.853,-5.5614 -3.8574,-1.26527 -4.2646,-1.76878 -6.3008,-7.79129 -1.1973,-3.54123 -2.2257,-8.0136 -2.2854,-9.9386 -0.06,-1.925 -0.7517,-4.625 -1.5377,-6 -0.786,-1.375 -1.4451,-3.91152 -1.4645,-5.6367 -0.019,-1.72519 -1.1643,-6.90019 -2.544,-11.5 -3.8429,-12.81209 -10.5509,-45.34662 -11.3119,-54.8633 l -0.6796,-8.5 -3,-0.33849 c -1.65,-0.18616 -3.4989,-0.75097 -4.1086,-1.25512 -0.7106,-0.5875 -2.078,-0.15413 -3.8084,1.20696 -2.4385,1.91817 -4.8172,2.79009 -12.583,4.61247 -1.375,0.32266 -4.2457,1.68376 -6.3794,3.02467 -2.1337,1.3409 -6.4087,2.80374 -9.5,3.25075 -3.0913,0.44701 -7.7125,1.53196 -10.2692,2.41099 -6.5707,2.25907 -12.8028,2.94923 -19.3004,2.1374 -4.7783,-0.59701 -6.4528,-1.42449 -11.329,-5.59863 -3.1471,-2.69395 -6.172,-5.41789 -6.722,-6.05321 -4.2393,-4.89697 -11.55832,-11.31908 -14.24051,-12.49546 -2.07765,-0.91123 -3.76602,-2.67891 -4.70485,-4.92585 -1.37869,-3.29966 -3.97343,-5.39101 -5.18519,-4.17924 -1.32405,1.32404 -4.31202,21.0766 -9.40943,62.20276 -0.47719,3.85 -1.80845,13.75 -2.95836,22 -1.14991,8.25 -2.5383,18.825 -3.08531,23.5 -0.54701,4.675 -1.45043,11.65 -2.00759,15.5 -0.55717,3.85 -1.41739,10.375 -1.91161,14.5 -0.49422,4.125 -2.92799,23.7 -5.40838,43.5 -4.29246,34.2651 -5.04866,40.6839 -7.53987,64 -1.38631,12.97485 -2.89675,25.36891 -4.08259,33.5 -0.52137,3.575 -2.06996,17.075 -3.44129,30 -1.37133,12.925 -2.93673,26.875 -3.47865,31 -0.96209,7.32322 -1.83207,14.63802 -4.05071,34.05823 -1.35279,11.84132 -0.66027,14.12646 4.77453,15.75477 2.17903,0.65285 4.92216,1.187 6.09585,1.187 2.77777,0 2.83406,3.0817 0.0876,4.79689 -2.15787,1.34761 -14.07947,1.8614 -15.97714,0.68858 -0.61206,-0.37827 -0.81593,-1.42975 -0.45305,-2.33662 1.03643,-2.59008 2.3051,-12.93557 4.98478,-40.64885 0.79771,-8.25 1.91418,-19.275 2.48104,-24.5 0.56686,-5.225 1.68484,-15.8 2.4844,-23.5 2.64622,-25.48399 4.56511,-41.83248 6.57294,-56 1.09125,-7.7 3.53861,-26.6 5.43858,-42 7.90095,-64.04034 10.50089,-84.54519 11.98224,-94.5 0.85937,-5.775 2.90001,-21.075 4.53475,-34 1.63475,-12.925 3.17165,-25.075 3.41533,-27 0.24368,-1.925 1.17693,-8.45 2.07389,-14.5 0.89696,-6.05 1.64305,-14.03362 1.65796,-17.74137 0.0149,-3.70775 0.65707,-9.10775 1.42701,-12 0.76995,-2.89225 1.40524,-7.14317 1.41177,-9.44649 0.0108,-3.81526 -0.38336,-4.4717 -4.43024,-7.37795 -2.44316,-1.75454 -4.74331,-3.92001 -5.11144,-4.81214 -0.36813,-0.89213 -0.90665,-5.80654 -1.19671,-10.92092 -0.47867,-8.44019 -0.27791,-9.9347 2.17413,-16.18454 1.9286,-4.91568 3.88327,-7.92157 6.83209,-10.50638 3.7262,-3.26624 4.52772,-3.55919 8.18731,-2.9924 2.2312,0.34556 4.73685,0.81666 5.5681,1.04689 1.92756,0.53387 8.11773,10.82659 8.93925,14.86375 0.60263,2.96148 0.8566,3.09372 7.08717,3.69009 3.5542,0.3402 7.2663,0.95723 8.2492,1.37118 2.4659,1.03858 4.713,5.72935 4.713,9.83818 0,3.91049 1.1607,5.15487 5.7168,6.12879 1.7692,0.3782 4.8648,1.80601 6.8791,3.17293 3.697,2.50887 6.4041,2.55158 6.4041,0.10103 0,-0.73267 2.025,-2.31594 4.5,-3.51839 2.475,-1.20245 4.5,-2.63646 4.5,-3.18669 0,-0.55024 3.1018,-2.56246 6.8929,-4.47162 4.7917,-2.41306 7.56,-4.55072 9.0815,-7.01257 1.2038,-1.94776 2.7145,-3.54957 3.3572,-3.55958 1.0714,-0.0167 6.6704,-3.4655 12.5425,-7.72589 1.3058,-0.94737 4.4558,-2.55684 7,-3.5766 2.5443,-1.01977 5.3009,-2.26756 6.1259,-2.77288 1.3542,-0.82948 3.7908,-2.01234 10.8452,-5.26495 2.0723,-0.95549 2.2528,-1.491996 1.5515,-4.611386 -0.4365,-1.94155 -0.8792,-9.83009 -0.9838,-17.53009 -0.186,-13.69701 -0.1182,-14.18396 3.1331,-22.5 1.8277,-4.675 4.0206,-11.535152 4.873,-15.244779 2.3724,-10.324666 3.9959,-13.332915 10.5732,-19.59167 l 6.0683,-5.774434 -1.5795,-3.780314 c -3.3387,-7.9906768 2.8089,-15.0426438 14.1466,-16.2276658 5.4758,-0.572334 6.4254,-0.374414 10.205,2.126786 3.3157,2.19421204 4.1674,3.35725 4.1674,5.690703 0,1.61307 -0.4788,3.827443 -1.0639,4.920829 -0.8972,1.6763088 -0.466,2.5896558 2.75,5.8258378 5.8853,5.922266 10.3774,14.233889 12.4095,22.961209 1.009,4.333114 2.5744,9.839288 3.4787,12.235938 4.9519,13.12456 8.6689,22.55789 9.4935,24.09399 0.5127,0.95504 0.9322,3.00653 0.9322,4.55887 0,1.55234 0.5625,3.5243 1.25,4.38214 1.049,1.30896 17.1767,10.82256 18.3466,10.82256 0.2096,0 3.0437,2.025 6.2981,4.5 3.2544,2.474996 6.1943,4.499996 6.5331,4.499996 0.3388,0 4.5436,1.86234 9.344,4.13854 10.3366,4.90123 10.9692,5.17111 18.7282,7.9903 10.4661,3.80285 13.1478,6.20493 16.6019,14.87116 2.8743,7.21152 9.5084,19.43175 11.4026,21.00376 1.0246,0.85036 1.4955,3.13894 1.4955,7.26879 0,5.49781 0.4265,6.69573 4.852,13.62756 7.0674,11.0699 7.5214,12.10098 7.7488,17.59989 0.2597,6.28123 1.9774,16.27622 3.4529,20.09106 0.6187,1.59992 1.0858,5.98047 1.0378,9.73455 -0.071,5.575 0.3704,7.60656 2.4106,11.08786 1.3738,2.34423 2.5006,5.79771 2.504,7.67439 0,1.87668 0.6845,4.71284 1.5136,6.30259 1.23,2.35855 1.3313,4.2944 0.5507,10.51991 -0.5261,4.1962 -1.2379,8.36248 -1.5817,9.2584 -0.9332,2.43177 1.1262,3.12967 3.8904,1.31846 1.5781,-1.03399 2.6606,-1.23195 3.0745,-0.56222 0.9878,1.59829 -1.4106,5.30549 -3.0303,4.68394 -4.98,-1.91098 -7.7094,7.78849 -4.9678,17.65405 0.4327,1.55729 0.3423,3.30278 -0.2074,4 -0.5363,0.68035 -1.2803,3.23352 -1.6533,5.67369 -0.373,2.44018 -1.3809,5.91748 -2.2397,7.72733 -1.5118,3.18593 -1.4707,3.41386 1.2917,7.16253 1.5692,2.12953 7.3532,8.05373 12.8532,13.16488 23.6597,21.98701 33.0256,30.61473 69.0782,63.63407 20.943,19.18098 40.5526,37.12451 43.5768,39.87451 3.0242,2.75 11.314,10.39121 18.4218,16.98047 11.8,10.93921 16.6368,15.41426 24.3403,22.51953 1.4907,1.375 4.2567,3.83415 6.1467,5.46478 3.7816,3.26285 28.2879,26.05878 42.4505,39.4878 4.9579,4.70108 13.9579,13.08999 20,18.64202 24.8905,22.8716 26.7553,24.0403 32.6373,20.45424 7.321,-4.46335 7.7134,-1.59837 1.0984,8.01821 -2.7846,4.048 -5.3707,6.80396 -6.25,6.66049 -0.825,-0.13461 -2.0799,-2.07237 -2.7886,-4.30614 -1.6349,-5.15294 -9.5484,-13.37575 -31.6898,-32.92824 -9.3382,-8.24624 -19.2382,-17.06266 -22,-19.59204 -2.7619,-2.52938 -13.1216,-11.9306 -23.0216,-20.89158 -9.9,-8.96099 -18.45,-16.80844 -19,-17.43877 -0.55,-0.63034 -6.4,-6.0674 -13,-12.08237 -6.6,-6.01497 -15.15,-13.90167 -19,-17.52601 -13.1574,-12.38617 -24.0054,-22.46091 -35.4924,-32.96239 -6.3169,-5.775 -14.6403,-13.4823 -18.4965,-17.12733 -3.8561,-3.64503 -9.2399,-8.59503 -11.9639,-11 -2.724,-2.40497 -6.6008,-5.94767 -8.6151,-7.87267 -2.0143,-1.925 -6.5474,-6.2 -10.0737,-9.5 -3.5262,-3.3 -13.3744,-12.572 -21.8849,-20.60445 -31.9907,-30.19388 -35.4132,-32.5666 -40.4091,-28.01447 -3.2403,2.9525 -13.6287,4.36035 -18.7754,2.54449 -5.3034,-1.87115 -7.789,-4.11186 -7.789,-7.02154 0,-1.2573 -0.45,-2.56411 -1,-2.90403 -1.2931,-0.79918 -1.2836,-9.73202 0.018,-16.59378 0.7666,-4.04252 1.9567,-6.35862 4.823,-9.38649 7.0005,-7.39521 7.4412,-8.63873 6.6417,-18.74091 -0.5528,-6.9837 -1.1335,-9.35575 -2.5972,-10.60907 -2.2559,-1.93149 -2.4862,-6.00194 -0.3853,-6.80812 2.0067,-0.77008 2.0515,-7.936 0.054,-8.70238 -1.0352,-0.39725 -1.2879,-1.5271 -0.8898,-3.97986 0.3279,-2.02054 0.1005,-3.7065 -0.5544,-4.11128 -0.6106,-0.37738 -1.1102,-1.52926 -1.1102,-2.55974 0,-1.03048 -0.905,-2.16081 -2.011,-2.51185 -2.5408,-0.80641 -5.0491,-5.55072 -4.3494,-8.22649 0.2929,-1.12003 -0.178,-3.41047 -1.0465,-5.08987 -0.8684,-1.67941 -1.3068,-3.76271 -0.9742,-4.62955 0.3326,-0.86684 0.066,-2.22564 -0.5932,-3.01954 -0.6588,-0.7939 -0.8908,-1.94033 -0.5155,-2.54762 0.3753,-0.60729 0.158,-2.37009 -0.4829,-3.91733 -0.9664,-2.33329 -1.9465,-2.92026 -5.7454,-3.44095 -2.5191,-0.34528 -5.1684,-1.11594 -5.8873,-1.71257 -3.0235,-2.50929 -3.5757,0.0826 -2.8654,13.44863 0.4998,9.40443 1.197,14.13355 2.4529,16.63877 6.1253,12.2182 7.7433,24.20858 3.855,28.56852 -1.0146,1.13768 -1.8552,3.16268 -1.868,4.5 -0.013,1.33731 -0.072,3.55648 -0.1315,4.93148 -0.059,1.375 0.3643,4.74267 0.9417,7.48371 0.8219,3.90189 0.7383,5.85554 -0.3851,9 -0.7892,2.20896 -1.6792,7.84129 -1.9778,12.51629 -0.7407,11.59689 -1.101,12.89915 -3.9248,14.18577 -1.3493,0.61476 -2.723,1.96788 -3.0528,3.00693 -0.5377,1.69402 -2.9946,4.60293 -10.9312,12.94213 -1.3792,1.44915 -2.5076,3.72746 -2.5076,5.06291 0,1.39249 -1.2796,3.65393 -3,5.30226 -1.65,1.5808 -3,3.4043 -3,4.05223 0,0.64793 -0.8567,2.26708 -1.9037,3.59811 -1.0469,1.33103 -2.4191,4.33441 -3.0491,6.67418 -0.63,2.33977 -2.4618,6.48661 -4.0707,9.21521 -1.6088,2.72859 -3.6833,8.10231 -4.61,11.94158 l -1.6848,6.98051 2.5185,1.98107 c 2.5466,2.00317 4.6666,7.69271 5.2438,14.07309 0.1734,1.91621 0.9938,6.40902 1.8233,9.98402 0.8294,3.575 1.8011,8.57003 2.1592,11.10007 0.4666,3.29729 1.5124,5.42136 3.6924,7.5 9.2625,8.83177 19.285,28.34034 24.8162,48.3042 1.7378,6.27235 3.6237,12.27141 4.1909,13.33126 1.3197,2.46583 4.874,22.79314 4.874,27.87467 0,4.36099 -3.0639,13.19793 -5.515,15.90631 -1.3874,1.53303 -1.4659,2.63706 -0.5434,7.63778 0.5931,3.21514 2.2649,8.19324 3.7151,11.06245 2.3594,4.6682 2.5697,5.93728 1.9998,12.06938 l -0.6369,6.85264 10.2402,3.36711 c 5.6321,1.85191 10.9152,3.70341 11.7402,4.11443 1.451,0.72294 12.9701,4.28212 29.493,9.11283 9.1118,2.66396 10.2916,4.35096 5.026,7.18667 l -3.5344,1.90343 -30.7423,-8.54868 c -16.9083,-4.70178 -31.1923,-8.20039 -31.7423,-7.77469 -0.55,0.42571 -2.9439,1.09474 -5.3197,1.48674 -2.651,0.43741 -4.5406,1.35021 -4.8918,2.36306 -0.3146,0.90769 -2.4191,3.58029 -4.6766,5.93912 -3.389,3.54118 -3.8437,4.45367 -2.6082,5.23469 0.8229,0.52025 2.1776,0.9528 3.0104,0.96122 0.8327,0.008 3.9827,0.96704 7,2.13027 3.0172,1.16323 7.2859,2.63823 9.4859,3.27777 2.2,0.63955 4.9829,1.71281 6.1842,2.38504 1.2014,0.67223 2.6627,1.22223 3.2473,1.22223 0.5847,0 3.9204,1.35 7.4126,3 3.4923,1.65 7.0406,3 7.8853,3 0.8447,0 6.4261,1.96947 12.4032,4.3766 5.977,2.40714 16.4924,6.18928 23.3674,8.40477 6.875,2.21549 21.725,7.26613 33,11.22366 11.275,3.95752 21.2783,7.29121 22.2296,7.4082 0.9513,0.11698 2.0388,0.52186 2.4167,0.89973 0.3778,0.37787 1.737,0.68704 3.0203,0.68704 2.9979,0 2.9589,1.4654 -0.1212,4.54545 -2.3104,2.31042 -3.6887,2.75673 -6.0454,1.95755 z m -150.9581,-96.253 c 0.5626,-0.9625 1.1564,-4.4606 1.3195,-7.77355 0.2492,-5.06257 -0.036,-6.32459 -1.7886,-7.91053 -2.5266,-2.28655 -3.6595,-1.53062 -2.0929,1.39652 1.2881,2.40692 -0.3841,13.03756 -2.0508,13.03756 -0.511,0 -0.9291,0.675 -0.9291,1.5 0,2.10235 4.2796,1.9093 5.5419,-0.25 z"
     style="fill:#000000" /><path
     inkscape:connector-curvature="0"
     sodipodi:nodetypes="cczcscc"
     d="m 1381.5197,614.80136 c 0,0 188.5777,10.6773 424.0354,258.97642 C 1981.7568,1059.5887 2600,1048.7778 2600,1048.7778 c 0,0 5.5555,-61.11112 5.5555,-61.11112 0,0 -624.653,10.33394 -763.8888,-130.55557 -247.5214,-250.46134 -450,-255.55555 -450,-255.55555 l -10.206,12.98377"
     style="fill:#000000;fill-opacity:1;stroke:#000000;stroke-width:11.59642696;stroke-linecap:butt;stroke-linejoin:miter;stroke-miterlimit:4;stroke-opacity:1;stroke-dasharray:none;marker-start:none"
     id="path3778" /></g><flowRoot
   xml:space="preserve"
   id="flowRoot2875"
   style="font-size:40px;font-style:normal;font-weight:normal;fill:#000000;fill-opacity:1;stroke:none;font-family:Bitstream Vera Sans"
   transform="matrix(0.8,0,0,-0.8,-931.61737,527.88456)"><flowRegion
     id="flowRegion2877"><rect
       id="rect2879"
       width="458.33334"
       height="41.666668"
       x="3100"
       y="170.88774" /></flowRegion><flowPara
     id="flowPara2881" /></flowRoot><flowRoot
   xml:space="preserve"
   id="flowRoot2834"
   style="font-size:40px;font-style:normal;font-weight:normal;fill:#000000;fill-opacity:1;stroke:none;font-family:Bitstream Vera Sans"
   transform="matrix(0.8,0,0,-0.8,-931.61737,527.88456)"><flowRegion
     id="flowRegion2836"><rect
       id="rect2838"
       width="5749.7559"
       height="1268.3285"
       x="1227.2727"
       y="-1188.2031" /></flowRegion><flowPara
     id="flowPara2840"
     style="font-size:500px;font-style:normal;font-variant:normal;font-weight:normal;font-stretch:normal;font-family:DejaVu Sans;-inkscape-font-specification:DejaVu Sans" /></flowRoot><g
   clip-path="url(#clipPath15465)"
   id="g3056"
   transform="matrix(-0.03821966,0,0,0.03817999,-645.42503,-594.11494)"
   style="stroke:#000000;stroke-width:6.28275204"><path
     style="fill:#000000;fill-opacity:1;fill-rule:nonzero;stroke:#000000;stroke-width:1.88482559"
     d="m 739.53125,-839.4375 c -4.5657,0 -9.1271,1.30675 -14.375,4.09375 -3.9819,2.115 -28.752,20.431 -29.8125,22.375 -1.16475,2.1375 -17.12681,14.30798 -20.8125,40.15625 -5.06485,-3.65812 -23.33998,-13.50663 -27.09375,-13.71875 -0.0136,0 -0.67819,0.0544 -0.78125,0.0625 -13.23575,-3.36643 -32.29528,-2.03357 -37.6875,-2.15625 -6.49932,-0.78495 -10.83513,-1.10639 -15.375,-1.15625 -1.51329,-0.0166 -3.03714,-0.007 -4.6875,0.0313 -0.1383,0 -0.29745,0.0103 -0.46875,0.0313 -4.8222,0.615 -15.8976,4.53375 -26.625,8.34375 -7.9428,2.82 -15.4351,5.47575 -20.5,6.84375 -23.2704,6.291 -40.8965,12.4645 -41.9375,14.6875 -0.018,0.036 -0.0475,0.0639 -0.0625,0.0937 -7.7162,3.54506 -15.4228,9.075 -22.9375,12.125 -5.028,1.962 -8.7385,6.855 -11.6875,15.375 -2.715,7.845 -5.803,26.77075 -6.625,33.34375 -0.64331,5.16612 -0.14825,21.31918 0.6875,30.5625 -0.79842,7.75556 3.8649,30.3835 0.3125,31.5625 -3.92358,2.37885 -6.58752,6.48539 -8.5,10.40625 -27.86724,-7.87348 -142.73865,-39.74428 -200.25,-46.625 -65.74343,-7.86561 -188.375,5.8125 -188.375,5.8125 l -2.59375,-14.1875 -1.28125,14.84375 -22.59375,4.5 21.9375,-1.28125 c 0,0 -0.763856,11.7969 3.25,11.625 3.497616,-0.14979 1.9375,-10.34375 1.9375,-10.34375 0,0 122.30584,-13.74974 187.09375,-5.8125 59.96652,7.34657 180.52421,42.17662 198.34375,47.375 -0.042,0.10927 -0.0842,0.23755 -0.125,0.34375 -1.13198,2.71867 -1.98485,5.76975 -2.375,8.28125 -1.57045,1.70179 -3.12793,3.16637 -4.0625,3.46875 -2.14718,1.44684 -5.041,3.6105 -6.5625,5.03125 -5.34018,6.45531 -15.14207,11.05081 -19.9375,16.1875 -3.147,3.444 -9.6815,9.8226 -13.4375,13.125 -8.32302,5.08641 -10.25518,13.99487 -19.75,13.6875 -9.11302,1.7362 -12.23282,1.78654 -19.34375,2.625 -7.11093,0.83846 -15.42958,-0.49019 -22.125,-0.5 -6.12,0 -9.85375,0.11045 -14.21875,0.78125 -4.365,0.6708 -12.46556,3.28505 -19.125,3.96875 -13.78651,1.41542 -31.49556,5.54516 -42.8125,7.46875 -11.31694,1.92359 -23.6324,3.39833 -31.28125,4.40625 -7.64885,1.00792 -14.34536,2.73303 -21.625,4.75 -2.57752,0.71415 -4.15236,0.93216 -5.25,1.03125 -2.12746,0.006 -26.78696,0.17881 -38.9375,4.375 -12.69042,4.38265 -20.55977,17.43248 -34.53125,21.4375 -13.76655,3.94627 -32.12803,-0.76962 -49.59375,7.1875 -0.01735,0.008 -0.04516,-0.008 -0.0625,0 -1.105582,0.26681 -1.428759,0.75634 -0.84375,1.46875 0.313173,0.38137 0.900991,0.83095 1.71875,1.34375 -9.027756,-2.49994 -18.097442,-5.02943 -27.1875,-7.5 0.42657,3.58527 3.66339,11.57177 6,21.28125 2.886,1.0887 137.47475,50.56595 142.34375,51.59375 5.193,1.0911 12.28725,2.58245 23.15625,5.46875 7.062,1.875 13.63325,2.84375 19.53125,2.84375 8.373,0 13.187,-1.87915 15.5,-2.78125 5.50504,-2.15048 9.72305,-4.41151 12.5,-6.6875 1.5802,0.45647 3.25776,0.9382 4.375,1.25 38.721,8.6379 180.18975,52.37383 240.84375,76.75 15.6819,6.30234 27.19015,7.625 34.09375,7.625 9.04502,-0.041 17.04176,-1.84063 23.09375,-11.96875 1.146,-2.66016 0.0811,-10.5133 -2.9375,-16.375 -13.6653,-9.6117 -32.3399,-12.49045 -47.375,-14.78125 -5.9547,-0.9072 -11.60725,-1.7666 -16.28125,-2.9375 -7.93499,-1.9809 -34.02905,-10.38292 -61.6875,-19.28125 -1.07781,-1.8528 -4.24094,-8.05746 0,-10.71875 6.71756,-6.49219 38.99824,-16.03586 49.28125,-14.8125 5.38155,-2.01892 14.95279,-12.18118 34.5625,-15.25 12.94882,-3.40041 27.67598,-5.61498 39.53125,-7.53125 15.54375,-3.50534 31.44591,-6.98468 46,-12.0625 10.2189,-3.771 25.23365,-11.40185 29.28125,-15.59375 0.8532,-0.8847 1.6226,-1.65985 2.375,-2.40625 2.9004,-2.8875 5.3854,-5.37115 11.6875,-13.65625 4.9137,-6.4605 6.1899,-14.5145 3.75,-23.9375 l -0.0625,-0.25 c -0.26313,-5.24287 0.16797,-9.46733 -1.34375,-16 -0.61898,-2.10109 -1.42172,-3.8634 -2.28125,-5.5 2.61701,-2.6886 7.4596,-6.95432 8.15625,-7.625 2.7759,-2.9109 4.56105,-4.32325 6.65625,-5.96875 9.4103,-7.94131 20.51339,-16.3678 29.46875,-22.96875 4.41792,-3.79264 8.58683,-7.16024 12.28125,-9.0625 1.79846,0.24087 7.66589,5.39607 9.96875,6.28125 0.008,0.003 0.0231,-0.003 0.0313,0 0.19698,0.91341 0.78837,2.1219 1.3125,3.15625 2.09888,4.14827 1.48201,4.94985 5.5,13.78125 6.8733,17.72598 15.96168,35.8042 26.96875,63.75 3.13702,5.63761 5.13881,13.86912 7.65625,21.625 1.45514,3.54728 1.08797,14.86286 2.03125,24.28125 1.083,4.4601 1.104,8.5701 1.125,12.5625 0.009,1.81642 0.0395,3.5489 0.15625,5.25 -1.51329,3.84677 -3.08501,29.73407 -4.1875,30.0625 -2.7714,0.8322 -3.58904,5.17978 -8.25,8.75 -1.22403,1.76202 -2.38493,4.12152 -3.28125,6.78125 l 0.375,-3.46875 c 0,0 -30.11234,-14.62011 -40.6875,-5.90625 -13.75018,11.33005 -2.53125,53.375 -2.53125,53.375 0,0 -10.00539,1.1428 -11.4375,5.5 -1.43211,4.3572 0.44634,9.56489 4.25,11.4375 5.7528,2.83221 11.63484,-0.0196 13.96875,-5.0625 2.33392,-5.04295 -2.53125,-9.34375 -2.53125,-9.34375 0,0 -10.32573,-40.80182 3.375,-50.84375 9.00137,-6.59754 31.33852,6.44611 34.1875,8.15625 -0.5422,2.66702 -0.77559,5.48847 -0.46875,8.25 0.2436,2.1963 0.3686,4.46155 0.5,6.71875 0.3351,5.7657 0.64005,11.23125 2.71875,13.59375 0.3963,0.4476 0.7919,0.91444 1.25,1.46875 4.52021,4.4027 4.6348,4.68383 8.40625,6.59375 1.1355,0.4617 2.85175,0.75 4.65625,0.75 1.11,0 2.1096,-0.10391 2.8125,-0.3125 2.00603,-2.29733 3.94895,0.42901 8.3125,0.625 3.90116,-0.0624 8.67792,-0.83227 13.09375,-0.125 1.9758,0 3.72303,-0.37657 5.4375,-1.1875 5.50782,-2.60859 16.35468,-10.5685 16.875,-15.25 0.41484,-3.7314 0.22744,-10.1758 0.0937,-14.875 -0.0562,-1.9452 -0.0937,-3.65425 -0.0937,-4.84375 0,-2.6427 -3.99843,-25.0379 -5.34375,-25.625 1.01887,-9.53657 3.14802,-10.95305 3.1875,-15.71875 10.28102,-29.11768 6.80743,-59.62474 5.46875,-71.375 0.25118,-9.16398 -1.39196,-8.52414 -7.15625,-19.375 -1.23216,-3.76737 -5.67662,-11.70343 -6.03125,-18.1875 -3.71367,-11.0835 -7.53436,-22.5383 -7.5625,-26.75 -2.74812,-5.20556 -1.97055,-14.28722 -5.3125,-20.375 l -0.0625,-0.375 c -2.38249,-14.62167 -7.63705,-28.14012 -6.65625,-42.3125 -3.49458,-11.94015 -13.02612,-25.08226 -18.46875,-37.84375 -0.0267,0.0236 -0.0661,0.0693 -0.0937,0.0937 -0.98579,-1.9572 -4.89625,-9.18998 -7.25,-12.09375 -3.06064,-3.7766 -12.80976,-12.50231 -15.875,-15.21875 0.5318,-0.15504 1.04208,-0.31676 1.34375,-0.5625 C 766.53406,-721.46763 766.16332,-708.65383 775,-724 c 4.31851,-7.4997 7.65778,-13.94456 6.6875,-21.5 0.8157,-2.694 6.8157,-14.68275 7.3125,-19.59375 0.1443,-1.413 0.37715,-2.93025 0.59375,-4.40625 1.1907,-8.145 2.8149,-19.3015 -5.25,-30.8125 l -0.59375,-0.875 c -9.8565,-14.067 -21.01875,-30.0045 -30.65625,-34.6875 -4.9863,-2.424 -9.3052,-3.5625 -13.5625,-3.5625 z M 565.625,-717.8125 c 1.39704,-0.0625 2.83611,0.10392 4.34375,0.40625 -2.93685,0.63318 -5.2854,1.60665 -7.0625,3.53125 -4.22737,7.81134 -2.81309,10.15742 -5.125,14.78125 -3.21854,3.29901 -5.95624,7.17164 -8.21875,10.53125 -3.84729,2.15246 -13.87815,7.97594 -16.9375,19.25 -3.41636,5.11125 -6.63838,5.4216 -12.15625,8.0625 -4.34637,6.19713 -7.875,6.8125 -7.875,6.8125 0,0 -3.22838,-2.12069 -5.84375,-7.9375 -0.18777,-1.53551 -0.42398,-2.89663 -0.71875,-3.90625 0.159,-0.909 0.3555,-2.07425 0.5625,-3.40625 0.357,-2.337 0.78275,-5.2465 1.34375,-8.3125 1.13351,-6.17608 10.00424,-20.63349 13.875,-27.875 0.11288,-0.0161 0.18848,-0.0104 0.3125,-0.0313 0.888,-0.147 2.37075,-0.3375 4.21875,-0.5625 9.06,-1.095 27.9202,-3.38675 32.3125,-8.46875 2.40609,-2.00691 4.64035,-2.77089 6.96875,-2.875 z m -86.15625,199.5 c 1.05518,0.0912 3.90506,9.25693 6.28125,13.1875 -0.99624,0.95855 -1.74142,1.71128 -2.28125,2.28125 -5.5765,0.92788 -9.42741,4.72112 -14.875,5.25 -3.069,0.2367 -19.96875,8.875 -19.96875,8.875 -31.49957,0.18633 -109.4013,31.96334 -124.59375,34.90625 -0.82361,0.15954 -1.05943,0.4502 -0.8125,0.84375 -29.0188,-7.78483 -58.02048,-15.47734 -91.03125,-24.03125 l -9.15625,-1.78125 c 5.41751,-1.44753 11.64619,-3.04306 17.09375,-3.875 5.583,-0.8532 11.98625,-2.1996 17.65625,-3.375 5.145,-1.0698 9.58975,-1.97965 12.71875,-2.40625 1.635,-0.2214 2.8965,-0.34375 3.9375,-0.34375 0.966,0 1.7085,0.1044 2.4375,0.1875 1.47,0.1629 3.231,0.3347 7.5,0.125 4.656,-0.2274 6.994,-0.9016 9.25,-1.5625 2.085,-0.6117 4.2465,-1.24415 8.0625,-1.53125 3.975,-0.3012 9.065,-1.18645 14,-2.03125 4.608,-0.7887 8.95825,-1.5363 11.78125,-1.6875 6.456,-0.3375 14.3065,-1.831 15.8125,-2.125 1.407,-0.279 2.913,-0.3125 4.875,-0.3125 l 2.28125,0 c 2.01,0 4.4475,-0.0609 7.3125,-0.375 3.897,-0.4206 6.869,-0.5254 9.5,-0.625 2.01,-0.0738 3.7395,-0.125 5.4375,-0.3125 2.082,-0.246 4.76975,0.3218 7.34375,0.875 2.01,0.4323 3.563,0.71875 4.625,0.71875 0.504,0 0.699,-0.07 0.75,-0.0937 0.801,-0.3783 1.8455,-0.5625 3.3125,-0.5625 1.122,0 2.37275,0.11675 3.59375,0.21875 1.302,0.1077 2.98875,0.23575 4.21875,0.15625 1.653,-0.1125 3.06725,-0.0609 4.90625,0 1.689,0.0552 3.558,0.1149 6,0 3.264,-0.1476 6.42775,-1.4052 10.46875,-3 1.59,-0.6294 3.407,-1.33405 5.375,-2.03125 5.979,-2.1198 17.25,-8.5625 17.25,-8.5625 -0.30291,0 2.32519,-2.18754 5.125,-1.71875 0,0 27.40975,-1.8327 33.71875,-5.25 0.0302,-0.0164 0.0597,-0.0342 0.0937,-0.0313 z"
     id="path3160"
     transform="matrix(-3.3333333,0,0,-3.3333333,2752.0455,-1131.7019)"
     inkscape:connector-curvature="0" /><path
     style="fill:#000000;fill-opacity:1;fill-rule:nonzero;stroke:#000000;stroke-width:6.28275204"
     d="m 214.801,235.289 0,0 z"
     id="path3148"
     inkscape:connector-curvature="0" /></g><text
   xml:space="preserve"
   style="font-size:55.18941116px;font-style:normal;font-variant:normal;font-weight:200;font-stretch:normal;text-align:start;line-height:125%;letter-spacing:0px;word-spacing:0px;writing-mode:lr-tb;text-anchor:start;fill:#000000;fill-opacity:1;stroke:none;font-family:DejaVu Sans;-inkscape-font-specification:DejaVu Sans Ultra-Light"
   x="-798.29755"
   y="496.42426"
   id="text3001"
   sodipodi:linespacing="125%"
   transform="scale(1.0005101,-0.99949016)"><tspan
     sodipodi:role="line"
     id="tspan3003"
     x="-798.29755"
     y="496.42426"
     style="font-size:55.18941116px;font-style:normal;font-variant:normal;font-weight:200;font-stretch:normal;text-align:start;line-height:125%;writing-mode:lr-tb;text-anchor:start;font-family:DejaVu Sans;-inkscape-font-specification:DejaVu Sans Ultra-Light"
     dx="0 1.7246691 3.4493382 3.4493382 3.4493382 3.4493382 3.4493382 3.4493382 3.4493382 3.4493382 3.4493382 2.5870039 2.5870039 2.5870039 2.5870039">OpenSnowMap.org</tspan></text>

<flowRoot
   xml:space="preserve"
   id="flowRoot3013"
   style="font-size:40px;font-style:normal;font-weight:normal;line-height:125%;letter-spacing:0px;word-spacing:0px;fill:#000000;fill-opacity:1;stroke:none;font-family:Sans"><flowRegion
     id="flowRegion3015"><rect
       id="rect3017"
       width="1049.1526"
       height="327.11865"
       x="2400"
       y="528.81354" /></flowRegion><flowPara
     id="flowPara3019" /></flowRoot><text
   xml:space="preserve"
   style="font-size:40px;font-style:normal;font-weight:normal;line-height:125%;letter-spacing:0px;word-spacing:0px;fill:#000000;fill-opacity:1;stroke:none;font-family:Sans"
   x="2732.2034"
   y="740.67798"
   id="text3021"
   sodipodi:linespacing="125%"
   transform="matrix(0.8,0,0,-0.8,-907.61736,268.50778)"><tspan
     sodipodi:role="line"
     id="tspan3023"
     x="2732.2034"
     y="740.67798" /></text>

<flowRoot
   xml:space="preserve"
   id="flowRoot3025"
   style="font-size:40px;font-style:normal;font-weight:normal;line-height:125%;letter-spacing:0px;word-spacing:0px;fill:#000000;fill-opacity:1;stroke:none;font-family:Sans"
   transform="matrix(0.13224721,0.03954245,0.0395828,-0.1321124,-711.02036,-579.22411)"><flowRegion
     id="flowRegion3027"><rect
       id="rect3029"
       width="862.71185"
       height="296.61017"
       x="2425.4238"
       y="538.98303" /></flowRegion><flowPara
     id="flowPara3031"
     style="font-size:200px;font-style:normal;font-variant:normal;font-weight:bold;font-stretch:normal;font-family:DejaVu Sans;-inkscape-font-specification:DejaVu Sans Bold">BLOG</flowPara></flowRoot></g></svg>
