<?xml version="1.0" encoding="UTF-8" standalone="no"?>
<svg
   xmlns:dc="http://purl.org/dc/elements/1.1/"
   xmlns:cc="http://creativecommons.org/ns#"
   xmlns:rdf="http://www.w3.org/1999/02/22-rdf-syntax-ns#"
   xmlns:svg="http://www.w3.org/2000/svg"
   xmlns="http://www.w3.org/2000/svg"
   xmlns:sodipodi="http://sodipodi.sourceforge.net/DTD/sodipodi-0.dtd"
   xmlns:inkscape="http://www.inkscape.org/namespaces/inkscape"
   id="svg15449"
   version="1.1"
   inkscape:version="0.48.3.1 r9886"
   width="600"
   height="79.997643"
   xml:space="preserve"
   sodipodi:docname="opensnowmap_title_thin.svg"
   inkscape:export-filename="/home/yves/OPENSNOWMAP/www.git/dev.opensnowmap.org/pics/opensnowmap_title_thin.png"
   inkscape:export-xdpi="30.375895"
   inkscape:export-ydpi="30.375895"><metadata
     id="metadata12"><rdf:RDF><cc:Work
         rdf:about=""><dc:format>image/svg+xml</dc:format><dc:type
           rdf:resource="http://purl.org/dc/dcmitype/StillImage" /><dc:title></dc:title><cc:license
           rdf:resource="http://creativecommons.org/licenses/by-nc-sa/4.0/" /><dc:creator><cc:Agent><dc:title>opensnowmap.org</dc:title></cc:Agent></dc:creator></cc:Work><cc:License
         rdf:about="http://creativecommons.org/licenses/by-nc-sa/4.0/"><cc:permits
           rdf:resource="http://creativecommons.org/ns#Reproduction" /><cc:permits
           rdf:resource="http://creativecommons.org/ns#Distribution" /><cc:requires
           rdf:resource="http://creativecommons.org/ns#Notice" /><cc:requires
           rdf:resource="http://creativecommons.org/ns#Attribution" /><cc:prohibits
           rdf:resource="http://creativecommons.org/ns#CommercialUse" /><cc:permits
           rdf:resource="http://creativecommons.org/ns#DerivativeWorks" /><cc:requires
           rdf:resource="http://creativecommons.org/ns#ShareAlike" /></cc:License></rdf:RDF></metadata><defs
     id="defs15453"><clipPath
       clipPathUnits="userSpaceOnUse"
       id="clipPath15465"><path
         d="m 0,0 2622.77,0 0,1666 L 0,1666 0,0 z"
         id="path15467"
         inkscape:connector-curvature="0" /></clipPath><inkscape:perspective
       sodipodi:type="inkscape:persp3d"
       inkscape:vp_x="0 : 0.5 : 1"
       inkscape:vp_y="0 : 1000 : 0"
       inkscape:vp_z="1 : 0.5 : 1"
       inkscape:persp3d-origin="0.5 : 0.33333333 : 1"
       id="perspective10" /><inkscape:perspective
       id="perspective2861"
       inkscape:persp3d-origin="0.5 : 0.33333333 : 1"
       inkscape:vp_z="1 : 0.5 : 1"
       inkscape:vp_y="0 : 1000 : 0"
       inkscape:vp_x="0 : 0.5 : 1"
       sodipodi:type="inkscape:persp3d" /><inkscape:perspective
       id="perspective2862"
       inkscape:persp3d-origin="0.5 : 0.33333333 : 1"
       inkscape:vp_z="1 : 0.5 : 1"
       inkscape:vp_y="0 : 1000 : 0"
       inkscape:vp_x="0 : 0.5 : 1"
       sodipodi:type="inkscape:persp3d" /></defs><sodipodi:namedview
     pagecolor="#ffffff"
     bordercolor="#666666"
     borderopacity="1"
     objecttolerance="10"
     gridtolerance="10"
     guidetolerance="10"
     inkscape:pageopacity="0"
     inkscape:pageshadow="2"
     inkscape:window-width="1307"
     inkscape:window-height="804"
     id="namedview15451"
     showgrid="false"
     inkscape:zoom="0.9"
     inkscape:cx="399.91223"
     inkscape:cy="-193.80464"
     inkscape:window-x="239"
     inkscape:window-y="220"
     inkscape:window-maximized="0"
     inkscape:current-layer="g15457"
     fit-margin-top="5"
     fit-margin-left="5"
     fit-margin-right="5"
     fit-margin-bottom="5" /><g
     id="g15457"
     inkscape:groupmode="layer"
     inkscape:label="skier-vector-clipart-3"
     transform="matrix(1.25,0,0,-1.25,1096.3089,-566.04698)"><flowRoot
   xml:space="preserve"
   id="flowRoot2875"
   style="font-size:40px;font-style:normal;font-weight:normal;fill:#000000;fill-opacity:1;stroke:none;font-family:Bitstream Vera Sans"
   transform="matrix(0.8,0,0,-0.8,-931.61737,527.88456)"><flowRegion
     id="flowRegion2877"><rect
       id="rect2879"
       width="458.33334"
       height="41.666668"
       x="3100"
       y="170.88774" /></flowRegion><flowPara
     id="flowPara2881" /></flowRoot><flowRoot
   xml:space="preserve"
   id="flowRoot2834"
   style="font-size:40px;font-style:normal;font-weight:normal;fill:#000000;fill-opacity:1;stroke:none;font-family:Bitstream Vera Sans"
   transform="matrix(0.8,0,0,-0.8,-931.61737,527.88456)"><flowRegion
     id="flowRegion2836"><rect
       id="rect2838"
       width="5749.7559"
       height="1268.3285"
       x="1227.2727"
       y="-1188.2031" /></flowRegion><flowPara
     id="flowPara2840"
     style="font-size:500px;font-style:normal;font-variant:normal;font-weight:normal;font-stretch:normal;font-family:DejaVu Sans;-inkscape-font-specification:DejaVu Sans" /></flowRoot><g
   id="g3048"
   transform="matrix(0.41109945,0,0,0.41527847,-518.15759,-263.58508)"><path
     inkscape:connector-curvature="0"
     id="path2818"
     d="m -808.67305,-548.74499 c -0.0715,0.0242 -1.27019,0.40333 -2.66382,0.84249 -1.39364,0.43916 -3.32329,1.05478 -4.28812,1.36804 -1.74476,0.5665 -4.26922,1.28297 -10.72028,3.04254 -1.85818,0.50684 -3.64164,1.00015 -3.96326,1.09625 -0.32161,0.0961 -1.14025,0.32814 -1.8192,0.51564 -0.67896,0.18751 -3.45648,0.95585 -6.17229,1.70743 -6.30855,1.74586 -9.0088,2.48352 -9.43765,2.57822 -0.50912,0.11243 -1.6032,1.16029 -1.92456,1.84326 -0.36706,0.78011 -0.32073,1.39879 0.10927,1.45951 0.24405,0.0344 0.486,-0.14219 1.11122,-0.81132 0.4396,-0.47045 0.86217,-0.85536 0.93907,-0.85536 0.0769,0 0.2126,-0.0876 0.30157,-0.19471 0.089,-0.1071 0.24059,-0.19472 0.33692,-0.19472 0.0963,0 0.48388,-0.14071 0.86121,-0.3127 0.71588,-0.32629 1.57649,-0.58902 3.21993,-0.98297 0.53601,-0.12849 1.29618,-0.32838 1.68925,-0.4442 0.39308,-0.11582 0.91935,-0.24543 1.16949,-0.28802 0.25014,-0.0426 1.03954,-0.24333 1.75423,-0.4461 0.71468,-0.20277 2.00112,-0.51891 2.85874,-0.70254 0.85762,-0.18364 1.73473,-0.38613 1.94914,-0.44999 1.05161,-0.31323 1.32387,-0.29541 1.79461,0.11749 0.2468,0.21647 0.54184,0.39358 0.65563,0.39358 0.22563,0 0.64679,0.69227 0.50645,0.83246 -0.0476,0.0476 0.037,0.1188 0.18809,0.15827 0.42959,0.11223 0.46394,0.52318 0.0566,0.67737 -0.63884,0.24183 -1.63771,0.52939 -2.94151,0.8468 -0.71469,0.17399 -1.97189,0.49948 -2.79377,0.7233 -2.62941,0.71606 -5.98726,1.5755 -7.92652,2.02879 -1.03629,0.24222 -2.49815,0.5841 -3.24856,0.75971 -0.75042,0.17562 -2.21228,0.47836 -3.24857,0.67276 -1.25486,0.2354 -2.0116,0.4438 -2.26569,0.62395 -0.74476,0.52804 -1.74971,1.84195 -1.75848,2.29912 -0.006,0.29414 0.32664,0.53892 0.60974,0.44916 0.13003,-0.0412 0.41853,-0.2359 0.6411,-0.4326 1.48245,-1.31016 2.01734,-1.60685 3.35807,-1.86262 0.64321,-0.12271 1.69575,-0.34246 2.33897,-0.48834 0.64321,-0.14587 1.8127,-0.36036 2.59885,-0.47664 0.78616,-0.11627 1.75098,-0.29694 2.14406,-0.40147 0.39308,-0.10454 1.18248,-0.24456 1.75423,-0.31116 0.57175,-0.0666 1.55678,-0.24966 2.18896,-0.40679 1.14204,-0.28387 1.15243,-0.2841 1.61762,-0.0357 0.25751,0.1375 0.6389,0.40504 0.84753,0.59454 0.235,0.21344 0.60461,0.37828 0.97137,0.43322 0.47033,0.0705 0.70788,0.20775 1.1554,0.66774 0.46462,0.47759 0.54035,0.62195 0.43218,0.82389 -0.0721,0.13467 -0.13118,0.4523 -0.13118,0.70585 0,0.25356 -0.0693,0.71979 -0.15396,1.03607 -0.14781,0.55205 -0.1325,0.61932 0.38245,1.68149 0.65425,1.34949 0.71202,2.16483 0.2136,3.01446 -0.17168,0.29265 -0.31215,0.68746 -0.31215,0.87736 0,0.1899 -0.19765,0.62288 -0.43924,0.96217 -0.85613,1.20238 -1.02493,1.67041 -0.94412,2.6177 0.0401,0.47027 0.1206,1.11789 0.17886,1.43917 0.10634,0.58661 -0.0948,2.10923 -0.33926,2.56865 -0.0954,0.17932 -0.51874,1.29624 -1.142,3.0132 -0.0389,0.10709 -0.11999,0.57441 -0.18027,1.03848 -0.0603,0.46407 -0.20375,1.3695 -0.31884,2.01206 -0.11508,0.64256 -0.25911,1.63561 -0.32005,2.20678 -0.0609,0.57116 -0.20926,1.62262 -0.32959,2.33658 -0.12032,0.71396 -0.23635,1.53176 -0.25783,1.81735 -0.0215,0.28558 -0.0817,0.76509 -0.1338,1.06557 -0.0861,0.49673 -0.1434,0.56228 -0.63061,0.72193 -0.50124,0.16424 -0.55416,0.2296 -0.81875,1.01139 -0.15558,0.45969 -0.28921,1.04025 -0.29697,1.29013 -0.008,0.24989 -0.0977,0.60037 -0.19981,0.77886 -0.10214,0.17849 -0.18778,0.50776 -0.1903,0.7317 -0.002,0.22395 -0.15129,0.89572 -0.33058,1.49282 -0.49935,1.66314 -1.37101,5.88646 -1.4699,7.12183 l -0.0883,1.10338 -0.38983,0.0439 c -0.21441,0.0242 -0.45466,0.0975 -0.53389,0.16293 -0.0923,0.0763 -0.27002,0.02 -0.49487,-0.15668 -0.31687,-0.24899 -0.62596,-0.36218 -1.63507,-0.59874 -0.17867,-0.0419 -0.5517,-0.21857 -0.82896,-0.39263 -0.27726,-0.17407 -0.83276,-0.36396 -1.23445,-0.42199 -0.4017,-0.058 -1.00219,-0.19886 -1.33441,-0.31297 -0.85382,-0.29325 -1.66363,-0.38284 -2.50795,-0.27745 -0.62091,0.0775 -0.83849,0.18491 -1.47212,0.72676 -0.40894,0.3497 -0.80201,0.70329 -0.87348,0.78577 -0.55086,0.63567 -1.50192,1.46933 -1.85045,1.62204 -0.26997,0.11828 -0.48937,0.34775 -0.61136,0.63942 -0.17915,0.42833 -0.51632,0.69981 -0.67378,0.54251 -0.17205,-0.17187 -0.56031,-2.73596 -1.22269,-8.07456 -0.062,-0.49977 -0.23499,-1.78489 -0.38441,-2.85583 -0.14943,-1.07093 -0.32984,-2.44368 -0.40092,-3.05054 -0.0711,-0.60686 -0.18847,-1.51229 -0.26087,-2.01206 -0.0724,-0.49977 -0.18418,-1.34678 -0.2484,-1.88225 -0.0642,-0.53547 -0.38047,-3.0765 -0.70278,-5.64675 -0.55777,-4.44796 -0.65604,-5.28119 -0.97975,-8.30786 -0.18014,-1.68427 -0.37641,-3.29315 -0.5305,-4.34864 -0.0677,-0.46408 -0.26898,-2.21652 -0.44717,-3.89431 -0.1782,-1.6778 -0.38161,-3.48866 -0.45203,-4.02412 -0.12502,-0.95063 -0.23806,-1.90017 -0.52636,-4.42111 -0.17579,-1.53713 -0.0858,-1.83376 0.62041,-2.04514 0.28315,-0.0847 0.6396,-0.15408 0.79212,-0.15408 0.36095,0 0.36826,-0.40004 0.0114,-0.62269 -0.2804,-0.17493 -1.82953,-0.24163 -2.07611,-0.0894 -0.0795,0.0491 -0.10603,0.1856 -0.0589,0.30332 0.13468,0.33622 0.29954,1.67917 0.64774,5.27664 0.10366,1.07093 0.24874,2.50209 0.32239,3.18035 0.0737,0.67826 0.21894,2.051 0.32283,3.05054 0.34386,3.30809 0.59321,5.43029 0.85411,7.26938 0.1418,0.99954 0.45982,3.45295 0.7067,5.45203 1.02668,8.3131 1.36452,10.97484 1.55701,12.26708 0.11167,0.74965 0.37684,2.73575 0.58926,4.41355 0.21242,1.6778 0.41213,3.25499 0.4438,3.50488 0.0317,0.24988 0.15293,1.0969 0.26948,1.88225 0.11656,0.78535 0.21351,1.82171 0.21544,2.30301 0.002,0.4813 0.0854,1.18228 0.18543,1.55772 0.10005,0.37545 0.1826,0.92726 0.18345,1.22626 10e-4,0.49526 -0.0498,0.58047 -0.57568,0.95773 -0.31747,0.22776 -0.61635,0.50886 -0.66419,0.62467 -0.0478,0.1158 -0.11781,0.75374 -0.1555,1.41764 -0.0622,1.09563 -0.0361,1.28963 0.28251,2.10092 0.25061,0.63811 0.5046,1.02831 0.88778,1.36384 0.48419,0.42399 0.58834,0.46202 1.06388,0.38845 0.28993,-0.0449 0.61552,-0.10602 0.72354,-0.1359 0.25047,-0.0693 1.05484,-1.40541 1.16159,-1.92947 0.0783,-0.38443 0.11131,-0.4016 0.92092,-0.47901 0.46185,-0.0442 0.94421,-0.12426 1.07193,-0.178 0.32042,-0.13481 0.61242,-0.74372 0.61242,-1.27709 0,-0.50762 0.15082,-0.66916 0.74285,-0.79558 0.2299,-0.0491 0.63215,-0.23444 0.89389,-0.41188 0.4804,-0.32568 0.83217,-0.33122 0.83217,-0.0131 0,0.0951 0.26313,0.30064 0.58474,0.45673 0.32161,0.15609 0.58475,0.34224 0.58475,0.41366 0,0.0714 0.40305,0.33264 0.89568,0.58046 0.62265,0.31324 0.98237,0.59073 1.18007,0.91031 0.15643,0.25284 0.35273,0.46077 0.43625,0.46207 0.13922,0.002 0.86677,0.44986 1.62981,1.0029 0.16967,0.12298 0.57899,0.3319 0.90959,0.46428 0.33062,0.13238 0.68882,0.29435 0.79602,0.35995 0.17597,0.10767 0.49259,0.26122 1.40926,0.68344 0.26928,0.12403 0.29273,0.19368 0.2016,0.59861 -0.0567,0.25203 -0.11424,1.27604 -0.12783,2.27558 -0.0242,1.77802 -0.0154,1.84123 0.40712,2.92074 0.2375,0.60686 0.52245,1.49738 0.63321,1.97893 0.30828,1.34024 0.51924,1.73075 1.37391,2.5432 l 0.78853,0.74958 -0.20524,0.49072 c -0.43384,1.03727 0.36499,1.95269 1.83825,2.10652 0.71154,0.0743 0.83493,0.0486 1.32606,-0.27608 0.43085,-0.28483 0.54153,-0.4358 0.54153,-0.73871 0,-0.20939 -0.0622,-0.49684 -0.13825,-0.63878 -0.11658,-0.2176 -0.0605,-0.33616 0.35734,-0.75625 0.76476,-0.76877 1.34847,-1.8477 1.61253,-2.9806 0.13111,-0.56248 0.33452,-1.27724 0.45203,-1.58835 0.64346,-1.70371 1.12646,-2.92825 1.23361,-3.12765 0.0666,-0.12397 0.12114,-0.39028 0.12114,-0.59179 0,-0.20151 0.0731,-0.45749 0.16242,-0.56885 0.13631,-0.16991 2.23199,-1.40488 2.38401,-1.40488 0.0272,0 0.39551,-0.26286 0.81839,-0.58414 0.42289,-0.32128 0.80491,-0.58415 0.84893,-0.58415 0.044,0 0.59041,-0.24175 1.21419,-0.53722 1.34317,-0.63623 1.42537,-0.67127 2.43359,-1.03723 1.36,-0.49365 1.70847,-0.80546 2.1573,-1.93043 0.3735,-0.93613 1.23555,-2.52244 1.48169,-2.7265 0.13314,-0.11039 0.19433,-0.40747 0.19433,-0.94357 0,-0.71367 0.0554,-0.86917 0.63048,-1.76899 0.91836,-1.43699 0.97735,-1.57084 1.0069,-2.28465 0.0338,-0.81537 0.25695,-2.11282 0.44868,-2.60803 0.0804,-0.20768 0.14109,-0.77632 0.13485,-1.26364 -0.009,-0.7237 0.0481,-0.98741 0.31324,-1.43932 0.17852,-0.30431 0.32494,-0.7526 0.32538,-0.99622 0,-0.24361 0.0889,-0.61177 0.19668,-0.81814 0.15983,-0.30616 0.17299,-0.55746 0.0716,-1.36559 -0.0684,-0.54471 -0.16086,-1.08554 -0.20553,-1.20184 -0.12126,-0.31567 0.14634,-0.40626 0.50553,-0.17115 0.20506,0.13423 0.34573,0.15992 0.39951,0.073 0.12836,-0.20748 -0.1833,-0.68871 -0.39377,-0.60803 -0.64711,0.24807 -1.00178,-1.01102 -0.64553,-2.29168 0.0562,-0.20215 0.0445,-0.42873 -0.027,-0.51924 -0.0697,-0.0883 -0.16636,-0.41974 -0.21483,-0.7365 -0.0485,-0.31676 -0.17944,-0.76815 -0.29103,-1.00309 -0.19645,-0.41356 -0.19111,-0.44315 0.16784,-0.92977 0.20391,-0.27643 0.9555,-1.04546 1.67018,-1.70894 3.07441,-2.85414 4.29144,-3.9741 8.97622,-8.26035 2.72139,-2.48989 5.26952,-4.81915 5.66249,-5.17613 0.39297,-0.35698 1.47017,-1.34888 2.39378,-2.20424 1.53332,-1.42002 2.16183,-2.00093 3.16285,-2.92326 0.1937,-0.17849 0.55312,-0.49772 0.79871,-0.70939 0.4914,-0.42355 3.67581,-3.3827 5.51614,-5.12592 0.64424,-0.61025 1.81373,-1.69922 2.59886,-2.41993 3.23434,-2.96897 3.47666,-3.12068 4.24098,-2.65517 0.95131,0.57939 1.0023,0.20748 0.14273,-1.04085 -0.36184,-0.52547 -0.69789,-0.88322 -0.81214,-0.8646 -0.10721,0.0175 -0.27027,0.26902 -0.36236,0.55898 -0.21245,0.66891 -1.24075,1.73631 -4.11786,4.27443 -1.21344,1.07045 -2.49987,2.21491 -2.85875,2.54325 -0.35888,0.32834 -1.70505,1.54871 -2.99149,2.71194 -1.28643,1.16323 -2.39744,2.18191 -2.46891,2.26373 -0.0715,0.0818 -0.83163,0.78761 -1.68926,1.56842 -0.85762,0.7808 -1.96863,1.80458 -2.46891,2.27506 -1.70971,1.60785 -3.11933,2.91565 -4.61198,4.27885 -0.82084,0.74966 -1.9024,1.75015 -2.40349,2.22331 -0.50107,0.47316 -1.20066,1.11572 -1.55462,1.42791 -0.35396,0.31219 -0.85773,0.77207 -1.11947,1.02196 -0.26174,0.24988 -0.85079,0.80482 -1.309,1.23319 -0.45821,0.42838 -1.73791,1.63198 -2.84379,2.67467 -4.15696,3.91948 -4.60169,4.22748 -5.25087,3.63657 -0.42105,-0.38326 -1.77095,-0.56602 -2.43973,-0.3303 -0.68914,0.24289 -1.01212,0.53376 -1.01212,0.91147 0,0.16321 -0.0585,0.33285 -0.12995,0.37697 -0.16802,0.10374 -0.16679,1.26332 0.002,2.15405 0.0996,0.52476 0.25426,0.82541 0.62672,1.21846 0.90966,0.95997 0.96693,1.12139 0.86304,2.43276 -0.0718,0.90656 -0.14729,1.21447 -0.33749,1.37717 -0.29314,0.25073 -0.32306,0.77911 -0.0501,0.88376 0.26076,0.1 0.26658,1.03018 0.007,1.12966 -0.13452,0.0516 -0.16735,0.19824 -0.11562,0.51663 0.0426,0.26229 0.0131,0.48114 -0.072,0.53369 -0.0793,0.049 -0.14426,0.19851 -0.14426,0.33228 0,0.13376 -0.1176,0.28049 -0.26132,0.32606 -0.33016,0.10468 -0.65609,0.72054 -0.56517,1.06788 0.0381,0.14539 -0.0231,0.44272 -0.13599,0.66072 -0.11284,0.21801 -0.16981,0.48844 -0.12659,0.60096 0.0432,0.11253 0.009,0.28892 -0.0771,0.39197 -0.0856,0.10306 -0.11575,0.25188 -0.067,0.33071 0.0488,0.0788 0.0205,0.30766 -0.0627,0.50851 -0.12558,0.30288 -0.25294,0.37908 -0.74658,0.44667 -0.32734,0.0448 -0.67159,0.14486 -0.76501,0.22231 -0.39288,0.32573 -0.46464,-0.0107 -0.37234,-1.74577 0.065,-1.22079 0.15554,-1.83468 0.31874,-2.15989 0.79594,-1.58604 1.00618,-3.14252 0.50093,-3.70848 -0.13184,-0.14769 -0.24107,-0.41055 -0.24274,-0.58415 -0.002,-0.1736 -0.009,-0.46167 -0.0171,-0.64016 -0.008,-0.17849 0.0473,-0.61565 0.12236,-0.97146 0.1068,-0.50651 0.0959,-0.76011 -0.05,-1.16829 -0.10255,-0.28675 -0.2182,-1.01788 -0.257,-1.62475 -0.0963,-1.50539 -0.14306,-1.67444 -0.51,-1.84146 -0.17533,-0.0798 -0.35383,-0.25545 -0.39669,-0.39033 -0.0699,-0.2199 -0.38912,-0.59751 -1.42043,-1.68002 -0.17921,-0.18811 -0.32584,-0.48386 -0.32584,-0.65722 0,-0.18076 -0.16628,-0.47432 -0.38983,-0.68829 -0.21441,-0.2052 -0.38983,-0.44191 -0.38983,-0.52602 0,-0.0841 -0.11132,-0.29429 -0.24737,-0.46707 -0.13604,-0.17278 -0.31435,-0.56265 -0.39621,-0.86638 -0.0819,-0.30372 -0.31989,-0.84202 -0.52896,-1.19623 -0.20905,-0.35419 -0.47862,-1.05176 -0.59903,-1.55014 l -0.21893,-0.90614 0.32726,-0.25716 c 0.33091,-0.26003 0.60639,-0.99859 0.68139,-1.82683 0.0225,-0.24875 0.12914,-0.83196 0.23693,-1.29603 0.10777,-0.46407 0.23404,-1.11248 0.28057,-1.44091 0.0606,-0.42802 0.19653,-0.70374 0.4798,-0.97357 1.2036,-1.14646 2.50595,-3.67887 3.22469,-6.27039 0.22581,-0.81421 0.47087,-1.59295 0.54458,-1.73053 0.17148,-0.32009 0.63334,-2.95879 0.63334,-3.61842 0,-0.5661 -0.39814,-1.71323 -0.71664,-2.06481 -0.18028,-0.199 -0.19048,-0.34231 -0.0706,-0.99146 0.0771,-0.41736 0.29431,-1.06356 0.48275,-1.43602 0.30659,-0.60598 0.33392,-0.77072 0.25986,-1.56673 l -0.0828,-0.88954 1.33064,-0.43709 c 0.73185,-0.24039 1.41835,-0.48074 1.52556,-0.53409 0.18854,-0.0938 1.68537,-0.55587 3.8324,-1.18294 1.18401,-0.34581 1.33732,-0.5648 0.65309,-0.93291 l -0.45927,-0.24708 -3.99474,1.10971 c -2.19711,0.61034 -4.05321,1.06449 -4.12468,1.00923 -0.0715,-0.0553 -0.38254,-0.14211 -0.69126,-0.19299 -0.34448,-0.0568 -0.59002,-0.17527 -0.63565,-0.30675 -0.0409,-0.11783 -0.31435,-0.46476 -0.60769,-0.77096 -0.44038,-0.45968 -0.49947,-0.57813 -0.33892,-0.67952 0.10693,-0.0675 0.28296,-0.12368 0.39118,-0.12477 0.1082,-0.001 0.51752,-0.12554 0.9096,-0.27654 0.39206,-0.15099 0.94675,-0.34247 1.23262,-0.42548 0.28588,-0.083 0.64749,-0.22234 0.80359,-0.30961 0.15612,-0.0873 0.346,-0.15865 0.42197,-0.15865 0.076,0 0.50943,-0.17525 0.96321,-0.38944 0.4538,-0.21418 0.91488,-0.38943 1.02464,-0.38943 0.10976,0 0.83503,-0.25565 1.61171,-0.56812 0.77666,-0.31248 2.14306,-0.80344 3.03642,-1.09103 0.89336,-0.28759 2.82301,-0.94322 4.28811,-1.45695 1.46511,-0.51372 2.76497,-0.94647 2.88858,-0.96166 0.12361,-0.0152 0.26493,-0.0677 0.31403,-0.11679 0.0491,-0.049 0.22571,-0.0892 0.39247,-0.0892 0.38955,0 0.38449,-0.19022 -0.0157,-0.59004 -0.30022,-0.29992 -0.47932,-0.35786 -0.78556,-0.25411 z m -19.61591,12.49463 c 0.0731,0.12494 0.15026,0.57903 0.17146,1.00909 0.0324,0.65717 -0.005,0.82099 -0.23242,1.02686 -0.32831,0.29682 -0.47553,0.19869 -0.27196,-0.18128 0.16738,-0.31244 -0.0499,-1.69241 -0.26648,-1.69241 -0.0664,0 -0.12073,-0.0876 -0.12073,-0.19471 0,-0.27291 0.5561,-0.24785 0.72013,0.0325 z"
     style="fill:#000000" /><path
     inkscape:connector-curvature="0"
     sodipodi:nodetypes="cczcscc"
     d="m -855.17116,-541.90946 c 0,0 24.50432,-1.38603 55.10035,-33.61781 22.89614,-24.12018 103.23238,-22.71681 103.23238,-22.71681 0,0 0.7219,7.93285 0.7219,7.93285 0,0 -81.16915,-1.34145 -99.26184,16.94746 -32.16362,32.51247 -58.47426,33.17375 -58.47426,33.17375 l -1.32619,-1.68543"
     style="fill:#000000;fill-opacity:1;stroke:#000000;stroke-width:3.87236953;stroke-linecap:butt;stroke-linejoin:miter;stroke-miterlimit:4;stroke-opacity:1;stroke-dasharray:none;marker-start:none"
     id="path3778" /><g
     style="stroke:#000000;stroke-width:16.15369415"
     transform="matrix(-0.03597673,0,0,0.03593939,-698.13151,-588.90055)"
     id="g3056"
     clip-path="url(#clipPath15465)"><path
       inkscape:connector-curvature="0"
       transform="matrix(-3.3333333,0,0,-3.3333333,2752.0455,-1131.7019)"
       id="path3160"
       d="m 739.53125,-839.4375 c -4.5657,0 -9.1271,1.30675 -14.375,4.09375 -3.9819,2.115 -28.752,20.431 -29.8125,22.375 -1.16475,2.1375 -17.12681,14.30798 -20.8125,40.15625 -5.06485,-3.65812 -23.33998,-13.50663 -27.09375,-13.71875 -0.0136,0 -0.67819,0.0544 -0.78125,0.0625 -13.23575,-3.36643 -32.29528,-2.03357 -37.6875,-2.15625 -6.49932,-0.78495 -10.83513,-1.10639 -15.375,-1.15625 -1.51329,-0.0166 -3.03714,-0.007 -4.6875,0.0313 -0.1383,0 -0.29745,0.0103 -0.46875,0.0313 -4.8222,0.615 -15.8976,4.53375 -26.625,8.34375 -7.9428,2.82 -15.4351,5.47575 -20.5,6.84375 -23.2704,6.291 -40.8965,12.4645 -41.9375,14.6875 -0.018,0.036 -0.0475,0.0639 -0.0625,0.0937 -7.7162,3.54506 -15.4228,9.075 -22.9375,12.125 -5.028,1.962 -8.7385,6.855 -11.6875,15.375 -2.715,7.845 -5.803,26.77075 -6.625,33.34375 -0.64331,5.16612 -0.14825,21.31918 0.6875,30.5625 -0.79842,7.75556 3.8649,30.3835 0.3125,31.5625 -3.92358,2.37885 -6.58752,6.48539 -8.5,10.40625 -27.86724,-7.87348 -142.73865,-39.74428 -200.25,-46.625 -65.74343,-7.86561 -188.375,5.8125 -188.375,5.8125 l -2.59375,-14.1875 -1.28125,14.84375 -22.59375,4.5 21.9375,-1.28125 c 0,0 -0.763856,11.7969 3.25,11.625 3.497616,-0.14979 1.9375,-10.34375 1.9375,-10.34375 0,0 122.30584,-13.74974 187.09375,-5.8125 59.96652,7.34657 180.52421,42.17662 198.34375,47.375 -0.042,0.10927 -0.0842,0.23755 -0.125,0.34375 -1.13198,2.71867 -1.98485,5.76975 -2.375,8.28125 -1.57045,1.70179 -3.12793,3.16637 -4.0625,3.46875 -2.14718,1.44684 -5.041,3.6105 -6.5625,5.03125 -5.34018,6.45531 -15.14207,11.05081 -19.9375,16.1875 -3.147,3.444 -9.6815,9.8226 -13.4375,13.125 -8.32302,5.08641 -10.25518,13.99487 -19.75,13.6875 -9.11302,1.7362 -12.23282,1.78654 -19.34375,2.625 -7.11093,0.83846 -15.42958,-0.49019 -22.125,-0.5 -6.12,0 -9.85375,0.11045 -14.21875,0.78125 -4.365,0.6708 -12.46556,3.28505 -19.125,3.96875 -13.78651,1.41542 -31.49556,5.54516 -42.8125,7.46875 -11.31694,1.92359 -23.6324,3.39833 -31.28125,4.40625 -7.64885,1.00792 -14.34536,2.73303 -21.625,4.75 -2.57752,0.71415 -4.15236,0.93216 -5.25,1.03125 -2.12746,0.006 -26.78696,0.17881 -38.9375,4.375 -12.69042,4.38265 -20.55977,17.43248 -34.53125,21.4375 -13.76655,3.94627 -32.12803,-0.76962 -49.59375,7.1875 -0.01735,0.008 -0.04516,-0.008 -0.0625,0 -1.105582,0.26681 -1.428759,0.75634 -0.84375,1.46875 0.313173,0.38137 0.900991,0.83095 1.71875,1.34375 -9.027756,-2.49994 -18.097442,-5.02943 -27.1875,-7.5 0.42657,3.58527 3.66339,11.57177 6,21.28125 2.886,1.0887 137.47475,50.56595 142.34375,51.59375 5.193,1.0911 12.28725,2.58245 23.15625,5.46875 7.062,1.875 13.63325,2.84375 19.53125,2.84375 8.373,0 13.187,-1.87915 15.5,-2.78125 5.50504,-2.15048 9.72305,-4.41151 12.5,-6.6875 1.5802,0.45647 3.25776,0.9382 4.375,1.25 38.721,8.6379 180.18975,52.37383 240.84375,76.75 15.6819,6.30234 27.19015,7.625 34.09375,7.625 9.04502,-0.041 17.04176,-1.84063 23.09375,-11.96875 1.146,-2.66016 0.0811,-10.5133 -2.9375,-16.375 -13.6653,-9.6117 -32.3399,-12.49045 -47.375,-14.78125 -5.9547,-0.9072 -11.60725,-1.7666 -16.28125,-2.9375 -7.93499,-1.9809 -34.02905,-10.38292 -61.6875,-19.28125 -1.07781,-1.8528 -4.24094,-8.05746 0,-10.71875 6.71756,-6.49219 38.99824,-16.03586 49.28125,-14.8125 5.38155,-2.01892 14.95279,-12.18118 34.5625,-15.25 12.94882,-3.40041 27.67598,-5.61498 39.53125,-7.53125 15.54375,-3.50534 31.44591,-6.98468 46,-12.0625 10.2189,-3.771 25.23365,-11.40185 29.28125,-15.59375 0.8532,-0.8847 1.6226,-1.65985 2.375,-2.40625 2.9004,-2.8875 5.3854,-5.37115 11.6875,-13.65625 4.9137,-6.4605 6.1899,-14.5145 3.75,-23.9375 l -0.0625,-0.25 c -0.26313,-5.24287 0.16797,-9.46733 -1.34375,-16 -0.61898,-2.10109 -1.42172,-3.8634 -2.28125,-5.5 2.61701,-2.6886 7.4596,-6.95432 8.15625,-7.625 2.7759,-2.9109 4.56105,-4.32325 6.65625,-5.96875 9.4103,-7.94131 20.51339,-16.3678 29.46875,-22.96875 4.41792,-3.79264 8.58683,-7.16024 12.28125,-9.0625 1.79846,0.24087 7.66589,5.39607 9.96875,6.28125 0.008,0.003 0.0231,-0.003 0.0313,0 0.19698,0.91341 0.78837,2.1219 1.3125,3.15625 2.09888,4.14827 1.48201,4.94985 5.5,13.78125 6.8733,17.72598 15.96168,35.8042 26.96875,63.75 3.13702,5.63761 5.13881,13.86912 7.65625,21.625 1.45514,3.54728 1.08797,14.86286 2.03125,24.28125 1.083,4.4601 1.104,8.5701 1.125,12.5625 0.009,1.81642 0.0395,3.5489 0.15625,5.25 -1.51329,3.84677 -3.08501,29.73407 -4.1875,30.0625 -2.7714,0.8322 -3.58904,5.17978 -8.25,8.75 -1.22403,1.76202 -2.38493,4.12152 -3.28125,6.78125 l 0.375,-3.46875 c 0,0 -30.11234,-14.62011 -40.6875,-5.90625 -13.75018,11.33005 -2.53125,53.375 -2.53125,53.375 0,0 -10.00539,1.1428 -11.4375,5.5 -1.43211,4.3572 0.44634,9.56489 4.25,11.4375 5.7528,2.83221 11.63484,-0.0196 13.96875,-5.0625 2.33392,-5.04295 -2.53125,-9.34375 -2.53125,-9.34375 0,0 -10.32573,-40.80182 3.375,-50.84375 9.00137,-6.59754 31.33852,6.44611 34.1875,8.15625 -0.5422,2.66702 -0.77559,5.48847 -0.46875,8.25 0.2436,2.1963 0.3686,4.46155 0.5,6.71875 0.3351,5.7657 0.64005,11.23125 2.71875,13.59375 0.3963,0.4476 0.7919,0.91444 1.25,1.46875 4.52021,4.4027 4.6348,4.68383 8.40625,6.59375 1.1355,0.4617 2.85175,0.75 4.65625,0.75 1.11,0 2.1096,-0.10391 2.8125,-0.3125 2.00603,-2.29733 3.94895,0.42901 8.3125,0.625 3.90116,-0.0624 8.67792,-0.83227 13.09375,-0.125 1.9758,0 3.72303,-0.37657 5.4375,-1.1875 5.50782,-2.60859 16.35468,-10.5685 16.875,-15.25 0.41484,-3.7314 0.22744,-10.1758 0.0937,-14.875 -0.0562,-1.9452 -0.0937,-3.65425 -0.0937,-4.84375 0,-2.6427 -3.99843,-25.0379 -5.34375,-25.625 1.01887,-9.53657 3.14802,-10.95305 3.1875,-15.71875 10.28102,-29.11768 6.80743,-59.62474 5.46875,-71.375 0.25118,-9.16398 -1.39196,-8.52414 -7.15625,-19.375 -1.23216,-3.76737 -5.67662,-11.70343 -6.03125,-18.1875 -3.71367,-11.0835 -7.53436,-22.5383 -7.5625,-26.75 -2.74812,-5.20556 -1.97055,-14.28722 -5.3125,-20.375 l -0.0625,-0.375 c -2.38249,-14.62167 -7.63705,-28.14012 -6.65625,-42.3125 -3.49458,-11.94015 -13.02612,-25.08226 -18.46875,-37.84375 -0.0267,0.0236 -0.0661,0.0693 -0.0937,0.0937 -0.98579,-1.9572 -4.89625,-9.18998 -7.25,-12.09375 -3.06064,-3.7766 -12.80976,-12.50231 -15.875,-15.21875 0.5318,-0.15504 1.04208,-0.31676 1.34375,-0.5625 C 766.53406,-721.46763 766.16332,-708.65383 775,-724 c 4.31851,-7.4997 7.65778,-13.94456 6.6875,-21.5 0.8157,-2.694 6.8157,-14.68275 7.3125,-19.59375 0.1443,-1.413 0.37715,-2.93025 0.59375,-4.40625 1.1907,-8.145 2.8149,-19.3015 -5.25,-30.8125 l -0.59375,-0.875 c -9.8565,-14.067 -21.01875,-30.0045 -30.65625,-34.6875 -4.9863,-2.424 -9.3052,-3.5625 -13.5625,-3.5625 z M 565.625,-717.8125 c 1.39704,-0.0625 2.83611,0.10392 4.34375,0.40625 -2.93685,0.63318 -5.2854,1.60665 -7.0625,3.53125 -4.22737,7.81134 -2.81309,10.15742 -5.125,14.78125 -3.21854,3.29901 -5.95624,7.17164 -8.21875,10.53125 -3.84729,2.15246 -13.87815,7.97594 -16.9375,19.25 -3.41636,5.11125 -6.63838,5.4216 -12.15625,8.0625 -4.34637,6.19713 -7.875,6.8125 -7.875,6.8125 0,0 -3.22838,-2.12069 -5.84375,-7.9375 -0.18777,-1.53551 -0.42398,-2.89663 -0.71875,-3.90625 0.159,-0.909 0.3555,-2.07425 0.5625,-3.40625 0.357,-2.337 0.78275,-5.2465 1.34375,-8.3125 1.13351,-6.17608 10.00424,-20.63349 13.875,-27.875 0.11288,-0.0161 0.18848,-0.0104 0.3125,-0.0313 0.888,-0.147 2.37075,-0.3375 4.21875,-0.5625 9.06,-1.095 27.9202,-3.38675 32.3125,-8.46875 2.40609,-2.00691 4.64035,-2.77089 6.96875,-2.875 z m -86.15625,199.5 c 1.05518,0.0912 3.90506,9.25693 6.28125,13.1875 -0.99624,0.95855 -1.74142,1.71128 -2.28125,2.28125 -5.5765,0.92788 -9.42741,4.72112 -14.875,5.25 -3.069,0.2367 -19.96875,8.875 -19.96875,8.875 -31.49957,0.18633 -109.4013,31.96334 -124.59375,34.90625 -0.82361,0.15954 -1.05943,0.4502 -0.8125,0.84375 -29.0188,-7.78483 -58.02048,-15.47734 -91.03125,-24.03125 l -9.15625,-1.78125 c 5.41751,-1.44753 11.64619,-3.04306 17.09375,-3.875 5.583,-0.8532 11.98625,-2.1996 17.65625,-3.375 5.145,-1.0698 9.58975,-1.97965 12.71875,-2.40625 1.635,-0.2214 2.8965,-0.34375 3.9375,-0.34375 0.966,0 1.7085,0.1044 2.4375,0.1875 1.47,0.1629 3.231,0.3347 7.5,0.125 4.656,-0.2274 6.994,-0.9016 9.25,-1.5625 2.085,-0.6117 4.2465,-1.24415 8.0625,-1.53125 3.975,-0.3012 9.065,-1.18645 14,-2.03125 4.608,-0.7887 8.95825,-1.5363 11.78125,-1.6875 6.456,-0.3375 14.3065,-1.831 15.8125,-2.125 1.407,-0.279 2.913,-0.3125 4.875,-0.3125 l 2.28125,0 c 2.01,0 4.4475,-0.0609 7.3125,-0.375 3.897,-0.4206 6.869,-0.5254 9.5,-0.625 2.01,-0.0738 3.7395,-0.125 5.4375,-0.3125 2.082,-0.246 4.76975,0.3218 7.34375,0.875 2.01,0.4323 3.563,0.71875 4.625,0.71875 0.504,0 0.699,-0.07 0.75,-0.0937 0.801,-0.3783 1.8455,-0.5625 3.3125,-0.5625 1.122,0 2.37275,0.11675 3.59375,0.21875 1.302,0.1077 2.98875,0.23575 4.21875,0.15625 1.653,-0.1125 3.06725,-0.0609 4.90625,0 1.689,0.0552 3.558,0.1149 6,0 3.264,-0.1476 6.42775,-1.4052 10.46875,-3 1.59,-0.6294 3.407,-1.33405 5.375,-2.03125 5.979,-2.1198 17.25,-8.5625 17.25,-8.5625 -0.30291,0 2.32519,-2.18754 5.125,-1.71875 0,0 27.40975,-1.8327 33.71875,-5.25 0.0302,-0.0164 0.0597,-0.0342 0.0937,-0.0313 z"
       style="fill:#000000;fill-opacity:1;fill-rule:nonzero;stroke:#000000;stroke-width:4.84610844" /><path
       inkscape:connector-curvature="0"
       id="path3148"
       d="m 214.801,235.289 0,0 z"
       style="fill:#000000;fill-opacity:1;fill-rule:nonzero;stroke:#000000;stroke-width:16.15369415" /></g></g><text
   xml:space="preserve"
   style="font-size:41.92542648px;font-style:normal;font-variant:normal;font-weight:200;font-stretch:normal;text-align:start;line-height:100%;letter-spacing:0px;word-spacing:0px;writing-mode:lr-tb;text-anchor:start;fill:#000000;fill-opacity:1;stroke:none;font-family:DejaVu Sans;-inkscape-font-specification:DejaVu Sans Ultra-Light"
   x="-801.42706"
   y="502.31635"
   id="text3001"
   sodipodi:linespacing="100%"
   transform="scale(0.99546318,-1.0045575)"><tspan
     sodipodi:role="line"
     id="tspan3003"
     x="-801.42706"
     y="502.31635"
     style="font-size:40.83036423px;font-style:normal;font-variant:normal;font-weight:200;font-stretch:normal;text-align:start;line-height:100%;letter-spacing:-1.37695575px;writing-mode:lr-tb;text-anchor:start;font-family:DejaVu Sans;-inkscape-font-specification:DejaVu Sans Ultra-Light"
     dx="0 1.3101696 2.6203392 2.6203392 2.6203392 2.6203392 2.6203392 2.6203392 2.6203392 2.6203392 2.6203392 1.9652547 1.9652547 1.9652547 1.9652547">OpenSnowMap.org</tspan></text>



<flowRoot
   xml:space="preserve"
   id="flowRoot3013"
   style="font-size:40px;font-style:normal;font-weight:normal;line-height:125%;letter-spacing:0px;word-spacing:0px;fill:#000000;fill-opacity:1;stroke:none;font-family:Sans"><flowRegion
     id="flowRegion3015"><rect
       id="rect3017"
       width="1049.1526"
       height="327.11865"
       x="2400"
       y="528.81354" /></flowRegion><flowPara
     id="flowPara3019" /></flowRoot><text
   xml:space="preserve"
   style="font-size:40px;font-style:normal;font-weight:normal;line-height:125%;letter-spacing:0px;word-spacing:0px;fill:#000000;fill-opacity:1;stroke:none;font-family:Sans"
   x="2732.2034"
   y="740.67798"
   id="text3021"
   sodipodi:linespacing="125%"
   transform="matrix(0.8,0,0,-0.8,-907.61736,268.50778)"><tspan
     sodipodi:role="line"
     id="tspan3023"
     x="2732.2034"
     y="740.67798" /></text>



</g></svg>
