<?xml version="1.0" encoding="UTF-8" standalone="no"?>
<!-- Created with Inkscape (http://www.inkscape.org/) -->

<svg
   xmlns:dc="http://purl.org/dc/elements/1.1/"
   xmlns:cc="http://creativecommons.org/ns#"
   xmlns:rdf="http://www.w3.org/1999/02/22-rdf-syntax-ns#"
   xmlns:svg="http://www.w3.org/2000/svg"
   xmlns="http://www.w3.org/2000/svg"
   xmlns:sodipodi="http://sodipodi.sourceforge.net/DTD/sodipodi-0.dtd"
   xmlns:inkscape="http://www.inkscape.org/namespaces/inkscape"
   width="53.354622"
   height="53.354622"
   viewBox="0 0 14.116744 14.116744"
   version="1.1"
   id="svg5509"
   sodipodi:docname="share.svg"
   inkscape:version="0.92.4 (5da689c313, 2019-01-14)">
  <defs
     id="defs5503" />
  <sodipodi:namedview
     id="base"
     pagecolor="#ffffff"
     bordercolor="#666666"
     borderopacity="1.0"
     inkscape:pageopacity="0.0"
     inkscape:pageshadow="2"
     inkscape:zoom="4.3941456"
     inkscape:cx="-16.923819"
     inkscape:cy="-20.605329"
     inkscape:document-units="mm"
     inkscape:current-layer="layer1"
     showgrid="false"
     fit-margin-top="0"
     fit-margin-left="0"
     fit-margin-right="0"
     fit-margin-bottom="0"
     units="px"
     inkscape:window-width="1870"
     inkscape:window-height="1016"
     inkscape:window-x="50"
     inkscape:window-y="27"
     inkscape:window-maximized="1"
     inkscape:snap-midpoints="true" />
  <metadata
     id="metadata5506">
    <rdf:RDF>
      <cc:Work
         rdf:about="">
        <dc:format>image/svg+xml</dc:format>
        <dc:type
           rdf:resource="http://purl.org/dc/dcmitype/StillImage" />
        <dc:title></dc:title>
        <cc:license
           rdf:resource="http://creativecommons.org/publicdomain/zero/1.0/" />
      </cc:Work>
      <cc:License
         rdf:about="http://creativecommons.org/publicdomain/zero/1.0/">
        <cc:permits
           rdf:resource="http://creativecommons.org/ns#Reproduction" />
        <cc:permits
           rdf:resource="http://creativecommons.org/ns#Distribution" />
        <cc:permits
           rdf:resource="http://creativecommons.org/ns#DerivativeWorks" />
      </cc:License>
    </rdf:RDF>
  </metadata>
  <g
     inkscape:label="Calque 1"
     inkscape:groupmode="layer"
     id="layer1"
     transform="translate(-98.589861,-370.35672)">
    <path
       inkscape:connector-curvature="0"
       d="m 108.64289,379.25892 c -0.45787,0 -0.89098,0.18562 -1.20035,0.47024 l -3.00706,-1.8562 c 0.0371,-0.1485 0.0743,-0.297 0.0743,-0.44549 0,-0.17325 -0.0371,-0.32175 -0.0743,-0.45787 l 3.00706,-1.84383 c 0.32174,0.27224 0.75486,0.44549 1.20035,0.44549 1.0271,0 1.86858,-0.82911 1.86858,-1.85621 0,-1.01473 -0.8291,-1.85621 -1.86858,-1.85621 -1.01473,0 -1.85621,0.82911 -1.85621,1.85621 0,0.1485 0.0124,0.30937 0.0743,0.43311 l -3.00706,1.86859 c -0.32174,-0.27225 -0.76723,-0.45787 -1.21272,-0.45787 -1.01472,0 -1.8562,0.82911 -1.8562,1.86859 0,1.01472 0.8291,1.83145 1.8562,1.83145 0.44549,0 0.89098,-0.16087 1.21272,-0.43311 l 3.00706,1.84383 c -0.0619,0.13612 -0.0743,0.28462 -0.0743,0.44549 0,1.01473 0.82911,1.85621 1.85621,1.85621 1.0271,0 1.86858,-0.82911 1.86858,-1.85621 0,-1.0271 -0.8291,-1.85621 -1.86858,-1.85621 z"
       id="path2"
       style="display:inline;fill:#000000;stroke:none;stroke-width:0.26458329;stroke-opacity:1" />
  </g>
</svg>
