<?xml version="1.0" encoding="UTF-8" standalone="no"?>
<!-- Created with Inkscape (http://www.inkscape.org/) -->

<svg
   xmlns:dc="http://purl.org/dc/elements/1.1/"
   xmlns:cc="http://creativecommons.org/ns#"
   xmlns:rdf="http://www.w3.org/1999/02/22-rdf-syntax-ns#"
   xmlns:svg="http://www.w3.org/2000/svg"
   xmlns="http://www.w3.org/2000/svg"
   xmlns:sodipodi="http://sodipodi.sourceforge.net/DTD/sodipodi-0.dtd"
   xmlns:inkscape="http://www.inkscape.org/namespaces/inkscape"
   width="20"
   height="20"
   viewBox="0 0 18.749999 18.749999"
   id="svg8821"
   version="1.1"
   inkscape:version="0.92.4 (5da689c313, 2019-01-14)"
   sodipodi:docname="skating_20.svg">
  <defs
     id="defs8823" />
  <sodipodi:namedview
     id="base"
     pagecolor="#ffffff"
     bordercolor="#666666"
     borderopacity="1.0"
     inkscape:pageopacity="0.0"
     inkscape:pageshadow="2"
     inkscape:zoom="16"
     inkscape:cx="-18.189263"
     inkscape:cy="7.1654151"
     inkscape:document-units="px"
     inkscape:current-layer="layer1"
     showgrid="false"
     fit-margin-top="0"
     fit-margin-left="0"
     fit-margin-right="0"
     fit-margin-bottom="0"
     inkscape:window-width="1870"
     inkscape:window-height="1016"
     inkscape:window-x="50"
     inkscape:window-y="27"
     inkscape:window-maximized="1"
     units="px"
     showguides="true"
     inkscape:guide-bbox="true">
    <sodipodi:guide
       position="3.6469688,35.375598"
       orientation="0,1"
       id="guide829"
       inkscape:locked="false" />
  </sodipodi:namedview>
  <metadata
     id="metadata8826">
    <rdf:RDF>
      <cc:Work
         rdf:about="">
        <dc:format>image/svg+xml</dc:format>
        <dc:type
           rdf:resource="http://purl.org/dc/dcmitype/StillImage" />
        <dc:title></dc:title>
        <cc:license
           rdf:resource="http://creativecommons.org/publicdomain/zero/1.0/" />
      </cc:Work>
      <cc:License
         rdf:about="http://creativecommons.org/publicdomain/zero/1.0/">
        <cc:permits
           rdf:resource="http://creativecommons.org/ns#Reproduction" />
        <cc:permits
           rdf:resource="http://creativecommons.org/ns#Distribution" />
        <cc:permits
           rdf:resource="http://creativecommons.org/ns#DerivativeWorks" />
      </cc:License>
    </rdf:RDF>
  </metadata>
  <g
     inkscape:label="Calque 1"
     inkscape:groupmode="layer"
     id="layer1"
     transform="translate(-306.66516,-357.88753)">
    <g
       style="display:inline;opacity:1;fill:none;stroke:#000000;stroke-width:0.1;stroke-miterlimit:4;stroke-dasharray:none;stroke-opacity:1"
       id="g9005"
       transform="translate(285.66836,-1130.9314)" />
    <g
       style="display:inline;opacity:1;fill:none;stroke:#000000;stroke-width:0.1;stroke-miterlimit:4;stroke-dasharray:none;stroke-opacity:1"
       id="g9021"
       transform="rotate(4.7846372,14596.605,4184.9003)" />
    <g
       id="g821"
       transform="matrix(0.44075767,0,0,0.44075767,168.46865,209.43653)"
       style="stroke-width:2.26882052">
      <path
         sodipodi:nodetypes="ccccccccccccccccccccccccccccccccccccccsccccccc"
         inkscape:connector-curvature="0"
         id="rect8892"
         d="m 338.84592,344.52419 c -2.37432,0.0497 -5.11882,0.47807 -6.70898,0.90625 l -2.98829,2.29492 -4.03711,3.94726 h -11.57118 v 1.62696 h 14.91689 l 0.0625,-1.62696 h -1.02149 l 1.70118,-1.06445 2.89648,-2.67969 0.78516,-0.71289 4.33593,-0.13476 -2.95511,2.14085 c 0,0 -0.88351,0.97719 -1.39082,1.87079 -0.362,0.6376 -0.74389,1.02055 -1.29863,2.57525 -0.69345,2.1964 0.51461,8.97657 0.51461,8.97657 l -6.83489,8.2881 -11.71181,-3.12245 v 1.26036 l 28.22353,7.53006 0.0137,0.004 v -0.002 c 0.62819,0.1533 1.61171,-0.25053 2.2207,-1.08008 l -1.02525,-0.81818 c -0.41752,0.30273 -0.66148,0.71957 -1.19408,0.51323 -4.6739,-1.34518 -9.2022,-2.37977 -14.04829,-3.63256 l 0.63672,-0.48046 c 8.1237,0.21523 18.45683,0.0677 25.6582,-0.002 0.64653,-0.0116 1.68283,-0.99588 2.06055,-1.95313 l -1.23633,-0.53516 c -0.18604,0.44598 -0.69803,1.24955 -1.26563,1.18555 -5.00336,0.0313 -9.45909,0.0625 -14.49023,0.0625 l 4.53118,-9.39453 c -0.24464,-1.9571 -5.87105,-6.29109 -5.87105,-6.29109 l 4.43642,-5.4988 c 1.16451,-1.19189 0.98709,-1.60679 1.50414,-2.75076 0,0 -1.21605,-0.55227 -2.65338,-1.31082 -0.65237,-0.0815 -1.40387,-0.10835 -2.19531,-0.0918 z m -3.35938,13.00586 4.03837,3.39886 -3.38865,8.93317 h -6.02323 l 5.45359,-5.57422 z"
         style="display:inline;opacity:1;fill:#000000;fill-opacity:1;stroke:none;stroke-width:0.22688206;stroke-miterlimit:4;stroke-dasharray:none;stroke-opacity:1" />
      <path
         inkscape:connector-curvature="0"
         id="ellipse9019"
         d="m 347.09613,342.52761 a 2.9567001,3.004255 0 0 1 -2.9567,3.00425 2.9567001,3.004255 0 0 1 -2.9567,-3.00425 2.9567001,3.004255 0 0 1 2.9567,-3.00426 2.9567001,3.004255 0 0 1 2.9567,3.00426 z"
         style="display:inline;opacity:1;fill:#000000;fill-opacity:1;stroke:none;stroke-width:0.22688206;stroke-miterlimit:4;stroke-dasharray:none;stroke-opacity:1" />
    </g>
  </g>
</svg>
